<svg width="66" height="63" viewBox="0 0 66 63" fill="none" xmlns="http://www.w3.org/2000/svg">
<path d="M66.0002 38.5008C66.0002 50.7431 53.9404 63.0009 41.8958 63.0009C29.8512 63.0009 13.2002 59.4932 13.2002 47.2508C13.2002 35.0084 26.9817 18.084 39.0263 18.084C51.0709 18.084 66.0002 26.2584 66.0002 38.5008Z" fill="#B9C700"/>
<path d="M46.7577 46.7582C46.7577 50.0689 44.0738 52.7528 40.7631 52.7528C37.4524 52.7528 34.7686 50.0689 34.7686 46.7582C34.7686 43.4476 37.4524 40.7637 40.7631 40.7637C44.0738 40.7637 46.7577 43.4476 46.7577 46.7582Z" stroke="#072506" stroke-width="3.5"/>
<path d="M22.7792 46.7582C22.7792 50.0689 20.0953 52.7528 16.7846 52.7528C13.4739 52.7528 10.79 50.0689 10.79 46.7582C10.79 43.4476 13.4739 40.7637 16.7846 40.7637C20.0953 40.7637 22.7792 43.4476 22.7792 46.7582Z" stroke="#072506" stroke-width="3.5"/>
<path d="M4.7959 28.7737V40.7628C4.7959 43.0038 4.7959 44.1243 5.27777 44.959C5.59344 45.5057 6.04749 45.9598 6.59427 46.2754C7.4289 46.7573 8.5494 46.7573 10.7905 46.7573M34.7687 46.7573H22.7796M35.9676 41.9617V21.5802C35.9676 18.1892 35.9676 16.4936 34.9143 15.4402C33.8606 14.3867 32.1651 14.3867 28.7741 14.3867H26.3763M37.1665 20.3813H41.486C43.4754 20.3813 44.4701 20.3813 45.2947 20.8481C46.119 21.315 46.631 22.1679 47.6544 23.8737L51.7273 30.662C52.2366 31.5108 52.4913 31.9354 52.6219 32.4066C52.7524 32.8778 52.7524 33.3727 52.7524 34.363V40.7628C52.7524 43.0038 52.7524 44.1243 52.2704 44.959C51.9549 45.5057 51.5007 45.9598 50.954 46.2754C50.1193 46.7573 48.9988 46.7573 46.7578 46.7573" stroke="#072506" stroke-width="3.5" stroke-linecap="round" stroke-linejoin="round"/>
<path d="M18.8232 18.8222L15.5861 16.6642V11.269M4.7959 15.5851C4.7959 21.5444 9.62684 26.3753 15.5861 26.3753C21.5454 26.3753 26.3763 21.5444 26.3763 15.5851C26.3763 9.62587 21.5454 4.79492 15.5861 4.79492C9.62684 4.79492 4.7959 9.62587 4.7959 15.5851Z" stroke="#072506" stroke-width="3.5" stroke-linecap="round" stroke-linejoin="round"/>
</svg>
