<svg width="66" height="63" viewBox="0 0 66 63" fill="none" xmlns="http://www.w3.org/2000/svg">
<path d="M66.0003 38.7237C66.0003 50.8538 54.2472 62.9992 42.5089 62.9992C30.7706 62.9992 14.543 59.5236 14.543 47.3935C14.543 35.2634 27.974 18.4941 39.7123 18.4941C51.4506 18.4941 66.0003 26.5936 66.0003 38.7237Z" fill="#B9C700"/>
<path d="M9.34766 32.7168H14.944C15.6314 32.7168 16.3094 32.8717 16.9242 33.1692L21.696 35.478C22.3108 35.7755 22.9887 35.9302 23.6761 35.9302H26.1125C28.469 35.9302 30.3794 37.7789 30.3794 40.0592C30.3794 40.1513 30.3163 40.2324 30.2247 40.2576L24.287 41.8995C23.2218 42.1939 22.0812 42.0913 21.0904 41.6118L15.9893 39.1439" stroke="#072506" stroke-width="3.5" stroke-linecap="round" stroke-linejoin="round"/>
<path d="M30.3794 38.5581L41.1121 35.2605C43.0148 34.6677 45.0715 35.3706 46.2633 37.0211C47.1251 38.2143 46.7741 39.9233 45.5188 40.6477L27.9559 50.781C26.8388 51.4255 25.5208 51.5828 24.2924 51.2183L9.34766 46.7836" stroke="#072506" stroke-width="3.5" stroke-linecap="round" stroke-linejoin="round"/>
<path d="M35.0524 28.0424H30.3787C25.9723 28.0424 23.7691 28.0424 22.4002 26.6735C21.0312 25.3046 21.0312 23.1014 21.0312 18.695V14.0213C21.0312 9.61484 21.0312 7.41162 22.4002 6.04274C23.7691 4.67383 25.9723 4.67383 30.3787 4.67383H35.0524C39.4588 4.67383 41.662 4.67383 43.0309 6.04274C44.3999 7.41162 44.3999 9.61484 44.3999 14.0213V18.695C44.3999 23.1014 44.3999 25.3046 43.0309 26.6735C41.662 28.0424 39.4588 28.0424 35.0524 28.0424Z" stroke="#072506" stroke-width="3.5" stroke-linecap="round" stroke-linejoin="round"/>
<path d="M30.3789 11.6836H35.0526" stroke="#072506" stroke-width="3.5" stroke-linecap="round" stroke-linejoin="round"/>
</svg>
