<svg width="66" height="63" viewBox="0 0 66 63" fill="none" xmlns="http://www.w3.org/2000/svg">
<path d="M66 38.4545C66 50.7196 53.8946 63 41.8043 63C29.7141 63 13 59.4858 13 47.2208C13 34.9558 26.8337 18 38.9239 18C51.0141 18 66 26.1895 66 38.4545Z" fill="#B9C700"/>
<path d="M28.5 27.7923C29.6768 27.7923 30.771 27.3126 32.9591 26.3532L34.538 25.6608C38.4294 23.9547 40.375 23.1016 40.375 21.7507C40.375 20.3997 38.4294 19.5466 34.538 17.8404L32.9591 17.1481C30.771 16.1887 29.6768 15.709 28.5 15.709C27.3232 15.709 26.229 16.1887 24.0409 17.1481L22.462 17.8404C18.5707 19.5466 16.625 20.3997 16.625 21.7507C16.625 23.1016 18.5707 23.9547 22.462 25.6608L24.0409 26.3532C26.229 27.3126 27.3232 27.7923 28.5 27.7923ZM28.5 27.7923V42.2923" stroke="#072506" stroke-width="3.5" stroke-linejoin="round"/>
<path d="M40.375 21.75V36.25C40.375 37.6009 38.4294 38.454 34.538 40.1602L32.9591 40.8525C30.771 41.812 29.6768 42.2917 28.5 42.2917C27.3232 42.2917 26.229 41.812 24.0409 40.8525L22.462 40.1602C18.5707 38.454 16.625 37.6009 16.625 36.25V21.75" stroke="#072506" stroke-width="3.5" stroke-linejoin="round"/>
<path d="M21.7176 6.04102C15.4072 6.18783 11.7213 6.8012 9.20296 9.36376C6.68458 11.9263 6.08178 15.6768 5.9375 22.098M35.2823 6.04102C41.5929 6.18783 45.2787 6.8012 47.7971 9.36376C50.3153 11.9263 50.9181 15.6768 51.0625 22.098M35.2823 51.9577C41.5929 51.8107 45.2787 51.1974 47.7971 48.635C50.3153 46.0724 50.9181 42.3219 51.0625 35.9006M21.7176 51.9577C15.4072 51.8107 11.7213 51.1974 9.20296 48.635C6.68458 46.0724 6.08178 42.3219 5.9375 35.9006" stroke="#072506" stroke-width="3.5" stroke-linecap="round" stroke-linejoin="round"/>
</svg>
