<svg width="216" height="183" viewBox="0 0 216 183" fill="none" xmlns="http://www.w3.org/2000/svg">
<g clip-path="url(#clip0_1012_16920)">
<mask id="mask0_1012_16920" style="mask-type:luminance" maskUnits="userSpaceOnUse" x="0" y="-67" width="216" height="279">
<path d="M216 -66.1914H0V211.924H216V-66.1914Z" fill="white"/>
</mask>
<g mask="url(#mask0_1012_16920)">
<path d="M167.811 102.77H55.9299C50.1915 102.77 45.4966 98.0551 45.4966 92.292C45.4966 86.5289 50.1915 81.8137 55.9299 81.8137H167.811C173.55 81.8137 178.245 86.5289 178.245 92.292C178.245 98.0551 173.55 102.77 167.811 102.77Z" fill="#F5F5F5"/>
<path d="M192.36 68.5659H31.3806C25.6428 68.5659 20.9473 63.8508 20.9473 58.0877C20.9473 52.3245 25.6428 47.6094 31.3806 47.6094H192.36C198.099 47.6094 202.794 52.3245 202.794 58.0877C202.794 63.8508 198.099 68.5659 192.36 68.5659Z" fill="#F5F5F5"/>
<path d="M178.334 49.8071H45.4075C39.6691 49.8071 34.9741 45.092 34.9741 39.3289C34.9741 33.5658 39.6691 28.8506 45.4075 28.8506H178.334C184.072 28.8506 188.767 33.5658 188.767 39.3289C188.767 45.092 184.072 49.8071 178.334 49.8071Z" fill="#F5F5F5"/>
<path d="M121 46.5086L121.031 46.9778L122.064 62.3968L121.394 62.6795L107.482 48.1251L106.732 47.4854L107.652 47.4224L120.549 46.5395L121 46.5086ZM125.946 76.275L132.296 75.8403L104.773 48.5467L80.9065 79.3586L87.2378 78.9251L88.6807 100.478L127.389 97.8282L125.946 76.275ZM116.635 72.804C117.303 72.7583 118.25 73.3666 118.312 74.2891L118.737 80.6412C118.796 81.5282 117.94 82.2778 117.273 82.3234L111.826 82.6963C110.924 82.7581 110.192 82.1173 110.133 81.2303L109.707 74.8781C109.646 73.9557 110.287 73.2387 111.189 73.1769L116.635 72.804Z" fill="#DADADA"/>
<path d="M147.609 155.01C147.609 159.528 131.608 163.19 111.871 163.19C92.1328 163.19 76.1328 159.528 76.1328 155.01C76.1328 150.493 92.1328 146.831 111.871 146.831C131.608 146.831 147.609 150.493 147.609 155.01Z" fill="#DADADA"/>
<path d="M102.577 21.1001C98.0623 21.4174 93.7339 22.3348 89.6635 23.7669C85.5926 25.1984 81.7793 27.1447 78.2949 29.5193C74.7022 31.9678 71.461 34.8731 68.6516 38.1455C65.8422 41.4173 63.4636 45.0568 61.5951 48.9726C59.7867 52.7615 58.4544 56.8073 57.6729 61.0278C56.9466 64.9519 56.6962 69.0269 56.9823 73.1886C57.0029 73.4881 57.0427 73.7997 57.0719 74.1041C57.4332 77.8882 58.4426 82.0731 59.9479 86.498C61.4527 90.9234 63.4533 95.5882 65.7983 100.332C68.581 105.964 71.8445 111.705 75.3307 117.283C78.8174 122.86 82.5279 128.274 86.2063 133.254C90.0623 138.475 93.881 143.217 97.3653 147.167C97.3889 147.195 97.4129 147.221 97.437 147.248C101.891 152.277 106.927 156.025 111.83 155.681C116.732 155.336 121.207 150.919 124.929 145.315C124.95 145.286 124.97 145.256 124.989 145.225C127.9 140.826 131.033 135.594 134.137 129.885C137.099 124.438 140.033 118.556 142.723 112.545C145.412 106.533 147.858 100.391 149.844 94.4238C151.516 89.3972 152.86 84.4972 153.745 79.9038C154.63 75.3109 155.057 71.025 154.896 67.2269C154.884 66.9212 154.881 66.6071 154.861 66.3075C154.574 62.1459 153.769 58.145 152.512 54.3604C151.161 50.2898 149.288 46.4693 146.979 42.9699C144.593 39.3533 141.738 36.0817 138.509 33.2344C135.278 30.3867 131.67 27.9628 127.778 26.0405C124.001 24.1764 119.958 22.7824 115.731 21.9343C111.504 21.0856 107.091 20.7827 102.577 21.1001L102.753 23.6554L102.928 26.2107L103.149 29.4184L103.37 32.6265L103.581 35.6961L103.792 38.7656L103.88 40.0446L103.968 41.3242C106.615 41.1381 109.2 41.3181 111.676 41.8162C114.153 42.3142 116.522 43.1303 118.736 44.2152C121.111 45.3787 123.308 46.8533 125.264 48.5936C127.22 50.3337 128.935 52.3389 130.348 54.5631C131.647 56.6092 132.693 58.8342 133.437 61.2002C134.091 63.2766 134.512 65.4608 134.668 67.7271C134.689 68.0367 134.673 68.3398 134.684 68.6473C134.775 71.1796 134.529 73.6492 133.983 76.0151C133.437 78.3803 132.59 80.6414 131.483 82.7558C130.318 84.9802 128.871 87.0426 127.181 88.8886C125.492 90.7346 123.559 92.3642 121.423 93.7215C119.452 94.9742 117.315 95.9984 115.045 96.7543C112.775 97.5103 110.374 97.9962 107.876 98.1718C105.377 98.3475 102.933 98.2022 100.581 97.7712C98.2301 97.3401 95.9726 96.6249 93.8497 95.66C91.5484 94.6146 89.4116 93.2711 87.4856 91.6793C85.5595 90.0875 83.8442 88.2473 82.3862 86.2074C80.9996 84.2684 79.8521 82.1475 78.9875 79.8814C78.1227 77.6147 77.5409 75.2033 77.2853 72.6825C77.2543 72.3765 77.1966 72.0785 77.1753 71.769C77.0195 69.5026 77.1378 67.2805 77.5007 65.1326C77.9146 62.6852 78.6458 60.3353 79.6523 58.1271C80.7467 55.7266 82.1708 53.5008 83.8701 51.5036C85.5689 49.5065 87.5423 47.7386 89.7357 46.2541C91.781 44.8696 94.0149 43.73 96.3998 42.8901C98.7842 42.0504 101.32 41.5104 103.968 41.3242C103.938 40.8977 103.918 40.4705 103.899 40.0432C103.879 39.6155 103.86 39.1882 103.831 38.7617C103.76 37.7384 103.689 36.7156 103.617 35.6929C103.546 34.6702 103.474 33.6475 103.403 32.6247L103.183 29.416L102.962 26.2078C102.904 25.3564 102.837 24.505 102.769 23.6542C102.702 22.8028 102.636 21.952 102.577 21.1001ZM-15.0088 -57.0476L200.61 -72.2061L219.677 205.126L4.05823 220.285L-15.0088 -57.0476ZM4.05823 220.285L219.677 205.126L200.61 -72.2061L-15.0088 -57.0476L4.05823 220.285Z" fill="#6AA632"/>
</g>
</g>
<defs>
<clipPath id="clip0_1012_16920">
<rect width="216" height="183" fill="white"/>
</clipPath>
</defs>
</svg>
