<svg width="154" height="59" viewBox="0 0 154 59" fill="none" xmlns="http://www.w3.org/2000/svg">
<rect width="154" height="58.4898" rx="4" fill="#333333"/>
<g clip-path="url(#clip0_847_269)">
<path d="M35.424 37.0659C35.0157 38.0169 34.5114 38.9238 33.919 39.7725C33.1269 40.9013 32.4788 41.6824 31.9795 42.1164C31.2054 42.828 30.3753 43.1932 29.4869 43.2136C28.8493 43.2136 28.0805 43.0322 27.185 42.6641C26.2867 42.2978 25.4613 42.1158 24.7065 42.1158C23.9149 42.1158 23.0661 42.2978 22.1579 42.6641C21.2485 43.0322 20.5158 43.2241 19.9558 43.2428C19.1041 43.2795 18.2548 42.9044 17.4066 42.1164C16.8659 41.6439 16.1898 40.8354 15.379 39.6897C14.5092 38.4659 13.794 37.0472 13.234 35.429C12.6344 33.682 12.3334 31.9897 12.3334 30.3517C12.3334 28.4751 12.7388 26.8569 13.5508 25.5007C14.1895 24.411 15.0383 23.5524 16.1011 22.9212C17.1438 22.2972 18.3336 21.9614 19.5486 21.9482C20.2253 21.9482 21.1125 22.1576 22.2156 22.5689C23.3152 22.9813 24.021 23.1907 24.3308 23.1907C24.5618 23.1907 25.3464 22.9457 26.6758 22.458C27.9335 22.0054 28.9945 21.8181 29.8637 21.8922C32.2198 22.0824 33.9896 23.011 35.1662 24.684C33.0598 25.9604 32.0174 27.7483 32.0384 30.0419C32.057 31.8287 32.7051 33.3156 33.9791 34.4957C34.5566 35.044 35.2012 35.4675 35.9181 35.768C35.7678 36.2059 35.603 36.6388 35.424 37.0659ZM30.0212 15.8057C30.0212 17.2057 29.5096 18.5135 28.49 19.7234C27.2591 21.1625 25.771 21.9937 24.157 21.8625C24.1353 21.6863 24.1244 21.5091 24.1243 21.3316C24.1243 19.9876 24.7094 18.5491 25.7489 17.3725C26.268 16.777 26.9272 16.2817 27.7275 15.8868C28.5267 15.4977 29.2815 15.2825 29.992 15.2451C30.0125 15.4324 30.0212 15.6196 30.0212 15.8051V15.8057Z" fill="white"/>
</g>
<path d="M51.337 17.117C51.337 17.9017 51.1793 18.5873 50.864 19.174C50.5487 19.7533 50.083 20.2043 49.467 20.527C48.8583 20.8423 48.125 21 47.267 21H44.803V13.245H47.267C48.125 13.245 48.8583 13.4027 49.467 13.718C50.083 14.026 50.5487 14.4733 50.864 15.06C51.1793 15.6393 51.337 16.325 51.337 17.117ZM47.19 20.098C48.202 20.098 48.9757 19.8377 49.511 19.317C50.0463 18.7963 50.314 18.063 50.314 17.117C50.314 16.171 50.0463 15.4377 49.511 14.917C48.983 14.389 48.2093 14.125 47.19 14.125H45.804V20.098H47.19ZM55.4268 14.884C56.0061 14.884 56.5231 15.0087 56.9778 15.258C57.4398 15.5073 57.7991 15.8667 58.0558 16.336C58.3198 16.8053 58.4518 17.3553 58.4518 17.986C58.4518 18.6167 58.3198 19.1667 58.0558 19.636C57.7991 20.098 57.4398 20.4537 56.9778 20.703C56.5231 20.9523 56.0061 21.077 55.4268 21.077C54.8474 21.077 54.3268 20.9523 53.8648 20.703C53.4101 20.4537 53.0508 20.098 52.7868 19.636C52.5228 19.1667 52.3908 18.6167 52.3908 17.986C52.3908 17.3553 52.5228 16.8053 52.7868 16.336C53.0508 15.8667 53.4101 15.5073 53.8648 15.258C54.3268 15.0087 54.8474 14.884 55.4268 14.884ZM55.4268 15.764C55.0674 15.764 54.7338 15.8447 54.4258 16.006C54.1251 16.1673 53.8794 16.4167 53.6888 16.754C53.5054 17.084 53.4138 17.4947 53.4138 17.986C53.4138 18.47 53.5054 18.8807 53.6888 19.218C53.8794 19.548 54.1251 19.7937 54.4258 19.955C54.7338 20.1163 55.0674 20.197 55.4268 20.197C55.7861 20.197 56.1161 20.1163 56.4168 19.955C56.7248 19.7937 56.9704 19.548 57.1538 19.218C57.3444 18.8807 57.4398 18.47 57.4398 17.986C57.4398 17.4947 57.3444 17.084 57.1538 16.754C56.9704 16.4167 56.7248 16.1673 56.4168 16.006C56.1161 15.8447 55.7861 15.764 55.4268 15.764ZM68.0501 14.961L66.3121 21H65.2341L63.5731 16.083L61.9011 21H60.8121L59.0961 14.961H60.1081L61.3951 20.043L63.0671 14.961H64.1121L65.7951 20.032L67.0931 14.961H68.0501ZM72.1627 14.862C72.8667 14.862 73.435 15.0893 73.8677 15.544C74.3003 15.9913 74.5167 16.6403 74.5167 17.491V21H73.5157V17.579C73.5157 16.9777 73.3617 16.5157 73.0537 16.193C72.7457 15.8703 72.3277 15.709 71.7997 15.709C71.2497 15.709 70.8097 15.8887 70.4797 16.248C70.1497 16.6 69.9847 17.117 69.9847 17.799V21H68.9837V14.961H69.9847V16.391C70.1387 15.8997 70.41 15.522 70.7987 15.258C71.1947 14.994 71.6493 14.862 72.1627 14.862ZM77.053 12.86V21H76.052V12.86H77.053ZM81.4014 14.884C81.9807 14.884 82.4977 15.0087 82.9524 15.258C83.4144 15.5073 83.7737 15.8667 84.0304 16.336C84.2944 16.8053 84.4264 17.3553 84.4264 17.986C84.4264 18.6167 84.2944 19.1667 84.0304 19.636C83.7737 20.098 83.4144 20.4537 82.9524 20.703C82.4977 20.9523 81.9807 21.077 81.4014 21.077C80.822 21.077 80.3014 20.9523 79.8394 20.703C79.3847 20.4537 79.0254 20.098 78.7614 19.636C78.4974 19.1667 78.3654 18.6167 78.3654 17.986C78.3654 17.3553 78.4974 16.8053 78.7614 16.336C79.0254 15.8667 79.3847 15.5073 79.8394 15.258C80.3014 15.0087 80.822 14.884 81.4014 14.884ZM81.4014 15.764C81.042 15.764 80.7084 15.8447 80.4004 16.006C80.0997 16.1673 79.854 16.4167 79.6634 16.754C79.48 17.084 79.3884 17.4947 79.3884 17.986C79.3884 18.47 79.48 18.8807 79.6634 19.218C79.854 19.548 80.0997 19.7937 80.4004 19.955C80.7084 20.1163 81.042 20.197 81.4014 20.197C81.7607 20.197 82.0907 20.1163 82.3914 19.955C82.6994 19.7937 82.945 19.548 83.1284 19.218C83.319 18.8807 83.4144 18.47 83.4144 17.986C83.4144 17.4947 83.319 17.084 83.1284 16.754C82.945 16.4167 82.6994 16.1673 82.3914 16.006C82.0907 15.8447 81.7607 15.764 81.4014 15.764ZM88.2057 14.884C88.7924 14.884 89.2874 15.0307 89.6907 15.324C90.1014 15.6173 90.3874 16.0097 90.5487 16.501V14.961H91.5497V21H90.5487V19.46C90.3874 19.9513 90.1014 20.3437 89.6907 20.637C89.2874 20.9303 88.7924 21.077 88.2057 21.077C87.6704 21.077 87.1937 20.9523 86.7757 20.703C86.3577 20.4537 86.0277 20.098 85.7857 19.636C85.5511 19.1667 85.4337 18.6167 85.4337 17.986C85.4337 17.3553 85.5511 16.8053 85.7857 16.336C86.0277 15.8667 86.3577 15.5073 86.7757 15.258C87.1937 15.0087 87.6704 14.884 88.2057 14.884ZM88.4917 15.775C87.8757 15.775 87.3807 15.973 87.0067 16.369C86.6401 16.7577 86.4567 17.2967 86.4567 17.986C86.4567 18.6753 86.6401 19.218 87.0067 19.614C87.3807 20.0027 87.8757 20.197 88.4917 20.197C88.8877 20.197 89.2397 20.1053 89.5477 19.922C89.8631 19.7387 90.1087 19.482 90.2847 19.152C90.4607 18.8147 90.5487 18.426 90.5487 17.986C90.5487 17.546 90.4607 17.1573 90.2847 16.82C90.1087 16.4827 89.8631 16.226 89.5477 16.05C89.2397 15.8667 88.8877 15.775 88.4917 15.775ZM95.6178 14.884C96.2045 14.884 96.6995 15.0307 97.1028 15.324C97.5135 15.6173 97.7995 16.0097 97.9608 16.501V12.86H98.9618V21H97.9608V19.46C97.7995 19.9513 97.5135 20.3437 97.1028 20.637C96.6995 20.9303 96.2045 21.077 95.6178 21.077C95.0825 21.077 94.6058 20.9523 94.1878 20.703C93.7698 20.4537 93.4398 20.098 93.1978 19.636C92.9632 19.1667 92.8458 18.6167 92.8458 17.986C92.8458 17.3553 92.9632 16.8053 93.1978 16.336C93.4398 15.8667 93.7698 15.5073 94.1878 15.258C94.6058 15.0087 95.0825 14.884 95.6178 14.884ZM95.9038 15.775C95.2878 15.775 94.7928 15.973 94.4188 16.369C94.0522 16.7577 93.8688 17.2967 93.8688 17.986C93.8688 18.6753 94.0522 19.218 94.4188 19.614C94.7928 20.0027 95.2878 20.197 95.9038 20.197C96.2998 20.197 96.6518 20.1053 96.9598 19.922C97.2752 19.7387 97.5208 19.482 97.6968 19.152C97.8728 18.8147 97.9608 18.426 97.9608 17.986C97.9608 17.546 97.8728 17.1573 97.6968 16.82C97.5208 16.4827 97.2752 16.226 96.9598 16.05C96.6518 15.8667 96.2998 15.775 95.9038 15.775ZM106.012 14.884C106.591 14.884 107.108 15.0087 107.563 15.258C108.025 15.5073 108.384 15.8667 108.641 16.336C108.905 16.8053 109.037 17.3553 109.037 17.986C109.037 18.6167 108.905 19.1667 108.641 19.636C108.384 20.098 108.025 20.4537 107.563 20.703C107.108 20.9523 106.591 21.077 106.012 21.077C105.432 21.077 104.912 20.9523 104.45 20.703C103.995 20.4537 103.636 20.098 103.372 19.636C103.108 19.1667 102.976 18.6167 102.976 17.986C102.976 17.3553 103.108 16.8053 103.372 16.336C103.636 15.8667 103.995 15.5073 104.45 15.258C104.912 15.0087 105.432 14.884 106.012 14.884ZM106.012 15.764C105.652 15.764 105.319 15.8447 105.011 16.006C104.71 16.1673 104.464 16.4167 104.274 16.754C104.09 17.084 103.999 17.4947 103.999 17.986C103.999 18.47 104.09 18.8807 104.274 19.218C104.464 19.548 104.71 19.7937 105.011 19.955C105.319 20.1163 105.652 20.197 106.012 20.197C106.371 20.197 106.701 20.1163 107.002 19.955C107.31 19.7937 107.555 19.548 107.739 19.218C107.929 18.8807 108.025 18.47 108.025 17.986C108.025 17.4947 107.929 17.084 107.739 16.754C107.555 16.4167 107.31 16.1673 107.002 16.006C106.701 15.8447 106.371 15.764 106.012 15.764ZM113.52 14.862C114.224 14.862 114.792 15.0893 115.225 15.544C115.658 15.9913 115.874 16.6403 115.874 17.491V21H114.873V17.579C114.873 16.9777 114.719 16.5157 114.411 16.193C114.103 15.8703 113.685 15.709 113.157 15.709C112.607 15.709 112.167 15.8887 111.837 16.248C111.507 16.6 111.342 17.117 111.342 17.799V21H110.341V14.961H111.342V16.391C111.496 15.8997 111.767 15.522 112.156 15.258C112.552 14.994 113.007 14.862 113.52 14.862ZM123.009 20.12V21H122.261C121.645 21 121.183 20.8533 120.875 20.56C120.575 20.2667 120.424 19.7753 120.424 19.086V15.83H119.522V14.961H120.424V13.454H121.436V14.961H122.998V15.83H121.436V19.108C121.436 19.4967 121.506 19.7643 121.645 19.911C121.792 20.0503 122.041 20.12 122.393 20.12H123.009ZM127.41 14.862C128.114 14.862 128.682 15.0893 129.115 15.544C129.547 15.9913 129.764 16.6403 129.764 17.491V21H128.763V17.579C128.763 16.9777 128.609 16.5157 128.301 16.193C127.993 15.8703 127.575 15.709 127.047 15.709C126.497 15.709 126.057 15.8887 125.727 16.248C125.397 16.6 125.232 17.117 125.232 17.799V21H124.231V12.86H125.232V16.391C125.386 15.8997 125.657 15.522 126.046 15.258C126.442 14.994 126.896 14.862 127.41 14.862ZM136.854 17.645C136.854 17.8577 136.839 18.041 136.81 18.195H131.981C132.003 18.8843 132.197 19.4013 132.564 19.746C132.938 20.0907 133.393 20.263 133.928 20.263C134.412 20.263 134.815 20.142 135.138 19.9C135.468 19.6507 135.67 19.3207 135.743 18.91H136.81C136.737 19.328 136.572 19.702 136.315 20.032C136.066 20.362 135.739 20.6187 135.336 20.802C134.933 20.9853 134.478 21.077 133.972 21.077C133.393 21.077 132.879 20.9523 132.432 20.703C131.985 20.4537 131.633 20.098 131.376 19.636C131.127 19.1667 131.002 18.6167 131.002 17.986C131.002 17.3553 131.127 16.8053 131.376 16.336C131.633 15.8667 131.985 15.5073 132.432 15.258C132.879 15.0087 133.393 14.884 133.972 14.884C134.559 14.884 135.068 15.0087 135.501 15.258C135.941 15.5073 136.275 15.841 136.502 16.259C136.737 16.677 136.854 17.139 136.854 17.645ZM135.842 17.711C135.864 17.2637 135.791 16.8897 135.622 16.589C135.453 16.2883 135.222 16.0647 134.929 15.918C134.636 15.7713 134.317 15.698 133.972 15.698C133.422 15.698 132.96 15.8703 132.586 16.215C132.212 16.5523 132.01 17.051 131.981 17.711H135.842Z" fill="#B3B3B3"/>
<path d="M51.84 39.552H47.072L46.208 42H44.256L48.416 30.88H50.512L54.656 42H52.704L51.84 39.552ZM51.328 38.144L49.456 32.864L47.584 38.144H51.328ZM61.0663 33.072C61.8343 33.072 62.5169 33.2533 63.1143 33.616C63.7223 33.9787 64.1969 34.5013 64.5383 35.184C64.8796 35.8667 65.0503 36.6667 65.0503 37.584C65.0503 38.512 64.8796 39.3173 64.5383 40C64.1969 40.6827 63.7223 41.2053 63.1143 41.568C62.5169 41.9307 61.8343 42.112 61.0663 42.112C60.2663 42.112 59.5836 41.9147 59.0182 41.52C58.4529 41.1253 58.0583 40.6027 57.8343 39.952V46.192H56.0103V33.184H57.8343V35.232C58.0583 34.5813 58.4529 34.0587 59.0182 33.664C59.5836 33.2693 60.2663 33.072 61.0663 33.072ZM60.5063 34.672C59.9943 34.672 59.5356 34.7947 59.1302 35.04C58.7249 35.2747 58.4049 35.616 58.1703 36.064C57.9356 36.5013 57.8183 37.008 57.8183 37.584C57.8183 38.1707 57.9356 38.6827 58.1703 39.12C58.4049 39.5573 58.7249 39.8987 59.1302 40.144C59.5356 40.3787 59.9943 40.496 60.5063 40.496C61.3169 40.496 61.9676 40.24 62.4583 39.728C62.9489 39.2053 63.1943 38.4907 63.1943 37.584C63.1943 36.688 62.9489 35.9787 62.4583 35.456C61.9676 34.9333 61.3169 34.672 60.5063 34.672ZM71.8631 33.072C72.6311 33.072 73.3138 33.2533 73.9111 33.616C74.5191 33.9787 74.9938 34.5013 75.3351 35.184C75.6765 35.8667 75.8471 36.6667 75.8471 37.584C75.8471 38.512 75.6765 39.3173 75.3351 40C74.9938 40.6827 74.5191 41.2053 73.9111 41.568C73.3138 41.9307 72.6311 42.112 71.8631 42.112C71.0631 42.112 70.3805 41.9147 69.8151 41.52C69.2498 41.1253 68.8551 40.6027 68.6311 39.952V46.192H66.8071V33.184H68.6311V35.232C68.8551 34.5813 69.2498 34.0587 69.8151 33.664C70.3805 33.2693 71.0631 33.072 71.8631 33.072ZM71.3031 34.672C70.7911 34.672 70.3325 34.7947 69.9271 35.04C69.5218 35.2747 69.2018 35.616 68.9671 36.064C68.7325 36.5013 68.6151 37.008 68.6151 37.584C68.6151 38.1707 68.7325 38.6827 68.9671 39.12C69.2018 39.5573 69.5218 39.8987 69.9271 40.144C70.3325 40.3787 70.7911 40.496 71.3031 40.496C72.1138 40.496 72.7645 40.24 73.2551 39.728C73.7458 39.2053 73.9911 38.4907 73.9911 37.584C73.9911 36.688 73.7458 35.9787 73.2551 35.456C72.7645 34.9333 72.1138 34.672 71.3031 34.672ZM88.778 38.992C88.778 39.5467 88.6447 40.064 88.378 40.544C88.1113 41.0133 87.706 41.392 87.162 41.68C86.618 41.968 85.9513 42.112 85.162 42.112C84.394 42.112 83.706 41.9787 83.098 41.712C82.49 41.4347 82.0047 41.0507 81.642 40.56C81.2793 40.0693 81.0713 39.504 81.018 38.864H82.97C83.0233 39.3547 83.2313 39.776 83.594 40.128C83.9673 40.48 84.4633 40.656 85.082 40.656C85.6367 40.656 86.0633 40.5067 86.362 40.208C86.6713 39.9093 86.826 39.5253 86.826 39.056C86.826 38.6507 86.714 38.32 86.49 38.064C86.266 37.7973 85.9887 37.5893 85.658 37.44C85.3273 37.2907 84.874 37.12 84.298 36.928C83.594 36.704 83.018 36.48 82.57 36.256C82.1327 36.032 81.7593 35.7067 81.45 35.28C81.1407 34.8533 80.986 34.2933 80.986 33.6C80.986 32.992 81.1353 32.4587 81.434 32C81.7327 31.5413 82.1593 31.1893 82.714 30.944C83.2687 30.688 83.9087 30.56 84.634 30.56C85.786 30.56 86.698 30.8373 87.37 31.392C88.0527 31.9467 88.442 32.672 88.538 33.568H86.57C86.4953 33.1413 86.2927 32.7787 85.962 32.48C85.642 32.1707 85.1993 32.016 84.634 32.016C84.122 32.016 83.7113 32.1493 83.402 32.416C83.0927 32.672 82.938 33.0453 82.938 33.536C82.938 33.92 83.0447 34.24 83.258 34.496C83.4713 34.7413 83.738 34.9387 84.058 35.088C84.3887 35.2267 84.8367 35.392 85.402 35.584C86.1167 35.808 86.698 36.0373 87.146 36.272C87.6047 36.496 87.9887 36.8267 88.298 37.264C88.618 37.7013 88.778 38.2773 88.778 38.992ZM95.036 40.416V42H93.916C92.9773 42 92.2627 41.776 91.772 41.328C91.292 40.8693 91.052 40.112 91.052 39.056V34.736H89.788V33.184H91.052V30.992H92.892V33.184H95.02V34.736H92.892V39.088C92.892 39.5893 92.9827 39.936 93.164 40.128C93.356 40.32 93.6867 40.416 94.156 40.416H95.036ZM100.777 33.072C101.63 33.072 102.398 33.2533 103.081 33.616C103.763 33.9787 104.297 34.5013 104.681 35.184C105.065 35.8667 105.257 36.6667 105.257 37.584C105.257 38.512 105.065 39.3173 104.681 40C104.297 40.6827 103.763 41.2053 103.081 41.568C102.398 41.9307 101.63 42.112 100.777 42.112C99.9233 42.112 99.1553 41.9307 98.4726 41.568C97.8006 41.2053 97.2673 40.6827 96.8726 40C96.4886 39.3067 96.2966 38.5013 96.2966 37.584C96.2966 36.6667 96.4886 35.8667 96.8726 35.184C97.2673 34.5013 97.8006 33.9787 98.4726 33.616C99.1553 33.2533 99.9233 33.072 100.777 33.072ZM100.777 34.656C100.307 34.656 99.8753 34.7627 99.4806 34.976C99.086 35.1893 98.766 35.52 98.5206 35.968C98.286 36.4053 98.1686 36.944 98.1686 37.584C98.1686 38.2347 98.286 38.7787 98.5206 39.216C98.766 39.6533 99.086 39.9787 99.4806 40.192C99.8753 40.4053 100.307 40.512 100.777 40.512C101.246 40.512 101.678 40.4053 102.073 40.192C102.467 39.9787 102.782 39.6533 103.017 39.216C103.262 38.7787 103.385 38.2347 103.385 37.584C103.385 36.944 103.262 36.4053 103.017 35.968C102.782 35.52 102.467 35.1893 102.073 34.976C101.678 34.7627 101.246 34.656 100.777 34.656ZM108.834 34.912C109.133 34.336 109.56 33.8827 110.114 33.552C110.669 33.2107 111.309 33.04 112.034 33.04V35.024H111.49C110.69 35.024 110.045 35.2213 109.554 35.616C109.074 36 108.834 36.64 108.834 37.536V42H107.01V33.184H108.834V34.912ZM121.593 37.168C121.593 37.4667 121.572 37.728 121.529 37.952H114.745C114.777 38.8587 115.028 39.5307 115.497 39.968C115.966 40.4053 116.548 40.624 117.241 40.624C117.849 40.624 118.361 40.4693 118.777 40.16C119.204 39.8507 119.465 39.44 119.561 38.928H121.513C121.396 39.5467 121.15 40.096 120.777 40.576C120.404 41.056 119.918 41.4347 119.321 41.712C118.724 41.9787 118.057 42.112 117.321 42.112C116.468 42.112 115.71 41.9307 115.049 41.568C114.398 41.2053 113.886 40.6827 113.513 40C113.14 39.3173 112.953 38.512 112.953 37.584C112.953 36.6667 113.14 35.8667 113.513 35.184C113.886 34.5013 114.398 33.9787 115.049 33.616C115.71 33.2533 116.468 33.072 117.321 33.072C118.185 33.072 118.937 33.2533 119.577 33.616C120.228 33.968 120.724 34.4587 121.065 35.088C121.417 35.7067 121.593 36.4 121.593 37.168ZM119.753 37.12C119.774 36.544 119.673 36.064 119.449 35.68C119.236 35.2853 118.937 34.9973 118.553 34.816C118.18 34.624 117.769 34.528 117.321 34.528C116.606 34.528 116.009 34.7467 115.529 35.184C115.049 35.6213 114.788 36.2667 114.745 37.12H119.753Z" fill="white"/>
<defs>
<clipPath id="clip0_847_269">
<rect width="28" height="28" fill="white" transform="translate(10 15.2451)"/>
</clipPath>
</defs>
</svg>
