<svg width="134" height="40" viewBox="0 0 134 40" fill="none" xmlns="http://www.w3.org/2000/svg">
<g clip-path="url(#clip0_2085_16622)">
<path d="M25.424 27.8207C25.0157 28.7718 24.5114 29.6787 23.919 30.5274C23.1269 31.6562 22.4788 32.4372 21.9795 32.8712C21.2054 33.5829 20.3753 33.9481 19.4869 33.9685C18.8493 33.9685 18.0805 33.7871 17.185 33.419C16.2867 33.0527 15.4613 32.8707 14.7065 32.8707C13.9149 32.8707 13.0661 33.0527 12.1579 33.419C11.2485 33.7871 10.5158 33.979 9.95579 33.9977C9.10412 34.0344 8.25479 33.6593 7.40662 32.8712C6.86587 32.3987 6.18979 31.5902 5.37896 30.4446C4.50921 29.2207 3.79404 27.8021 3.23404 26.1839C2.63437 24.4368 2.33337 22.7446 2.33337 21.1066C2.33337 19.23 2.73879 17.6118 3.55079 16.2556C4.18954 15.1659 5.03829 14.3073 6.10112 13.6761C7.14382 13.0521 8.33356 12.7163 9.54862 12.7031C10.2253 12.7031 11.1125 12.9125 12.2156 13.3238C13.3152 13.7362 14.021 13.9456 14.3308 13.9456C14.5618 13.9456 15.3464 13.7006 16.6758 13.2129C17.9335 12.7602 18.9945 12.573 19.8637 12.6471C22.2198 12.8373 23.9896 13.7659 25.1662 15.4389C23.0598 16.7152 22.0174 18.5032 22.0384 20.7968C22.057 22.5836 22.7051 24.0705 23.9791 25.2506C24.5566 25.7989 25.2012 26.2224 25.9181 26.5228C25.7678 26.9608 25.603 27.3937 25.424 27.8207ZM20.0212 6.56058C20.0212 7.96058 19.5096 9.26842 18.49 10.4783C17.2591 11.9173 15.771 12.7486 14.157 12.6173C14.1353 12.4412 14.1244 12.2639 14.1243 12.0865C14.1243 10.7425 14.7094 9.304 15.7489 8.12742C16.268 7.53183 16.9272 7.03658 17.7275 6.64167C18.5267 6.25258 19.2815 6.03733 19.992 6C20.0125 6.18725 20.0212 6.3745 20.0212 6.56V6.56058Z" fill="white"/>
</g>
<path d="M41.337 7.8721C41.337 8.65677 41.1793 9.34244 40.864 9.9291C40.5487 10.5084 40.083 10.9594 39.467 11.2821C38.8583 11.5974 38.125 11.7551 37.267 11.7551H34.803V4.0001H37.267C38.125 4.0001 38.8583 4.15777 39.467 4.4731C40.083 4.7811 40.5487 5.22844 40.864 5.8151C41.1793 6.39444 41.337 7.0801 41.337 7.8721ZM37.19 10.8531C38.202 10.8531 38.9757 10.5928 39.511 10.0721C40.0463 9.55144 40.314 8.8181 40.314 7.8721C40.314 6.9261 40.0463 6.19277 39.511 5.6721C38.983 5.1441 38.2093 4.8801 37.19 4.8801H35.804V10.8531H37.19ZM45.4268 5.6391C46.0061 5.6391 46.5231 5.76377 46.9778 6.0131C47.4398 6.26244 47.7991 6.62177 48.0558 7.0911C48.3198 7.56044 48.4518 8.11044 48.4518 8.7411C48.4518 9.37177 48.3198 9.92177 48.0558 10.3911C47.7991 10.8531 47.4398 11.2088 46.9778 11.4581C46.5231 11.7074 46.0061 11.8321 45.4268 11.8321C44.8474 11.8321 44.3268 11.7074 43.8648 11.4581C43.4101 11.2088 43.0508 10.8531 42.7868 10.3911C42.5228 9.92177 42.3908 9.37177 42.3908 8.7411C42.3908 8.11044 42.5228 7.56044 42.7868 7.0911C43.0508 6.62177 43.4101 6.26244 43.8648 6.0131C44.3268 5.76377 44.8474 5.6391 45.4268 5.6391ZM45.4268 6.5191C45.0674 6.5191 44.7338 6.59977 44.4258 6.7611C44.1251 6.92244 43.8794 7.17177 43.6888 7.5091C43.5054 7.8391 43.4138 8.24977 43.4138 8.7411C43.4138 9.2251 43.5054 9.63577 43.6888 9.9731C43.8794 10.3031 44.1251 10.5488 44.4258 10.7101C44.7338 10.8714 45.0674 10.9521 45.4268 10.9521C45.7861 10.9521 46.1161 10.8714 46.4168 10.7101C46.7248 10.5488 46.9704 10.3031 47.1538 9.9731C47.3444 9.63577 47.4398 9.2251 47.4398 8.7411C47.4398 8.24977 47.3444 7.8391 47.1538 7.5091C46.9704 7.17177 46.7248 6.92244 46.4168 6.7611C46.1161 6.59977 45.7861 6.5191 45.4268 6.5191ZM58.0501 5.7161L56.3121 11.7551H55.2341L53.5731 6.8381L51.9011 11.7551H50.8121L49.0961 5.7161H50.1081L51.3951 10.7981L53.0671 5.7161H54.1121L55.7951 10.7871L57.0931 5.7161H58.0501ZM62.1627 5.6171C62.8667 5.6171 63.435 5.84444 63.8677 6.2991C64.3003 6.74644 64.5167 7.39544 64.5167 8.2461V11.7551H63.5157V8.3341C63.5157 7.73277 63.3617 7.27077 63.0537 6.9481C62.7457 6.62544 62.3277 6.4641 61.7997 6.4641C61.2497 6.4641 60.8097 6.64377 60.4797 7.0031C60.1497 7.3551 59.9847 7.8721 59.9847 8.5541V11.7551H58.9837V5.7161H59.9847V7.1461C60.1387 6.65477 60.41 6.2771 60.7987 6.0131C61.1947 5.7491 61.6493 5.6171 62.1627 5.6171ZM67.053 3.6151V11.7551H66.052V3.6151H67.053ZM71.4014 5.6391C71.9807 5.6391 72.4977 5.76377 72.9524 6.0131C73.4144 6.26244 73.7737 6.62177 74.0304 7.0911C74.2944 7.56044 74.4264 8.11044 74.4264 8.7411C74.4264 9.37177 74.2944 9.92177 74.0304 10.3911C73.7737 10.8531 73.4144 11.2088 72.9524 11.4581C72.4977 11.7074 71.9807 11.8321 71.4014 11.8321C70.822 11.8321 70.3014 11.7074 69.8394 11.4581C69.3847 11.2088 69.0254 10.8531 68.7614 10.3911C68.4974 9.92177 68.3654 9.37177 68.3654 8.7411C68.3654 8.11044 68.4974 7.56044 68.7614 7.0911C69.0254 6.62177 69.3847 6.26244 69.8394 6.0131C70.3014 5.76377 70.822 5.6391 71.4014 5.6391ZM71.4014 6.5191C71.042 6.5191 70.7084 6.59977 70.4004 6.7611C70.0997 6.92244 69.854 7.17177 69.6634 7.5091C69.48 7.8391 69.3884 8.24977 69.3884 8.7411C69.3884 9.2251 69.48 9.63577 69.6634 9.9731C69.854 10.3031 70.0997 10.5488 70.4004 10.7101C70.7084 10.8714 71.042 10.9521 71.4014 10.9521C71.7607 10.9521 72.0907 10.8714 72.3914 10.7101C72.6994 10.5488 72.945 10.3031 73.1284 9.9731C73.319 9.63577 73.4144 9.2251 73.4144 8.7411C73.4144 8.24977 73.319 7.8391 73.1284 7.5091C72.945 7.17177 72.6994 6.92244 72.3914 6.7611C72.0907 6.59977 71.7607 6.5191 71.4014 6.5191ZM78.2057 5.6391C78.7924 5.6391 79.2874 5.78577 79.6907 6.0791C80.1014 6.37244 80.3874 6.76477 80.5487 7.2561V5.7161H81.5497V11.7551H80.5487V10.2151C80.3874 10.7064 80.1014 11.0988 79.6907 11.3921C79.2874 11.6854 78.7924 11.8321 78.2057 11.8321C77.6704 11.8321 77.1937 11.7074 76.7757 11.4581C76.3577 11.2088 76.0277 10.8531 75.7857 10.3911C75.5511 9.92177 75.4337 9.37177 75.4337 8.7411C75.4337 8.11044 75.5511 7.56044 75.7857 7.0911C76.0277 6.62177 76.3577 6.26244 76.7757 6.0131C77.1937 5.76377 77.6704 5.6391 78.2057 5.6391ZM78.4917 6.5301C77.8757 6.5301 77.3807 6.7281 77.0067 7.1241C76.6401 7.51277 76.4567 8.05177 76.4567 8.7411C76.4567 9.43044 76.6401 9.9731 77.0067 10.3691C77.3807 10.7578 77.8757 10.9521 78.4917 10.9521C78.8877 10.9521 79.2397 10.8604 79.5477 10.6771C79.8631 10.4938 80.1087 10.2371 80.2847 9.9071C80.4607 9.56977 80.5487 9.1811 80.5487 8.7411C80.5487 8.3011 80.4607 7.91244 80.2847 7.5751C80.1087 7.23777 79.8631 6.9811 79.5477 6.8051C79.2397 6.62177 78.8877 6.5301 78.4917 6.5301ZM85.6178 5.6391C86.2045 5.6391 86.6995 5.78577 87.1028 6.0791C87.5135 6.37244 87.7995 6.76477 87.9608 7.2561V3.6151H88.9618V11.7551H87.9608V10.2151C87.7995 10.7064 87.5135 11.0988 87.1028 11.3921C86.6995 11.6854 86.2045 11.8321 85.6178 11.8321C85.0825 11.8321 84.6058 11.7074 84.1878 11.4581C83.7698 11.2088 83.4398 10.8531 83.1978 10.3911C82.9632 9.92177 82.8458 9.37177 82.8458 8.7411C82.8458 8.11044 82.9632 7.56044 83.1978 7.0911C83.4398 6.62177 83.7698 6.26244 84.1878 6.0131C84.6058 5.76377 85.0825 5.6391 85.6178 5.6391ZM85.9038 6.5301C85.2878 6.5301 84.7928 6.7281 84.4188 7.1241C84.0522 7.51277 83.8688 8.05177 83.8688 8.7411C83.8688 9.43044 84.0522 9.9731 84.4188 10.3691C84.7928 10.7578 85.2878 10.9521 85.9038 10.9521C86.2998 10.9521 86.6518 10.8604 86.9598 10.6771C87.2752 10.4938 87.5208 10.2371 87.6968 9.9071C87.8728 9.56977 87.9608 9.1811 87.9608 8.7411C87.9608 8.3011 87.8728 7.91244 87.6968 7.5751C87.5208 7.23777 87.2752 6.9811 86.9598 6.8051C86.6518 6.62177 86.2998 6.5301 85.9038 6.5301ZM96.0117 5.6391C96.5911 5.6391 97.1081 5.76377 97.5627 6.0131C98.0247 6.26244 98.3841 6.62177 98.6407 7.0911C98.9047 7.56044 99.0367 8.11044 99.0367 8.7411C99.0367 9.37177 98.9047 9.92177 98.6407 10.3911C98.3841 10.8531 98.0247 11.2088 97.5627 11.4581C97.1081 11.7074 96.5911 11.8321 96.0117 11.8321C95.4324 11.8321 94.9117 11.7074 94.4497 11.4581C93.9951 11.2088 93.6357 10.8531 93.3717 10.3911C93.1077 9.92177 92.9757 9.37177 92.9757 8.7411C92.9757 8.11044 93.1077 7.56044 93.3717 7.0911C93.6357 6.62177 93.9951 6.26244 94.4497 6.0131C94.9117 5.76377 95.4324 5.6391 96.0117 5.6391ZM96.0117 6.5191C95.6524 6.5191 95.3187 6.59977 95.0107 6.7611C94.7101 6.92244 94.4644 7.17177 94.2737 7.5091C94.0904 7.8391 93.9987 8.24977 93.9987 8.7411C93.9987 9.2251 94.0904 9.63577 94.2737 9.9731C94.4644 10.3031 94.7101 10.5488 95.0107 10.7101C95.3187 10.8714 95.6524 10.9521 96.0117 10.9521C96.3711 10.9521 96.7011 10.8714 97.0017 10.7101C97.3097 10.5488 97.5554 10.3031 97.7387 9.9731C97.9294 9.63577 98.0247 9.2251 98.0247 8.7411C98.0247 8.24977 97.9294 7.8391 97.7387 7.5091C97.5554 7.17177 97.3097 6.92244 97.0017 6.7611C96.7011 6.59977 96.3711 6.5191 96.0117 6.5191ZM103.52 5.6171C104.224 5.6171 104.792 5.84444 105.225 6.2991C105.658 6.74644 105.874 7.39544 105.874 8.2461V11.7551H104.873V8.3341C104.873 7.73277 104.719 7.27077 104.411 6.9481C104.103 6.62544 103.685 6.4641 103.157 6.4641C102.607 6.4641 102.167 6.64377 101.837 7.0031C101.507 7.3551 101.342 7.8721 101.342 8.5541V11.7551H100.341V5.7161H101.342V7.1461C101.496 6.65477 101.767 6.2771 102.156 6.0131C102.552 5.7491 103.007 5.6171 103.52 5.6171ZM113.009 10.8751V11.7551H112.261C111.645 11.7551 111.183 11.6084 110.875 11.3151C110.575 11.0218 110.424 10.5304 110.424 9.8411V6.5851H109.522V5.7161H110.424V4.2091H111.436V5.7161H112.998V6.5851H111.436V9.8631C111.436 10.2518 111.506 10.5194 111.645 10.6661C111.792 10.8054 112.041 10.8751 112.393 10.8751H113.009ZM117.41 5.6171C118.114 5.6171 118.682 5.84444 119.115 6.2991C119.547 6.74644 119.764 7.39544 119.764 8.2461V11.7551H118.763V8.3341C118.763 7.73277 118.609 7.27077 118.301 6.9481C117.993 6.62544 117.575 6.4641 117.047 6.4641C116.497 6.4641 116.057 6.64377 115.727 7.0031C115.397 7.3551 115.232 7.8721 115.232 8.5541V11.7551H114.231V3.6151H115.232V7.1461C115.386 6.65477 115.657 6.2771 116.046 6.0131C116.442 5.7491 116.896 5.6171 117.41 5.6171ZM126.854 8.4001C126.854 8.61277 126.839 8.7961 126.81 8.9501H121.981C122.003 9.63944 122.197 10.1564 122.564 10.5011C122.938 10.8458 123.393 11.0181 123.928 11.0181C124.412 11.0181 124.815 10.8971 125.138 10.6551C125.468 10.4058 125.67 10.0758 125.743 9.6651H126.81C126.737 10.0831 126.572 10.4571 126.315 10.7871C126.066 11.1171 125.739 11.3738 125.336 11.5571C124.933 11.7404 124.478 11.8321 123.972 11.8321C123.393 11.8321 122.879 11.7074 122.432 11.4581C121.985 11.2088 121.633 10.8531 121.376 10.3911C121.127 9.92177 121.002 9.37177 121.002 8.7411C121.002 8.11044 121.127 7.56044 121.376 7.0911C121.633 6.62177 121.985 6.26244 122.432 6.0131C122.879 5.76377 123.393 5.6391 123.972 5.6391C124.559 5.6391 125.068 5.76377 125.501 6.0131C125.941 6.26244 126.275 6.5961 126.502 7.0141C126.737 7.4321 126.854 7.8941 126.854 8.4001ZM125.842 8.4661C125.864 8.01877 125.791 7.64477 125.622 7.3441C125.453 7.04344 125.222 6.81977 124.929 6.6731C124.636 6.52644 124.317 6.4531 123.972 6.4531C123.422 6.4531 122.96 6.62544 122.586 6.9701C122.212 7.30744 122.01 7.8061 121.981 8.4661H125.842Z" fill="white"/>
<path d="M41.84 30.3071H37.072L36.208 32.7551H34.256L38.416 21.6351H40.512L44.656 32.7551H42.704L41.84 30.3071ZM41.328 28.8991L39.456 23.6191L37.584 28.8991H41.328ZM51.0663 23.8271C51.8343 23.8271 52.5169 24.0084 53.1143 24.3711C53.7223 24.7338 54.1969 25.2564 54.5383 25.9391C54.8796 26.6218 55.0503 27.4218 55.0503 28.3391C55.0503 29.2671 54.8796 30.0724 54.5383 30.7551C54.1969 31.4378 53.7223 31.9604 53.1143 32.3231C52.5169 32.6858 51.8343 32.8671 51.0663 32.8671C50.2663 32.8671 49.5836 32.6698 49.0182 32.2751C48.4529 31.8804 48.0583 31.3578 47.8343 30.7071V36.9471H46.0103V23.9391H47.8343V25.9871C48.0583 25.3364 48.4529 24.8138 49.0182 24.4191C49.5836 24.0244 50.2663 23.8271 51.0663 23.8271ZM50.5063 25.4271C49.9943 25.4271 49.5356 25.5498 49.1302 25.7951C48.7249 26.0298 48.4049 26.3711 48.1703 26.8191C47.9356 27.2564 47.8183 27.7631 47.8183 28.3391C47.8183 28.9258 47.9356 29.4378 48.1703 29.8751C48.4049 30.3124 48.7249 30.6538 49.1302 30.8991C49.5356 31.1338 49.9943 31.2511 50.5063 31.2511C51.3169 31.2511 51.9676 30.9951 52.4583 30.4831C52.9489 29.9604 53.1943 29.2458 53.1943 28.3391C53.1943 27.4431 52.9489 26.7338 52.4583 26.2111C51.9676 25.6884 51.3169 25.4271 50.5063 25.4271ZM61.8631 23.8271C62.6311 23.8271 63.3138 24.0084 63.9111 24.3711C64.5191 24.7338 64.9938 25.2564 65.3351 25.9391C65.6765 26.6218 65.8471 27.4218 65.8471 28.3391C65.8471 29.2671 65.6765 30.0724 65.3351 30.7551C64.9938 31.4378 64.5191 31.9604 63.9111 32.3231C63.3138 32.6858 62.6311 32.8671 61.8631 32.8671C61.0631 32.8671 60.3805 32.6698 59.8151 32.2751C59.2498 31.8804 58.8551 31.3578 58.6311 30.7071V36.9471H56.8071V23.9391H58.6311V25.9871C58.8551 25.3364 59.2498 24.8138 59.8151 24.4191C60.3805 24.0244 61.0631 23.8271 61.8631 23.8271ZM61.3031 25.4271C60.7911 25.4271 60.3325 25.5498 59.9271 25.7951C59.5218 26.0298 59.2018 26.3711 58.9671 26.8191C58.7325 27.2564 58.6151 27.7631 58.6151 28.3391C58.6151 28.9258 58.7325 29.4378 58.9671 29.8751C59.2018 30.3124 59.5218 30.6538 59.9271 30.8991C60.3325 31.1338 60.7911 31.2511 61.3031 31.2511C62.1138 31.2511 62.7645 30.9951 63.2551 30.4831C63.7458 29.9604 63.9911 29.2458 63.9911 28.3391C63.9911 27.4431 63.7458 26.7338 63.2551 26.2111C62.7645 25.6884 62.1138 25.4271 61.3031 25.4271ZM78.778 29.7471C78.778 30.3018 78.6447 30.8191 78.378 31.2991C78.1113 31.7684 77.706 32.1471 77.162 32.4351C76.618 32.7231 75.9513 32.8671 75.162 32.8671C74.394 32.8671 73.706 32.7338 73.098 32.4671C72.49 32.1898 72.0047 31.8058 71.642 31.3151C71.2793 30.8244 71.0713 30.2591 71.018 29.6191H72.97C73.0233 30.1098 73.2313 30.5311 73.594 30.8831C73.9673 31.2351 74.4633 31.4111 75.082 31.4111C75.6367 31.4111 76.0633 31.2618 76.362 30.9631C76.6713 30.6644 76.826 30.2804 76.826 29.8111C76.826 29.4058 76.714 29.0751 76.49 28.8191C76.266 28.5524 75.9887 28.3444 75.658 28.1951C75.3273 28.0458 74.874 27.8751 74.298 27.6831C73.594 27.4591 73.018 27.2351 72.57 27.0111C72.1327 26.7871 71.7593 26.4618 71.45 26.0351C71.1407 25.6084 70.986 25.0484 70.986 24.3551C70.986 23.7471 71.1353 23.2138 71.434 22.7551C71.7327 22.2964 72.1593 21.9444 72.714 21.6991C73.2687 21.4431 73.9087 21.3151 74.634 21.3151C75.786 21.3151 76.698 21.5924 77.37 22.1471C78.0527 22.7018 78.442 23.4271 78.538 24.3231H76.57C76.4953 23.8964 76.2927 23.5338 75.962 23.2351C75.642 22.9258 75.1993 22.7711 74.634 22.7711C74.122 22.7711 73.7113 22.9044 73.402 23.1711C73.0927 23.4271 72.938 23.8004 72.938 24.2911C72.938 24.6751 73.0447 24.9951 73.258 25.2511C73.4713 25.4964 73.738 25.6938 74.058 25.8431C74.3887 25.9818 74.8367 26.1471 75.402 26.3391C76.1167 26.5631 76.698 26.7924 77.146 27.0271C77.6047 27.2511 77.9887 27.5818 78.298 28.0191C78.618 28.4564 78.778 29.0324 78.778 29.7471ZM85.036 31.1711V32.7551H83.916C82.9773 32.7551 82.2627 32.5311 81.772 32.0831C81.292 31.6244 81.052 30.8671 81.052 29.8111V25.4911H79.788V23.9391H81.052V21.7471H82.892V23.9391H85.02V25.4911H82.892V29.8431C82.892 30.3444 82.9827 30.6911 83.164 30.8831C83.356 31.0751 83.6867 31.1711 84.156 31.1711H85.036ZM90.7766 23.8271C91.63 23.8271 92.398 24.0084 93.0806 24.3711C93.7633 24.7338 94.2966 25.2564 94.6806 25.9391C95.0646 26.6218 95.2566 27.4218 95.2566 28.3391C95.2566 29.2671 95.0646 30.0724 94.6806 30.7551C94.2966 31.4378 93.7633 31.9604 93.0806 32.3231C92.398 32.6858 91.63 32.8671 90.7766 32.8671C89.9233 32.8671 89.1553 32.6858 88.4726 32.3231C87.8006 31.9604 87.2673 31.4378 86.8726 30.7551C86.4886 30.0618 86.2966 29.2564 86.2966 28.3391C86.2966 27.4218 86.4886 26.6218 86.8726 25.9391C87.2673 25.2564 87.8006 24.7338 88.4726 24.3711C89.1553 24.0084 89.9233 23.8271 90.7766 23.8271ZM90.7766 25.4111C90.3073 25.4111 89.8753 25.5178 89.4806 25.7311C89.086 25.9444 88.766 26.2751 88.5206 26.7231C88.286 27.1604 88.1686 27.6991 88.1686 28.3391C88.1686 28.9898 88.286 29.5338 88.5206 29.9711C88.766 30.4084 89.086 30.7338 89.4806 30.9471C89.8753 31.1604 90.3073 31.2671 90.7766 31.2671C91.246 31.2671 91.678 31.1604 92.0726 30.9471C92.4673 30.7338 92.782 30.4084 93.0166 29.9711C93.262 29.5338 93.3846 28.9898 93.3846 28.3391C93.3846 27.6991 93.262 27.1604 93.0166 26.7231C92.782 26.2751 92.4673 25.9444 92.0726 25.7311C91.678 25.5178 91.246 25.4111 90.7766 25.4111ZM98.8343 25.6671C99.1329 25.0911 99.5596 24.6378 100.114 24.3071C100.669 23.9658 101.309 23.7951 102.034 23.7951V25.7791H101.49C100.69 25.7791 100.045 25.9764 99.5543 26.3711C99.0743 26.7551 98.8343 27.3951 98.8343 28.2911V32.7551H97.0103V23.9391H98.8343V25.6671ZM111.593 27.9231C111.593 28.2218 111.572 28.4831 111.529 28.7071H104.745C104.777 29.6138 105.028 30.2858 105.497 30.7231C105.966 31.1604 106.548 31.3791 107.241 31.3791C107.849 31.3791 108.361 31.2244 108.777 30.9151C109.204 30.6058 109.465 30.1951 109.561 29.6831H111.513C111.396 30.3018 111.15 30.8511 110.777 31.3311C110.404 31.8111 109.918 32.1898 109.321 32.4671C108.724 32.7338 108.057 32.8671 107.321 32.8671C106.468 32.8671 105.71 32.6858 105.049 32.3231C104.398 31.9604 103.886 31.4378 103.513 30.7551C103.14 30.0724 102.953 29.2671 102.953 28.3391C102.953 27.4218 103.14 26.6218 103.513 25.9391C103.886 25.2564 104.398 24.7338 105.049 24.3711C105.71 24.0084 106.468 23.8271 107.321 23.8271C108.185 23.8271 108.937 24.0084 109.577 24.3711C110.228 24.7231 110.724 25.2138 111.065 25.8431C111.417 26.4618 111.593 27.1551 111.593 27.9231ZM109.753 27.8751C109.774 27.2991 109.673 26.8191 109.449 26.4351C109.236 26.0404 108.937 25.7524 108.553 25.5711C108.18 25.3791 107.769 25.2831 107.321 25.2831C106.606 25.2831 106.009 25.5018 105.529 25.9391C105.049 26.3764 104.788 27.0218 104.745 27.8751H109.753Z" fill="white"/>
<defs>
<clipPath id="clip0_2085_16622">
<rect width="28" height="28" fill="white" transform="translate(0 6)"/>
</clipPath>
</defs>
</svg>
