<svg width="300" height="300" viewBox="0 0 300 300" fill="none" xmlns="http://www.w3.org/2000/svg">
<circle cx="150" cy="150" r="122.474" transform="rotate(165 150 150)" fill="url(#paint0_linear_957_4733)"/>
<path d="M190.861 194.427C202.015 194.427 211.057 203.469 211.057 214.622C211.056 225.775 202.015 234.817 190.861 234.817H100.166C96.1101 234.817 92.8221 231.529 92.8221 227.474C92.8222 223.418 96.1101 220.13 100.166 220.13H166.26V214.817H190.861C190.9 214.817 190.918 214.814 190.922 214.813C190.926 214.813 190.928 214.812 190.932 214.811C190.941 214.807 190.967 214.792 190.999 214.76C191.03 214.728 191.046 214.702 191.05 214.692C191.051 214.689 191.052 214.686 191.053 214.683C191.053 214.68 191.056 214.661 191.057 214.622C191.057 214.584 191.053 214.566 191.053 214.562C191.052 214.558 191.051 214.555 191.05 214.552C191.046 214.543 191.031 214.516 190.999 214.484C190.967 214.453 190.941 214.438 190.932 214.434C190.928 214.432 190.926 214.431 190.922 214.431C190.919 214.43 190.9 214.427 190.861 214.427H166.26V194.427H190.861Z" fill="url(#paint1_linear_957_4733)"/>
<path d="M230.22 121.723C234.275 121.723 237.563 125.011 237.563 129.066C237.563 133.122 234.276 136.41 230.22 136.41H210.46L203.464 162.518C202.414 166.435 198.387 168.761 194.47 167.711C190.552 166.661 188.227 162.634 189.276 158.717L197.682 127.348C198.337 124.903 200.151 123.078 202.375 122.307C203.258 121.93 204.23 121.723 205.251 121.723H230.22Z" fill="url(#paint2_linear_957_4733)"/>
<rect x="115.588" y="121.723" width="40.3906" height="24.9688" fill="url(#paint3_linear_957_4733)"/>
<path d="M163.322 109.973H148.635L155.979 121.723L163.322 109.973Z" fill="#6AA632"/>
<path d="M107.51 107.77H147.9L155.979 121.723H115.588L107.51 107.77Z" fill="url(#paint4_linear_957_4733)"/>
<path d="M189.026 107.77L164.057 107.77L155.979 121.723H180.947L189.026 107.77Z" fill="url(#paint5_linear_957_4733)"/>
<rect x="155.979" y="121.723" width="24.9688" height="24.9688" fill="url(#paint6_linear_957_4733)"/>
<path d="M90.4113 154.598C90.2401 150.181 93.685 146.483 98.1035 146.341L198.2 143.124C203.356 142.959 207.347 147.644 206.356 152.7L196.094 205.069C195.344 208.898 191.934 211.609 188.028 211.482L110.289 208.957C100.279 208.632 92.1943 200.6 91.8066 190.596L90.4113 154.598Z" fill="url(#paint7_linear_957_4733)"/>
<path d="M107.516 187.176C107.586 185.149 109.286 183.563 111.313 183.633C113.34 183.704 114.926 185.404 114.855 187.43L114.114 208.765L106.775 208.51L107.516 187.176Z" fill="#6AA632"/>
<path d="M128.46 185.716C128.557 183.69 130.277 182.126 132.303 182.223C134.329 182.32 135.892 184.04 135.796 186.066L134.674 209.579L127.338 209.229L128.46 185.716Z" fill="#6AA632"/>
<path d="M149.832 184.875C149.929 182.849 151.65 181.285 153.675 181.382C155.701 181.479 157.264 183.199 157.168 185.225L155.971 210.313L148.635 209.963L149.832 184.875Z" fill="#6AA632"/>
<path d="M171.219 183.71C171.316 181.685 173.037 180.121 175.062 180.218C177.088 180.314 178.652 182.035 178.555 184.06L177.267 211.047L169.932 210.697L171.219 183.71Z" fill="#6AA632"/>
<g filter="url(#filter0_f_957_4733)">
<path d="M90.637 154.478L90.4711 152.128L206.791 150.785L205.731 154.478H90.637Z" fill="#85BF56"/>
</g>
<rect x="84.3167" y="141.554" width="130.475" height="11.0781" rx="5.53905" fill="url(#paint8_linear_957_4733)"/>
<circle cx="124.768" cy="237.389" r="13.5859" fill="#6AA632"/>
<g filter="url(#filter1_i_957_4733)">
<circle cx="124.768" cy="237.389" r="6.99882" fill="white"/>
</g>
<circle cx="169.563" cy="237.389" r="13.5859" fill="#6AA632"/>
<g filter="url(#filter2_i_957_4733)">
<circle cx="169.563" cy="237.389" r="6.99882" fill="white"/>
</g>
<path d="M35.793 117.432C35.6366 116.517 36.7031 115.901 37.4174 116.494L41.9712 120.274C42.1958 120.461 42.4906 120.54 42.7783 120.49L48.612 119.494C49.5271 119.338 50.1427 120.404 49.5499 121.118L45.77 125.672C45.5836 125.897 45.5046 126.192 45.5537 126.479L46.5503 132.313C46.7066 133.228 45.6402 133.844 44.9259 133.251L40.372 129.471C40.1474 129.285 39.8526 129.206 39.5649 129.255L33.7312 130.251C32.8162 130.408 32.2005 129.341 32.7934 128.627L36.5732 124.073C36.7596 123.848 36.8386 123.554 36.7895 123.266L35.793 117.432Z" fill="url(#paint9_linear_957_4733)"/>
<path d="M183.848 35.8958C184.692 35.508 185.562 36.3787 185.174 37.2222L183.244 41.4206C183.122 41.6857 183.122 41.9909 183.244 42.2561L185.174 46.4545C185.562 47.2979 184.692 48.1687 183.848 47.7808L179.65 45.8503C179.385 45.7284 179.079 45.7284 178.814 45.8503L174.616 47.7808C173.772 48.1687 172.902 47.2979 173.289 46.4545L175.22 42.2561C175.342 41.9909 175.342 41.6857 175.22 41.4206L173.289 37.2222C172.902 36.3787 173.772 35.508 174.616 35.8958L178.814 37.8263C179.079 37.9483 179.385 37.9483 179.65 37.8263L183.848 35.8958Z" fill="url(#paint10_linear_957_4733)"/>
<path d="M245.242 165.013C245.564 164.142 246.796 164.142 247.118 165.013L250.176 173.278C250.277 173.552 250.493 173.767 250.767 173.869L259.032 176.927C259.902 177.249 259.902 178.48 259.032 178.803L250.767 181.861C250.493 181.962 250.277 182.178 250.176 182.452L247.118 190.716C246.796 191.587 245.564 191.587 245.242 190.716L242.184 182.452C242.083 182.178 241.867 181.962 241.593 181.861L233.328 178.803C232.458 178.48 232.458 177.249 233.328 176.927L241.593 173.869C241.867 173.767 242.083 173.552 242.184 173.278L245.242 165.013Z" fill="url(#paint11_linear_957_4733)"/>
<circle cx="50.3642" cy="218.381" r="4.16709" fill="white" stroke="url(#paint12_linear_957_4733)" stroke-width="5"/>
<circle cx="104.421" cy="76.1105" r="2.83367" fill="white" stroke="url(#paint13_linear_957_4733)" stroke-width="5"/>
<circle cx="224.639" cy="244.334" r="6.1163" fill="white" stroke="url(#paint14_linear_957_4733)" stroke-width="5"/>
<path d="M157.037 114.367C166.006 104.158 179.423 87.8363 170.756 74.0316C161.678 59.5735 142.842 74.8944 149.198 87.8363C155.13 99.9157 173.764 103.827 193.424 82.0321C205.134 69.0509 192.206 52.0302 186.91 48.3633" stroke="#6AA632" stroke-width="2" stroke-dasharray="2 2"/>
<path d="M212.21 98.3362C212.501 96.4387 214.475 95.2992 216.264 95.9957L217.703 96.5562C220.049 97.4695 220.295 100.691 218.115 101.95L216.441 102.916C214.261 104.175 211.594 102.351 211.976 99.863L212.21 98.3362Z" fill="url(#paint15_linear_957_4733)"/>
<defs>
<filter id="filter0_f_957_4733" x="88.4711" y="148.785" width="120.32" height="7.69287" filterUnits="userSpaceOnUse" color-interpolation-filters="sRGB">
<feFlood flood-opacity="0" result="BackgroundImageFix"/>
<feBlend mode="normal" in="SourceGraphic" in2="BackgroundImageFix" result="shape"/>
<feGaussianBlur stdDeviation="1" result="effect1_foregroundBlur_957_4733"/>
</filter>
<filter id="filter1_i_957_4733" x="117.769" y="230.39" width="13.9977" height="15.9976" filterUnits="userSpaceOnUse" color-interpolation-filters="sRGB">
<feFlood flood-opacity="0" result="BackgroundImageFix"/>
<feBlend mode="normal" in="SourceGraphic" in2="BackgroundImageFix" result="shape"/>
<feColorMatrix in="SourceAlpha" type="matrix" values="0 0 0 0 0 0 0 0 0 0 0 0 0 0 0 0 0 0 127 0" result="hardAlpha"/>
<feMorphology radius="1" operator="erode" in="SourceAlpha" result="effect1_innerShadow_957_4733"/>
<feOffset dy="2"/>
<feGaussianBlur stdDeviation="5"/>
<feComposite in2="hardAlpha" operator="arithmetic" k2="-1" k3="1"/>
<feColorMatrix type="matrix" values="0 0 0 0 0.8125 0 0 0 0 0.8875 0 0 0 0 1 0 0 0 1 0"/>
<feBlend mode="normal" in2="shape" result="effect1_innerShadow_957_4733"/>
</filter>
<filter id="filter2_i_957_4733" x="162.565" y="230.39" width="13.9977" height="15.9976" filterUnits="userSpaceOnUse" color-interpolation-filters="sRGB">
<feFlood flood-opacity="0" result="BackgroundImageFix"/>
<feBlend mode="normal" in="SourceGraphic" in2="BackgroundImageFix" result="shape"/>
<feColorMatrix in="SourceAlpha" type="matrix" values="0 0 0 0 0 0 0 0 0 0 0 0 0 0 0 0 0 0 127 0" result="hardAlpha"/>
<feMorphology radius="1" operator="erode" in="SourceAlpha" result="effect1_innerShadow_957_4733"/>
<feOffset dy="2"/>
<feGaussianBlur stdDeviation="5"/>
<feComposite in2="hardAlpha" operator="arithmetic" k2="-1" k3="1"/>
<feColorMatrix type="matrix" values="0 0 0 0 0.8125 0 0 0 0 0.8875 0 0 0 0 1 0 0 0 1 0"/>
<feBlend mode="normal" in2="shape" result="effect1_innerShadow_957_4733"/>
</filter>
<linearGradient id="paint0_linear_957_4733" x1="159.576" y1="114.261" x2="158.08" y2="260.869" gradientUnits="userSpaceOnUse">
<stop stop-color="#E9FFD8"/>
<stop offset="1" stop-color="white" stop-opacity="0"/>
</linearGradient>
<linearGradient id="paint1_linear_957_4733" x1="151.939" y1="194.427" x2="151.939" y2="234.817" gradientUnits="userSpaceOnUse">
<stop stop-color="#6AA632"/>
<stop offset="1" stop-color="#E1FFC8"/>
</linearGradient>
<linearGradient id="paint2_linear_957_4733" x1="213.294" y1="121.723" x2="211.423" y2="143.387" gradientUnits="userSpaceOnUse">
<stop stop-color="#B9DE60"/>
<stop offset="1" stop-color="#EEFFE0"/>
</linearGradient>
<linearGradient id="paint3_linear_957_4733" x1="156.713" y1="131.637" x2="115.588" y2="140.449" gradientUnits="userSpaceOnUse">
<stop stop-color="#C3FA96"/>
<stop offset="1" stop-color="#E9FFD7"/>
</linearGradient>
<linearGradient id="paint4_linear_957_4733" x1="131.744" y1="121.723" x2="131.744" y2="107.77" gradientUnits="userSpaceOnUse">
<stop stop-color="#85BF56"/>
<stop offset="1" stop-color="#DBFFBD"/>
</linearGradient>
<linearGradient id="paint5_linear_957_4733" x1="172.869" y1="121.723" x2="172.869" y2="107.77" gradientUnits="userSpaceOnUse">
<stop stop-color="#85BF56"/>
<stop offset="1" stop-color="#E1FFC8"/>
</linearGradient>
<linearGradient id="paint6_linear_957_4733" x1="168.463" y1="121.723" x2="168.463" y2="142.285" gradientUnits="userSpaceOnUse">
<stop stop-color="#BFFF8B"/>
<stop offset="1" stop-color="#D5FFB3"/>
</linearGradient>
<linearGradient id="paint7_linear_957_4733" x1="150.838" y1="208.379" x2="151.218" y2="143.022" gradientUnits="userSpaceOnUse">
<stop stop-color="#85BF56"/>
<stop offset="1" stop-color="#ECFFDD"/>
</linearGradient>
<linearGradient id="paint8_linear_957_4733" x1="149.554" y1="141.554" x2="149.554" y2="152.632" gradientUnits="userSpaceOnUse">
<stop stop-color="#E2FFCB"/>
<stop offset="1" stop-color="#85BF56"/>
</linearGradient>
<linearGradient id="paint9_linear_957_4733" x1="34.5524" y1="124.075" x2="47.0053" y2="134.977" gradientUnits="userSpaceOnUse">
<stop stop-color="#85BF56"/>
<stop offset="1" stop-color="white" stop-opacity="0"/>
</linearGradient>
<linearGradient id="paint10_linear_957_4733" x1="178.053" y1="35.3561" x2="179.527" y2="48.6152" gradientUnits="userSpaceOnUse">
<stop stop-color="#85BF56"/>
<stop offset="1" stop-color="#9DFF4D"/>
</linearGradient>
<linearGradient id="paint11_linear_957_4733" x1="246.18" y1="162.479" x2="246.18" y2="193.251" gradientUnits="userSpaceOnUse">
<stop stop-color="#85BF56"/>
<stop offset="1" stop-color="white" stop-opacity="0"/>
</linearGradient>
<linearGradient id="paint12_linear_957_4733" x1="50.3642" y1="211.714" x2="50.3642" y2="225.049" gradientUnits="userSpaceOnUse">
<stop stop-color="#B9DE60"/>
<stop offset="1" stop-color="white" stop-opacity="0"/>
</linearGradient>
<linearGradient id="paint13_linear_957_4733" x1="104.421" y1="70.7769" x2="104.421" y2="81.4442" gradientUnits="userSpaceOnUse">
<stop stop-color="#B9DE60"/>
<stop offset="1" stop-color="white" stop-opacity="0"/>
</linearGradient>
<linearGradient id="paint14_linear_957_4733" x1="224.639" y1="235.717" x2="224.639" y2="252.95" gradientUnits="userSpaceOnUse">
<stop stop-color="#B9DE60"/>
<stop offset="1" stop-color="white" stop-opacity="0"/>
</linearGradient>
<linearGradient id="paint15_linear_957_4733" x1="212.778" y1="94.6382" x2="218.778" y2="105.031" gradientUnits="userSpaceOnUse">
<stop stop-color="#85BF56"/>
<stop offset="1" stop-color="white" stop-opacity="0"/>
</linearGradient>
</defs>
</svg>
