<svg width="150" height="59" viewBox="0 0 150 59" fill="none" xmlns="http://www.w3.org/2000/svg">
<rect width="150" height="58.4898" rx="4" fill="#333333"/>
<g clip-path="url(#clip0_847_277)">
<path d="M25.0652 28.7299L14.7188 18.3547L27.8828 25.9123L25.0652 28.7299ZM12.0176 17.7451C11.408 18.0643 11 18.6451 11 19.4011V40.0891C11 40.8451 11.408 41.4259 12.0176 41.7451L24.05 29.7427L12.0176 17.7451ZM31.9532 28.3219L29.192 26.7235L26.1116 29.7475L29.192 32.7715L32.0096 31.1731C32.8532 30.5023 32.8532 28.9927 31.9532 28.3219ZM14.7188 41.1403L27.8828 33.5827L25.0652 30.7651L14.7188 41.1403Z" fill="white"/>
</g>
<path d="M47.337 17.117C47.337 17.9017 47.1793 18.5873 46.864 19.174C46.5487 19.7533 46.083 20.2043 45.467 20.527C44.8583 20.8423 44.125 21 43.267 21H40.803V13.245H43.267C44.125 13.245 44.8583 13.4027 45.467 13.718C46.083 14.026 46.5487 14.4733 46.864 15.06C47.1793 15.6393 47.337 16.325 47.337 17.117ZM43.19 20.098C44.202 20.098 44.9757 19.8377 45.511 19.317C46.0463 18.7963 46.314 18.063 46.314 17.117C46.314 16.171 46.0463 15.4377 45.511 14.917C44.983 14.389 44.2093 14.125 43.19 14.125H41.804V20.098H43.19ZM51.4268 14.884C52.0061 14.884 52.5231 15.0087 52.9778 15.258C53.4398 15.5073 53.7991 15.8667 54.0558 16.336C54.3198 16.8053 54.4518 17.3553 54.4518 17.986C54.4518 18.6167 54.3198 19.1667 54.0558 19.636C53.7991 20.098 53.4398 20.4537 52.9778 20.703C52.5231 20.9523 52.0061 21.077 51.4268 21.077C50.8474 21.077 50.3268 20.9523 49.8648 20.703C49.4101 20.4537 49.0508 20.098 48.7868 19.636C48.5228 19.1667 48.3908 18.6167 48.3908 17.986C48.3908 17.3553 48.5228 16.8053 48.7868 16.336C49.0508 15.8667 49.4101 15.5073 49.8648 15.258C50.3268 15.0087 50.8474 14.884 51.4268 14.884ZM51.4268 15.764C51.0674 15.764 50.7338 15.8447 50.4258 16.006C50.1251 16.1673 49.8794 16.4167 49.6888 16.754C49.5054 17.084 49.4138 17.4947 49.4138 17.986C49.4138 18.47 49.5054 18.8807 49.6888 19.218C49.8794 19.548 50.1251 19.7937 50.4258 19.955C50.7338 20.1163 51.0674 20.197 51.4268 20.197C51.7861 20.197 52.1161 20.1163 52.4168 19.955C52.7248 19.7937 52.9704 19.548 53.1538 19.218C53.3444 18.8807 53.4398 18.47 53.4398 17.986C53.4398 17.4947 53.3444 17.084 53.1538 16.754C52.9704 16.4167 52.7248 16.1673 52.4168 16.006C52.1161 15.8447 51.7861 15.764 51.4268 15.764ZM64.0501 14.961L62.3121 21H61.2341L59.5731 16.083L57.9011 21H56.8121L55.0961 14.961H56.1081L57.3951 20.043L59.0671 14.961H60.1121L61.7951 20.032L63.0931 14.961H64.0501ZM68.1627 14.862C68.8667 14.862 69.435 15.0893 69.8677 15.544C70.3003 15.9913 70.5167 16.6403 70.5167 17.491V21H69.5157V17.579C69.5157 16.9777 69.3617 16.5157 69.0537 16.193C68.7457 15.8703 68.3277 15.709 67.7997 15.709C67.2497 15.709 66.8097 15.8887 66.4797 16.248C66.1497 16.6 65.9847 17.117 65.9847 17.799V21H64.9837V14.961H65.9847V16.391C66.1387 15.8997 66.41 15.522 66.7987 15.258C67.1947 14.994 67.6493 14.862 68.1627 14.862ZM73.053 12.86V21H72.052V12.86H73.053ZM77.4014 14.884C77.9807 14.884 78.4977 15.0087 78.9524 15.258C79.4144 15.5073 79.7737 15.8667 80.0304 16.336C80.2944 16.8053 80.4264 17.3553 80.4264 17.986C80.4264 18.6167 80.2944 19.1667 80.0304 19.636C79.7737 20.098 79.4144 20.4537 78.9524 20.703C78.4977 20.9523 77.9807 21.077 77.4014 21.077C76.822 21.077 76.3014 20.9523 75.8394 20.703C75.3847 20.4537 75.0254 20.098 74.7614 19.636C74.4974 19.1667 74.3654 18.6167 74.3654 17.986C74.3654 17.3553 74.4974 16.8053 74.7614 16.336C75.0254 15.8667 75.3847 15.5073 75.8394 15.258C76.3014 15.0087 76.822 14.884 77.4014 14.884ZM77.4014 15.764C77.042 15.764 76.7084 15.8447 76.4004 16.006C76.0997 16.1673 75.854 16.4167 75.6634 16.754C75.48 17.084 75.3884 17.4947 75.3884 17.986C75.3884 18.47 75.48 18.8807 75.6634 19.218C75.854 19.548 76.0997 19.7937 76.4004 19.955C76.7084 20.1163 77.042 20.197 77.4014 20.197C77.7607 20.197 78.0907 20.1163 78.3914 19.955C78.6994 19.7937 78.945 19.548 79.1284 19.218C79.319 18.8807 79.4144 18.47 79.4144 17.986C79.4144 17.4947 79.319 17.084 79.1284 16.754C78.945 16.4167 78.6994 16.1673 78.3914 16.006C78.0907 15.8447 77.7607 15.764 77.4014 15.764ZM84.2057 14.884C84.7924 14.884 85.2874 15.0307 85.6907 15.324C86.1014 15.6173 86.3874 16.0097 86.5487 16.501V14.961H87.5497V21H86.5487V19.46C86.3874 19.9513 86.1014 20.3437 85.6907 20.637C85.2874 20.9303 84.7924 21.077 84.2057 21.077C83.6704 21.077 83.1937 20.9523 82.7757 20.703C82.3577 20.4537 82.0277 20.098 81.7857 19.636C81.5511 19.1667 81.4337 18.6167 81.4337 17.986C81.4337 17.3553 81.5511 16.8053 81.7857 16.336C82.0277 15.8667 82.3577 15.5073 82.7757 15.258C83.1937 15.0087 83.6704 14.884 84.2057 14.884ZM84.4917 15.775C83.8757 15.775 83.3807 15.973 83.0067 16.369C82.6401 16.7577 82.4567 17.2967 82.4567 17.986C82.4567 18.6753 82.6401 19.218 83.0067 19.614C83.3807 20.0027 83.8757 20.197 84.4917 20.197C84.8877 20.197 85.2397 20.1053 85.5477 19.922C85.8631 19.7387 86.1087 19.482 86.2847 19.152C86.4607 18.8147 86.5487 18.426 86.5487 17.986C86.5487 17.546 86.4607 17.1573 86.2847 16.82C86.1087 16.4827 85.8631 16.226 85.5477 16.05C85.2397 15.8667 84.8877 15.775 84.4917 15.775ZM91.6178 14.884C92.2045 14.884 92.6995 15.0307 93.1028 15.324C93.5135 15.6173 93.7995 16.0097 93.9608 16.501V12.86H94.9618V21H93.9608V19.46C93.7995 19.9513 93.5135 20.3437 93.1028 20.637C92.6995 20.9303 92.2045 21.077 91.6178 21.077C91.0825 21.077 90.6058 20.9523 90.1878 20.703C89.7698 20.4537 89.4398 20.098 89.1978 19.636C88.9632 19.1667 88.8458 18.6167 88.8458 17.986C88.8458 17.3553 88.9632 16.8053 89.1978 16.336C89.4398 15.8667 89.7698 15.5073 90.1878 15.258C90.6058 15.0087 91.0825 14.884 91.6178 14.884ZM91.9038 15.775C91.2878 15.775 90.7928 15.973 90.4188 16.369C90.0522 16.7577 89.8688 17.2967 89.8688 17.986C89.8688 18.6753 90.0522 19.218 90.4188 19.614C90.7928 20.0027 91.2878 20.197 91.9038 20.197C92.2998 20.197 92.6518 20.1053 92.9598 19.922C93.2752 19.7387 93.5208 19.482 93.6968 19.152C93.8728 18.8147 93.9608 18.426 93.9608 17.986C93.9608 17.546 93.8728 17.1573 93.6968 16.82C93.5208 16.4827 93.2752 16.226 92.9598 16.05C92.6518 15.8667 92.2998 15.775 91.9038 15.775ZM102.012 14.884C102.591 14.884 103.108 15.0087 103.563 15.258C104.025 15.5073 104.384 15.8667 104.641 16.336C104.905 16.8053 105.037 17.3553 105.037 17.986C105.037 18.6167 104.905 19.1667 104.641 19.636C104.384 20.098 104.025 20.4537 103.563 20.703C103.108 20.9523 102.591 21.077 102.012 21.077C101.432 21.077 100.912 20.9523 100.45 20.703C99.9951 20.4537 99.6357 20.098 99.3717 19.636C99.1077 19.1667 98.9757 18.6167 98.9757 17.986C98.9757 17.3553 99.1077 16.8053 99.3717 16.336C99.6357 15.8667 99.9951 15.5073 100.45 15.258C100.912 15.0087 101.432 14.884 102.012 14.884ZM102.012 15.764C101.652 15.764 101.319 15.8447 101.011 16.006C100.71 16.1673 100.464 16.4167 100.274 16.754C100.09 17.084 99.9987 17.4947 99.9987 17.986C99.9987 18.47 100.09 18.8807 100.274 19.218C100.464 19.548 100.71 19.7937 101.011 19.955C101.319 20.1163 101.652 20.197 102.012 20.197C102.371 20.197 102.701 20.1163 103.002 19.955C103.31 19.7937 103.555 19.548 103.739 19.218C103.929 18.8807 104.025 18.47 104.025 17.986C104.025 17.4947 103.929 17.084 103.739 16.754C103.555 16.4167 103.31 16.1673 103.002 16.006C102.701 15.8447 102.371 15.764 102.012 15.764ZM109.52 14.862C110.224 14.862 110.792 15.0893 111.225 15.544C111.658 15.9913 111.874 16.6403 111.874 17.491V21H110.873V17.579C110.873 16.9777 110.719 16.5157 110.411 16.193C110.103 15.8703 109.685 15.709 109.157 15.709C108.607 15.709 108.167 15.8887 107.837 16.248C107.507 16.6 107.342 17.117 107.342 17.799V21H106.341V14.961H107.342V16.391C107.496 15.8997 107.767 15.522 108.156 15.258C108.552 14.994 109.007 14.862 109.52 14.862ZM119.009 20.12V21H118.261C117.645 21 117.183 20.8533 116.875 20.56C116.575 20.2667 116.424 19.7753 116.424 19.086V15.83H115.522V14.961H116.424V13.454H117.436V14.961H118.998V15.83H117.436V19.108C117.436 19.4967 117.506 19.7643 117.645 19.911C117.792 20.0503 118.041 20.12 118.393 20.12H119.009ZM123.41 14.862C124.114 14.862 124.682 15.0893 125.115 15.544C125.547 15.9913 125.764 16.6403 125.764 17.491V21H124.763V17.579C124.763 16.9777 124.609 16.5157 124.301 16.193C123.993 15.8703 123.575 15.709 123.047 15.709C122.497 15.709 122.057 15.8887 121.727 16.248C121.397 16.6 121.232 17.117 121.232 17.799V21H120.231V12.86H121.232V16.391C121.386 15.8997 121.657 15.522 122.046 15.258C122.442 14.994 122.896 14.862 123.41 14.862ZM132.854 17.645C132.854 17.8577 132.839 18.041 132.81 18.195H127.981C128.003 18.8843 128.197 19.4013 128.564 19.746C128.938 20.0907 129.393 20.263 129.928 20.263C130.412 20.263 130.815 20.142 131.138 19.9C131.468 19.6507 131.67 19.3207 131.743 18.91H132.81C132.737 19.328 132.572 19.702 132.315 20.032C132.066 20.362 131.739 20.6187 131.336 20.802C130.933 20.9853 130.478 21.077 129.972 21.077C129.393 21.077 128.879 20.9523 128.432 20.703C127.985 20.4537 127.633 20.098 127.376 19.636C127.127 19.1667 127.002 18.6167 127.002 17.986C127.002 17.3553 127.127 16.8053 127.376 16.336C127.633 15.8667 127.985 15.5073 128.432 15.258C128.879 15.0087 129.393 14.884 129.972 14.884C130.559 14.884 131.068 15.0087 131.501 15.258C131.941 15.5073 132.275 15.841 132.502 16.259C132.737 16.677 132.854 17.139 132.854 17.645ZM131.842 17.711C131.864 17.2637 131.791 16.8897 131.622 16.589C131.453 16.2883 131.222 16.0647 130.929 15.918C130.636 15.7713 130.317 15.698 129.972 15.698C129.422 15.698 128.96 15.8703 128.586 16.215C128.212 16.5523 128.01 17.051 127.981 17.711H131.842Z" fill="#B3B3B3"/>
<path d="M46.272 30.608C47.616 30.608 48.736 30.9387 49.632 31.6C50.528 32.2613 51.12 33.1627 51.408 34.304H49.488C49.2427 33.696 48.8373 33.2107 48.272 32.848C47.7173 32.4853 47.056 32.304 46.288 32.304C45.584 32.304 44.9493 32.4693 44.384 32.8C43.8293 33.1307 43.392 33.6 43.072 34.208C42.7627 34.816 42.608 35.5307 42.608 36.352C42.608 37.216 42.768 37.9573 43.088 38.576C43.408 39.1947 43.856 39.6693 44.432 40C45.0187 40.32 45.696 40.48 46.464 40.48C47.4027 40.48 48.208 40.192 48.88 39.616C49.552 39.0293 49.9573 38.2293 50.096 37.216H45.952V35.872H51.632V37.616C51.504 38.448 51.2053 39.2053 50.736 39.888C50.2773 40.56 49.664 41.0987 48.896 41.504C48.1387 41.9093 47.2693 42.112 46.288 42.112C45.1893 42.112 44.2187 41.8667 43.376 41.376C42.5333 40.8853 41.8827 40.208 41.424 39.344C40.9653 38.4693 40.736 37.472 40.736 36.352C40.736 35.232 40.9653 34.24 41.424 33.376C41.8827 32.5013 42.528 31.824 43.36 31.344C44.2027 30.8533 45.1733 30.608 46.272 30.608ZM57.511 33.072C58.3643 33.072 59.1323 33.2533 59.815 33.616C60.4977 33.9787 61.031 34.5013 61.415 35.184C61.799 35.8667 61.991 36.6667 61.991 37.584C61.991 38.512 61.799 39.3173 61.415 40C61.031 40.6827 60.4977 41.2053 59.815 41.568C59.1323 41.9307 58.3643 42.112 57.511 42.112C56.6577 42.112 55.8897 41.9307 55.207 41.568C54.535 41.2053 54.0017 40.6827 53.607 40C53.223 39.3067 53.031 38.5013 53.031 37.584C53.031 36.6667 53.223 35.8667 53.607 35.184C54.0017 34.5013 54.535 33.9787 55.207 33.616C55.8897 33.2533 56.6577 33.072 57.511 33.072ZM57.511 34.656C57.0417 34.656 56.6097 34.7627 56.215 34.976C55.8203 35.1893 55.5003 35.52 55.255 35.968C55.0203 36.4053 54.903 36.944 54.903 37.584C54.903 38.2347 55.0203 38.7787 55.255 39.216C55.5003 39.6533 55.8203 39.9787 56.215 40.192C56.6097 40.4053 57.0417 40.512 57.511 40.512C57.9803 40.512 58.4123 40.4053 58.807 40.192C59.2017 39.9787 59.5163 39.6533 59.751 39.216C59.9963 38.7787 60.119 38.2347 60.119 37.584C60.119 36.944 59.9963 36.4053 59.751 35.968C59.5163 35.52 59.2017 35.1893 58.807 34.976C58.4123 34.7627 57.9803 34.656 57.511 34.656ZM67.7766 33.072C68.63 33.072 69.398 33.2533 70.0806 33.616C70.7633 33.9787 71.2966 34.5013 71.6806 35.184C72.0646 35.8667 72.2566 36.6667 72.2566 37.584C72.2566 38.512 72.0646 39.3173 71.6806 40C71.2966 40.6827 70.7633 41.2053 70.0806 41.568C69.398 41.9307 68.63 42.112 67.7766 42.112C66.9233 42.112 66.1553 41.9307 65.4726 41.568C64.8006 41.2053 64.2673 40.6827 63.8726 40C63.4886 39.3067 63.2966 38.5013 63.2966 37.584C63.2966 36.6667 63.4886 35.8667 63.8726 35.184C64.2673 34.5013 64.8006 33.9787 65.4726 33.616C66.1553 33.2533 66.9233 33.072 67.7766 33.072ZM67.7766 34.656C67.3073 34.656 66.8753 34.7627 66.4806 34.976C66.086 35.1893 65.766 35.52 65.5206 35.968C65.286 36.4053 65.1686 36.944 65.1686 37.584C65.1686 38.2347 65.286 38.7787 65.5206 39.216C65.766 39.6533 66.086 39.9787 66.4806 40.192C66.8753 40.4053 67.3073 40.512 67.7766 40.512C68.246 40.512 68.678 40.4053 69.0726 40.192C69.4673 39.9787 69.782 39.6533 70.0166 39.216C70.262 38.7787 70.3846 38.2347 70.3846 37.584C70.3846 36.944 70.262 36.4053 70.0166 35.968C69.782 35.52 69.4673 35.1893 69.0726 34.976C68.678 34.7627 68.246 34.656 67.7766 34.656ZM77.5463 33.072C78.3463 33.072 79.0289 33.2693 79.5943 33.664C80.1596 34.0587 80.5596 34.5813 80.7943 35.232V33.184H82.6183V42.096C82.6183 42.9173 82.4476 43.6427 82.1063 44.272C81.7756 44.912 81.2956 45.4133 80.6663 45.776C80.0369 46.1387 79.2903 46.32 78.4263 46.32C77.1889 46.32 76.1863 46.0267 75.4183 45.44C74.6609 44.8533 74.1863 44.0587 73.9943 43.056H75.8023C75.9516 43.5787 76.2396 43.984 76.6663 44.272C77.0929 44.5707 77.6369 44.72 78.2983 44.72C79.0236 44.72 79.6209 44.496 80.0903 44.048C80.5596 43.6 80.7943 42.9493 80.7943 42.096V39.952C80.5596 40.6027 80.1596 41.1253 79.5943 41.52C79.0289 41.9147 78.3463 42.112 77.5463 42.112C76.7783 42.112 76.0903 41.9307 75.4823 41.568C74.8849 41.2053 74.4156 40.6827 74.0743 40C73.7329 39.3173 73.5623 38.512 73.5623 37.584C73.5623 36.6667 73.7329 35.8667 74.0743 35.184C74.4156 34.5013 74.8849 33.9787 75.4823 33.616C76.0903 33.2533 76.7783 33.072 77.5463 33.072ZM78.1063 34.672C77.2956 34.672 76.6449 34.9333 76.1543 35.456C75.6743 35.968 75.4343 36.6773 75.4343 37.584C75.4343 38.4907 75.6743 39.2053 76.1543 39.728C76.6449 40.24 77.2956 40.496 78.1063 40.496C78.6183 40.496 79.0769 40.3787 79.4823 40.144C79.8876 39.8987 80.2076 39.5573 80.4423 39.12C80.6769 38.6827 80.7943 38.1707 80.7943 37.584C80.7943 37.008 80.6769 36.5013 80.4423 36.064C80.2076 35.616 79.8876 35.2747 79.4823 35.04C79.0769 34.7947 78.6183 34.672 78.1063 34.672ZM86.6311 30.16V42H84.8071V30.16H86.6311ZM97.0304 37.168C97.0304 37.4667 97.009 37.728 96.9664 37.952H90.1824C90.2144 38.8587 90.465 39.5307 90.9344 39.968C91.4037 40.4053 91.985 40.624 92.6784 40.624C93.2864 40.624 93.7984 40.4693 94.2144 40.16C94.641 39.8507 94.9024 39.44 94.9984 38.928H96.9504C96.833 39.5467 96.5877 40.096 96.2144 40.576C95.841 41.056 95.3557 41.4347 94.7584 41.712C94.161 41.9787 93.4944 42.112 92.7584 42.112C91.905 42.112 91.1477 41.9307 90.4864 41.568C89.8357 41.2053 89.3237 40.6827 88.9504 40C88.577 39.3173 88.3904 38.512 88.3904 37.584C88.3904 36.6667 88.577 35.8667 88.9504 35.184C89.3237 34.5013 89.8357 33.9787 90.4864 33.616C91.1477 33.2533 91.905 33.072 92.7584 33.072C93.6224 33.072 94.3744 33.2533 95.0144 33.616C95.665 33.968 96.161 34.4587 96.5024 35.088C96.8544 35.7067 97.0304 36.4 97.0304 37.168ZM95.1904 37.12C95.2117 36.544 95.1104 36.064 94.8864 35.68C94.673 35.2853 94.3744 34.9973 93.9904 34.816C93.617 34.624 93.2064 34.528 92.7584 34.528C92.0437 34.528 91.4464 34.7467 90.9664 35.184C90.4864 35.6213 90.225 36.2667 90.1824 37.12H95.1904ZM107.598 33.072C108.366 33.072 109.048 33.2533 109.646 33.616C110.254 33.9787 110.728 34.5013 111.07 35.184C111.411 35.8667 111.582 36.6667 111.582 37.584C111.582 38.512 111.411 39.3173 111.07 40C110.728 40.6827 110.254 41.2053 109.646 41.568C109.048 41.9307 108.366 42.112 107.598 42.112C106.798 42.112 106.115 41.9147 105.549 41.52C104.984 41.1253 104.59 40.6027 104.366 39.952V46.192H102.542V33.184H104.366V35.232C104.59 34.5813 104.984 34.0587 105.549 33.664C106.115 33.2693 106.798 33.072 107.598 33.072ZM107.038 34.672C106.526 34.672 106.067 34.7947 105.661 35.04C105.256 35.2747 104.936 35.616 104.702 36.064C104.467 36.5013 104.35 37.008 104.35 37.584C104.35 38.1707 104.467 38.6827 104.702 39.12C104.936 39.5573 105.256 39.8987 105.661 40.144C106.067 40.3787 106.526 40.496 107.038 40.496C107.848 40.496 108.499 40.24 108.99 39.728C109.48 39.2053 109.726 38.4907 109.726 37.584C109.726 36.688 109.48 35.9787 108.99 35.456C108.499 34.9333 107.848 34.672 107.038 34.672ZM115.162 30.16V42H113.338V30.16H115.162ZM120.906 33.072C121.706 33.072 122.388 33.2693 122.954 33.664C123.519 34.0587 123.919 34.5813 124.154 35.232V33.184H125.978V42H124.154V39.952C123.919 40.6027 123.519 41.1253 122.954 41.52C122.388 41.9147 121.706 42.112 120.906 42.112C120.138 42.112 119.45 41.9307 118.842 41.568C118.244 41.2053 117.775 40.6827 117.434 40C117.092 39.3173 116.922 38.512 116.922 37.584C116.922 36.6667 117.092 35.8667 117.434 35.184C117.775 34.5013 118.244 33.9787 118.842 33.616C119.45 33.2533 120.138 33.072 120.906 33.072ZM121.466 34.672C120.655 34.672 120.004 34.9333 119.514 35.456C119.034 35.968 118.794 36.6773 118.794 37.584C118.794 38.4907 119.034 39.2053 119.514 39.728C120.004 40.24 120.655 40.496 121.466 40.496C121.978 40.496 122.436 40.3787 122.842 40.144C123.247 39.8987 123.567 39.5573 123.802 39.12C124.036 38.6827 124.154 38.1707 124.154 37.584C124.154 37.008 124.036 36.5013 123.802 36.064C123.567 35.616 123.247 35.2747 122.842 35.04C122.436 34.7947 121.978 34.672 121.466 34.672ZM129.207 33.184L131.847 39.664L134.295 33.184H136.327L130.999 46.192H128.967L130.871 41.792L127.159 33.184H129.207Z" fill="white"/>
<defs>
<clipPath id="clip0_847_277">
<rect width="24" height="24" fill="white" transform="translate(10 17.2451)"/>
</clipPath>
</defs>
</svg>
