<svg width="130" height="40" viewBox="0 0 130 40" fill="none" xmlns="http://www.w3.org/2000/svg">
<g clip-path="url(#clip0_2085_16630)">
<path d="M15.0652 19.4848L4.7188 9.1096L17.8828 16.6672L15.0652 19.4848ZM2.0176 8.5C1.408 8.8192 1 9.4 1 10.156V30.844C1 31.6 1.408 32.1808 2.0176 32.5L14.05 20.4976L2.0176 8.5ZM21.9532 19.0768L19.192 17.4784L16.1116 20.5024L19.192 23.5264L22.0096 21.928C22.8532 21.2572 22.8532 19.7476 21.9532 19.0768ZM4.7188 31.8952L17.8828 24.3376L15.0652 21.52L4.7188 31.8952Z" fill="white"/>
</g>
<path d="M37.337 7.8721C37.337 8.65677 37.1793 9.34244 36.864 9.9291C36.5487 10.5084 36.083 10.9594 35.467 11.2821C34.8583 11.5974 34.125 11.7551 33.267 11.7551H30.803V4.0001H33.267C34.125 4.0001 34.8583 4.15777 35.467 4.4731C36.083 4.7811 36.5487 5.22844 36.864 5.8151C37.1793 6.39444 37.337 7.0801 37.337 7.8721ZM33.19 10.8531C34.202 10.8531 34.9757 10.5928 35.511 10.0721C36.0463 9.55144 36.314 8.8181 36.314 7.8721C36.314 6.9261 36.0463 6.19277 35.511 5.6721C34.983 5.1441 34.2093 4.8801 33.19 4.8801H31.804V10.8531H33.19ZM41.4268 5.6391C42.0061 5.6391 42.5231 5.76377 42.9778 6.0131C43.4398 6.26244 43.7991 6.62177 44.0558 7.0911C44.3198 7.56044 44.4518 8.11044 44.4518 8.7411C44.4518 9.37177 44.3198 9.92177 44.0558 10.3911C43.7991 10.8531 43.4398 11.2088 42.9778 11.4581C42.5231 11.7074 42.0061 11.8321 41.4268 11.8321C40.8474 11.8321 40.3268 11.7074 39.8648 11.4581C39.4101 11.2088 39.0508 10.8531 38.7868 10.3911C38.5228 9.92177 38.3908 9.37177 38.3908 8.7411C38.3908 8.11044 38.5228 7.56044 38.7868 7.0911C39.0508 6.62177 39.4101 6.26244 39.8648 6.0131C40.3268 5.76377 40.8474 5.6391 41.4268 5.6391ZM41.4268 6.5191C41.0674 6.5191 40.7338 6.59977 40.4258 6.7611C40.1251 6.92244 39.8794 7.17177 39.6888 7.5091C39.5054 7.8391 39.4138 8.24977 39.4138 8.7411C39.4138 9.2251 39.5054 9.63577 39.6888 9.9731C39.8794 10.3031 40.1251 10.5488 40.4258 10.7101C40.7338 10.8714 41.0674 10.9521 41.4268 10.9521C41.7861 10.9521 42.1161 10.8714 42.4168 10.7101C42.7248 10.5488 42.9704 10.3031 43.1538 9.9731C43.3444 9.63577 43.4398 9.2251 43.4398 8.7411C43.4398 8.24977 43.3444 7.8391 43.1538 7.5091C42.9704 7.17177 42.7248 6.92244 42.4168 6.7611C42.1161 6.59977 41.7861 6.5191 41.4268 6.5191ZM54.0501 5.7161L52.3121 11.7551H51.2341L49.5731 6.8381L47.9011 11.7551H46.8121L45.0961 5.7161H46.1081L47.3951 10.7981L49.0671 5.7161H50.1121L51.7951 10.7871L53.0931 5.7161H54.0501ZM58.1627 5.6171C58.8667 5.6171 59.435 5.84444 59.8677 6.2991C60.3003 6.74644 60.5167 7.39544 60.5167 8.2461V11.7551H59.5157V8.3341C59.5157 7.73277 59.3617 7.27077 59.0537 6.9481C58.7457 6.62544 58.3277 6.4641 57.7997 6.4641C57.2497 6.4641 56.8097 6.64377 56.4797 7.0031C56.1497 7.3551 55.9847 7.8721 55.9847 8.5541V11.7551H54.9837V5.7161H55.9847V7.1461C56.1387 6.65477 56.41 6.2771 56.7987 6.0131C57.1947 5.7491 57.6493 5.6171 58.1627 5.6171ZM63.053 3.6151V11.7551H62.052V3.6151H63.053ZM67.4014 5.6391C67.9807 5.6391 68.4977 5.76377 68.9524 6.0131C69.4144 6.26244 69.7737 6.62177 70.0304 7.0911C70.2944 7.56044 70.4264 8.11044 70.4264 8.7411C70.4264 9.37177 70.2944 9.92177 70.0304 10.3911C69.7737 10.8531 69.4144 11.2088 68.9524 11.4581C68.4977 11.7074 67.9807 11.8321 67.4014 11.8321C66.822 11.8321 66.3014 11.7074 65.8394 11.4581C65.3847 11.2088 65.0254 10.8531 64.7614 10.3911C64.4974 9.92177 64.3654 9.37177 64.3654 8.7411C64.3654 8.11044 64.4974 7.56044 64.7614 7.0911C65.0254 6.62177 65.3847 6.26244 65.8394 6.0131C66.3014 5.76377 66.822 5.6391 67.4014 5.6391ZM67.4014 6.5191C67.042 6.5191 66.7084 6.59977 66.4004 6.7611C66.0997 6.92244 65.854 7.17177 65.6634 7.5091C65.48 7.8391 65.3884 8.24977 65.3884 8.7411C65.3884 9.2251 65.48 9.63577 65.6634 9.9731C65.854 10.3031 66.0997 10.5488 66.4004 10.7101C66.7084 10.8714 67.042 10.9521 67.4014 10.9521C67.7607 10.9521 68.0907 10.8714 68.3914 10.7101C68.6994 10.5488 68.945 10.3031 69.1284 9.9731C69.319 9.63577 69.4144 9.2251 69.4144 8.7411C69.4144 8.24977 69.319 7.8391 69.1284 7.5091C68.945 7.17177 68.6994 6.92244 68.3914 6.7611C68.0907 6.59977 67.7607 6.5191 67.4014 6.5191ZM74.2057 5.6391C74.7924 5.6391 75.2874 5.78577 75.6907 6.0791C76.1014 6.37244 76.3874 6.76477 76.5487 7.2561V5.7161H77.5497V11.7551H76.5487V10.2151C76.3874 10.7064 76.1014 11.0988 75.6907 11.3921C75.2874 11.6854 74.7924 11.8321 74.2057 11.8321C73.6704 11.8321 73.1937 11.7074 72.7757 11.4581C72.3577 11.2088 72.0277 10.8531 71.7857 10.3911C71.5511 9.92177 71.4337 9.37177 71.4337 8.7411C71.4337 8.11044 71.5511 7.56044 71.7857 7.0911C72.0277 6.62177 72.3577 6.26244 72.7757 6.0131C73.1937 5.76377 73.6704 5.6391 74.2057 5.6391ZM74.4917 6.5301C73.8757 6.5301 73.3807 6.7281 73.0067 7.1241C72.6401 7.51277 72.4567 8.05177 72.4567 8.7411C72.4567 9.43044 72.6401 9.9731 73.0067 10.3691C73.3807 10.7578 73.8757 10.9521 74.4917 10.9521C74.8877 10.9521 75.2397 10.8604 75.5477 10.6771C75.8631 10.4938 76.1087 10.2371 76.2847 9.9071C76.4607 9.56977 76.5487 9.1811 76.5487 8.7411C76.5487 8.3011 76.4607 7.91244 76.2847 7.5751C76.1087 7.23777 75.8631 6.9811 75.5477 6.8051C75.2397 6.62177 74.8877 6.5301 74.4917 6.5301ZM81.6178 5.6391C82.2045 5.6391 82.6995 5.78577 83.1028 6.0791C83.5135 6.37244 83.7995 6.76477 83.9608 7.2561V3.6151H84.9618V11.7551H83.9608V10.2151C83.7995 10.7064 83.5135 11.0988 83.1028 11.3921C82.6995 11.6854 82.2045 11.8321 81.6178 11.8321C81.0825 11.8321 80.6058 11.7074 80.1878 11.4581C79.7698 11.2088 79.4398 10.8531 79.1978 10.3911C78.9632 9.92177 78.8458 9.37177 78.8458 8.7411C78.8458 8.11044 78.9632 7.56044 79.1978 7.0911C79.4398 6.62177 79.7698 6.26244 80.1878 6.0131C80.6058 5.76377 81.0825 5.6391 81.6178 5.6391ZM81.9038 6.5301C81.2878 6.5301 80.7928 6.7281 80.4188 7.1241C80.0522 7.51277 79.8688 8.05177 79.8688 8.7411C79.8688 9.43044 80.0522 9.9731 80.4188 10.3691C80.7928 10.7578 81.2878 10.9521 81.9038 10.9521C82.2998 10.9521 82.6518 10.8604 82.9598 10.6771C83.2752 10.4938 83.5208 10.2371 83.6968 9.9071C83.8728 9.56977 83.9608 9.1811 83.9608 8.7411C83.9608 8.3011 83.8728 7.91244 83.6968 7.5751C83.5208 7.23777 83.2752 6.9811 82.9598 6.8051C82.6518 6.62177 82.2998 6.5301 81.9038 6.5301ZM92.0117 5.6391C92.5911 5.6391 93.1081 5.76377 93.5627 6.0131C94.0247 6.26244 94.3841 6.62177 94.6407 7.0911C94.9047 7.56044 95.0367 8.11044 95.0367 8.7411C95.0367 9.37177 94.9047 9.92177 94.6407 10.3911C94.3841 10.8531 94.0247 11.2088 93.5627 11.4581C93.1081 11.7074 92.5911 11.8321 92.0117 11.8321C91.4324 11.8321 90.9117 11.7074 90.4497 11.4581C89.9951 11.2088 89.6357 10.8531 89.3717 10.3911C89.1077 9.92177 88.9757 9.37177 88.9757 8.7411C88.9757 8.11044 89.1077 7.56044 89.3717 7.0911C89.6357 6.62177 89.9951 6.26244 90.4497 6.0131C90.9117 5.76377 91.4324 5.6391 92.0117 5.6391ZM92.0117 6.5191C91.6524 6.5191 91.3187 6.59977 91.0107 6.7611C90.7101 6.92244 90.4644 7.17177 90.2737 7.5091C90.0904 7.8391 89.9987 8.24977 89.9987 8.7411C89.9987 9.2251 90.0904 9.63577 90.2737 9.9731C90.4644 10.3031 90.7101 10.5488 91.0107 10.7101C91.3187 10.8714 91.6524 10.9521 92.0117 10.9521C92.3711 10.9521 92.7011 10.8714 93.0017 10.7101C93.3097 10.5488 93.5554 10.3031 93.7387 9.9731C93.9294 9.63577 94.0247 9.2251 94.0247 8.7411C94.0247 8.24977 93.9294 7.8391 93.7387 7.5091C93.5554 7.17177 93.3097 6.92244 93.0017 6.7611C92.7011 6.59977 92.3711 6.5191 92.0117 6.5191ZM99.5201 5.6171C100.224 5.6171 100.792 5.84444 101.225 6.2991C101.658 6.74644 101.874 7.39544 101.874 8.2461V11.7551H100.873V8.3341C100.873 7.73277 100.719 7.27077 100.411 6.9481C100.103 6.62544 99.6851 6.4641 99.1571 6.4641C98.6071 6.4641 98.1671 6.64377 97.8371 7.0031C97.5071 7.3551 97.3421 7.8721 97.3421 8.5541V11.7551H96.3411V5.7161H97.3421V7.1461C97.4961 6.65477 97.7674 6.2771 98.1561 6.0131C98.5521 5.7491 99.0068 5.6171 99.5201 5.6171ZM109.009 10.8751V11.7551H108.261C107.645 11.7551 107.183 11.6084 106.875 11.3151C106.575 11.0218 106.424 10.5304 106.424 9.8411V6.5851H105.522V5.7161H106.424V4.2091H107.436V5.7161H108.998V6.5851H107.436V9.8631C107.436 10.2518 107.506 10.5194 107.645 10.6661C107.792 10.8054 108.041 10.8751 108.393 10.8751H109.009ZM113.41 5.6171C114.114 5.6171 114.682 5.84444 115.115 6.2991C115.547 6.74644 115.764 7.39544 115.764 8.2461V11.7551H114.763V8.3341C114.763 7.73277 114.609 7.27077 114.301 6.9481C113.993 6.62544 113.575 6.4641 113.047 6.4641C112.497 6.4641 112.057 6.64377 111.727 7.0031C111.397 7.3551 111.232 7.8721 111.232 8.5541V11.7551H110.231V3.6151H111.232V7.1461C111.386 6.65477 111.657 6.2771 112.046 6.0131C112.442 5.7491 112.896 5.6171 113.41 5.6171ZM122.854 8.4001C122.854 8.61277 122.839 8.7961 122.81 8.9501H117.981C118.003 9.63944 118.197 10.1564 118.564 10.5011C118.938 10.8458 119.393 11.0181 119.928 11.0181C120.412 11.0181 120.815 10.8971 121.138 10.6551C121.468 10.4058 121.67 10.0758 121.743 9.6651H122.81C122.737 10.0831 122.572 10.4571 122.315 10.7871C122.066 11.1171 121.739 11.3738 121.336 11.5571C120.933 11.7404 120.478 11.8321 119.972 11.8321C119.393 11.8321 118.879 11.7074 118.432 11.4581C117.985 11.2088 117.633 10.8531 117.376 10.3911C117.127 9.92177 117.002 9.37177 117.002 8.7411C117.002 8.11044 117.127 7.56044 117.376 7.0911C117.633 6.62177 117.985 6.26244 118.432 6.0131C118.879 5.76377 119.393 5.6391 119.972 5.6391C120.559 5.6391 121.068 5.76377 121.501 6.0131C121.941 6.26244 122.275 6.5961 122.502 7.0141C122.737 7.4321 122.854 7.8941 122.854 8.4001ZM121.842 8.4661C121.864 8.01877 121.791 7.64477 121.622 7.3441C121.453 7.04344 121.222 6.81977 120.929 6.6731C120.636 6.52644 120.317 6.4531 119.972 6.4531C119.422 6.4531 118.96 6.62544 118.586 6.9701C118.212 7.30744 118.01 7.8061 117.981 8.4661H121.842Z" fill="white"/>
<path d="M36.272 21.3631C37.616 21.3631 38.736 21.6938 39.632 22.3551C40.528 23.0164 41.12 23.9178 41.408 25.0591H39.488C39.2427 24.4511 38.8373 23.9658 38.272 23.6031C37.7173 23.2404 37.056 23.0591 36.288 23.0591C35.584 23.0591 34.9493 23.2244 34.384 23.5551C33.8293 23.8858 33.392 24.3551 33.072 24.9631C32.7627 25.5711 32.608 26.2858 32.608 27.1071C32.608 27.9711 32.768 28.7124 33.088 29.3311C33.408 29.9498 33.856 30.4244 34.432 30.7551C35.0187 31.0751 35.696 31.2351 36.464 31.2351C37.4027 31.2351 38.208 30.9471 38.88 30.3711C39.552 29.7844 39.9573 28.9844 40.096 27.9711H35.952V26.6271H41.632V28.3711C41.504 29.2031 41.2053 29.9604 40.736 30.6431C40.2773 31.3151 39.664 31.8538 38.896 32.2591C38.1387 32.6644 37.2693 32.8671 36.288 32.8671C35.1893 32.8671 34.2187 32.6218 33.376 32.1311C32.5333 31.6404 31.8827 30.9631 31.424 30.0991C30.9653 29.2244 30.736 28.2271 30.736 27.1071C30.736 25.9871 30.9653 24.9951 31.424 24.1311C31.8827 23.2564 32.528 22.5791 33.36 22.0991C34.2027 21.6084 35.1733 21.3631 36.272 21.3631ZM47.511 23.8271C48.3643 23.8271 49.1323 24.0084 49.815 24.3711C50.4977 24.7338 51.031 25.2564 51.415 25.9391C51.799 26.6218 51.991 27.4218 51.991 28.3391C51.991 29.2671 51.799 30.0724 51.415 30.7551C51.031 31.4378 50.4977 31.9604 49.815 32.3231C49.1323 32.6858 48.3643 32.8671 47.511 32.8671C46.6577 32.8671 45.8897 32.6858 45.207 32.3231C44.535 31.9604 44.0017 31.4378 43.607 30.7551C43.223 30.0618 43.031 29.2564 43.031 28.3391C43.031 27.4218 43.223 26.6218 43.607 25.9391C44.0017 25.2564 44.535 24.7338 45.207 24.3711C45.8897 24.0084 46.6577 23.8271 47.511 23.8271ZM47.511 25.4111C47.0417 25.4111 46.6097 25.5178 46.215 25.7311C45.8203 25.9444 45.5003 26.2751 45.255 26.7231C45.0203 27.1604 44.903 27.6991 44.903 28.3391C44.903 28.9898 45.0203 29.5338 45.255 29.9711C45.5003 30.4084 45.8203 30.7338 46.215 30.9471C46.6097 31.1604 47.0417 31.2671 47.511 31.2671C47.9803 31.2671 48.4123 31.1604 48.807 30.9471C49.2017 30.7338 49.5163 30.4084 49.751 29.9711C49.9963 29.5338 50.119 28.9898 50.119 28.3391C50.119 27.6991 49.9963 27.1604 49.751 26.7231C49.5163 26.2751 49.2017 25.9444 48.807 25.7311C48.4123 25.5178 47.9803 25.4111 47.511 25.4111ZM57.7766 23.8271C58.63 23.8271 59.398 24.0084 60.0806 24.3711C60.7633 24.7338 61.2966 25.2564 61.6806 25.9391C62.0646 26.6218 62.2566 27.4218 62.2566 28.3391C62.2566 29.2671 62.0646 30.0724 61.6806 30.7551C61.2966 31.4378 60.7633 31.9604 60.0806 32.3231C59.398 32.6858 58.63 32.8671 57.7766 32.8671C56.9233 32.8671 56.1553 32.6858 55.4726 32.3231C54.8006 31.9604 54.2673 31.4378 53.8726 30.7551C53.4886 30.0618 53.2966 29.2564 53.2966 28.3391C53.2966 27.4218 53.4886 26.6218 53.8726 25.9391C54.2673 25.2564 54.8006 24.7338 55.4726 24.3711C56.1553 24.0084 56.9233 23.8271 57.7766 23.8271ZM57.7766 25.4111C57.3073 25.4111 56.8753 25.5178 56.4806 25.7311C56.086 25.9444 55.766 26.2751 55.5206 26.7231C55.286 27.1604 55.1686 27.6991 55.1686 28.3391C55.1686 28.9898 55.286 29.5338 55.5206 29.9711C55.766 30.4084 56.086 30.7338 56.4806 30.9471C56.8753 31.1604 57.3073 31.2671 57.7766 31.2671C58.246 31.2671 58.678 31.1604 59.0726 30.9471C59.4673 30.7338 59.782 30.4084 60.0166 29.9711C60.262 29.5338 60.3846 28.9898 60.3846 28.3391C60.3846 27.6991 60.262 27.1604 60.0166 26.7231C59.782 26.2751 59.4673 25.9444 59.0726 25.7311C58.678 25.5178 58.246 25.4111 57.7766 25.4111ZM67.5463 23.8271C68.3463 23.8271 69.0289 24.0244 69.5943 24.4191C70.1596 24.8138 70.5596 25.3364 70.7943 25.9871V23.9391H72.6183V32.8511C72.6183 33.6724 72.4476 34.3978 72.1063 35.0271C71.7756 35.6671 71.2956 36.1684 70.6663 36.5311C70.0369 36.8938 69.2903 37.0751 68.4263 37.0751C67.1889 37.0751 66.1863 36.7818 65.4183 36.1951C64.6609 35.6084 64.1863 34.8138 63.9943 33.8111H65.8023C65.9516 34.3338 66.2396 34.7391 66.6663 35.0271C67.0929 35.3258 67.6369 35.4751 68.2983 35.4751C69.0236 35.4751 69.6209 35.2511 70.0903 34.8031C70.5596 34.3551 70.7943 33.7044 70.7943 32.8511V30.7071C70.5596 31.3578 70.1596 31.8804 69.5943 32.2751C69.0289 32.6698 68.3463 32.8671 67.5463 32.8671C66.7783 32.8671 66.0903 32.6858 65.4823 32.3231C64.8849 31.9604 64.4156 31.4378 64.0743 30.7551C63.7329 30.0724 63.5623 29.2671 63.5623 28.3391C63.5623 27.4218 63.7329 26.6218 64.0743 25.9391C64.4156 25.2564 64.8849 24.7338 65.4823 24.3711C66.0903 24.0084 66.7783 23.8271 67.5463 23.8271ZM68.1063 25.4271C67.2956 25.4271 66.6449 25.6884 66.1543 26.2111C65.6743 26.7231 65.4343 27.4324 65.4343 28.3391C65.4343 29.2458 65.6743 29.9604 66.1543 30.4831C66.6449 30.9951 67.2956 31.2511 68.1063 31.2511C68.6183 31.2511 69.0769 31.1338 69.4823 30.8991C69.8876 30.6538 70.2076 30.3124 70.4423 29.8751C70.6769 29.4378 70.7943 28.9258 70.7943 28.3391C70.7943 27.7631 70.6769 27.2564 70.4423 26.8191C70.2076 26.3711 69.8876 26.0298 69.4823 25.7951C69.0769 25.5498 68.6183 25.4271 68.1063 25.4271ZM76.6311 20.9151V32.7551H74.8071V20.9151H76.6311ZM87.0304 27.9231C87.0304 28.2218 87.009 28.4831 86.9664 28.7071H80.1824C80.2144 29.6138 80.465 30.2858 80.9344 30.7231C81.4037 31.1604 81.985 31.3791 82.6784 31.3791C83.2864 31.3791 83.7984 31.2244 84.2144 30.9151C84.641 30.6058 84.9024 30.1951 84.9984 29.6831H86.9504C86.833 30.3018 86.5877 30.8511 86.2144 31.3311C85.841 31.8111 85.3557 32.1898 84.7584 32.4671C84.161 32.7338 83.4944 32.8671 82.7584 32.8671C81.905 32.8671 81.1477 32.6858 80.4864 32.3231C79.8357 31.9604 79.3237 31.4378 78.9504 30.7551C78.577 30.0724 78.3904 29.2671 78.3904 28.3391C78.3904 27.4218 78.577 26.6218 78.9504 25.9391C79.3237 25.2564 79.8357 24.7338 80.4864 24.3711C81.1477 24.0084 81.905 23.8271 82.7584 23.8271C83.6224 23.8271 84.3744 24.0084 85.0144 24.3711C85.665 24.7231 86.161 25.2138 86.5024 25.8431C86.8544 26.4618 87.0304 27.1551 87.0304 27.9231ZM85.1904 27.8751C85.2117 27.2991 85.1104 26.8191 84.8864 26.4351C84.673 26.0404 84.3744 25.7524 83.9904 25.5711C83.617 25.3791 83.2064 25.2831 82.7584 25.2831C82.0437 25.2831 81.4464 25.5018 80.9664 25.9391C80.4864 26.3764 80.225 27.0218 80.1824 27.8751H85.1904ZM97.5975 23.8271C98.3655 23.8271 99.0482 24.0084 99.6455 24.3711C100.254 24.7338 100.728 25.2564 101.07 25.9391C101.411 26.6218 101.582 27.4218 101.582 28.3391C101.582 29.2671 101.411 30.0724 101.07 30.7551C100.728 31.4378 100.254 31.9604 99.6455 32.3231C99.0482 32.6858 98.3655 32.8671 97.5975 32.8671C96.7975 32.8671 96.1148 32.6698 95.5495 32.2751C94.9842 31.8804 94.5895 31.3578 94.3655 30.7071V36.9471H92.5415V23.9391H94.3655V25.9871C94.5895 25.3364 94.9842 24.8138 95.5495 24.4191C96.1148 24.0244 96.7975 23.8271 97.5975 23.8271ZM97.0375 25.4271C96.5255 25.4271 96.0668 25.5498 95.6615 25.7951C95.2562 26.0298 94.9362 26.3711 94.7015 26.8191C94.4668 27.2564 94.3495 27.7631 94.3495 28.3391C94.3495 28.9258 94.4668 29.4378 94.7015 29.8751C94.9362 30.3124 95.2562 30.6538 95.6615 30.8991C96.0668 31.1338 96.5255 31.2511 97.0375 31.2511C97.8482 31.2511 98.4988 30.9951 98.9895 30.4831C99.4802 29.9604 99.7255 29.2458 99.7255 28.3391C99.7255 27.4431 99.4802 26.7338 98.9895 26.2111C98.4988 25.6884 97.8482 25.4271 97.0375 25.4271ZM105.162 20.9151V32.7551H103.338V20.9151H105.162ZM110.906 23.8271C111.706 23.8271 112.388 24.0244 112.954 24.4191C113.519 24.8138 113.919 25.3364 114.154 25.9871V23.9391H115.978V32.7551H114.154V30.7071C113.919 31.3578 113.519 31.8804 112.954 32.2751C112.388 32.6698 111.706 32.8671 110.906 32.8671C110.138 32.8671 109.45 32.6858 108.842 32.3231C108.244 31.9604 107.775 31.4378 107.434 30.7551C107.092 30.0724 106.922 29.2671 106.922 28.3391C106.922 27.4218 107.092 26.6218 107.434 25.9391C107.775 25.2564 108.244 24.7338 108.842 24.3711C109.45 24.0084 110.138 23.8271 110.906 23.8271ZM111.466 25.4271C110.655 25.4271 110.004 25.6884 109.514 26.2111C109.034 26.7231 108.794 27.4324 108.794 28.3391C108.794 29.2458 109.034 29.9604 109.514 30.4831C110.004 30.9951 110.655 31.2511 111.466 31.2511C111.978 31.2511 112.436 31.1338 112.842 30.8991C113.247 30.6538 113.567 30.3124 113.802 29.8751C114.036 29.4378 114.154 28.9258 114.154 28.3391C114.154 27.7631 114.036 27.2564 113.802 26.8191C113.567 26.3711 113.247 26.0298 112.842 25.7951C112.436 25.5498 111.978 25.4271 111.466 25.4271ZM119.207 23.9391L121.847 30.4191L124.295 23.9391H126.327L120.999 36.9471H118.967L120.871 32.5471L117.159 23.9391H119.207Z" fill="white"/>
<defs>
<clipPath id="clip0_2085_16630">
<rect width="24" height="24" fill="white" transform="translate(0 8)"/>
</clipPath>
</defs>
</svg>
