<svg width="544" height="162" viewBox="0 0 544 162" fill="none" xmlns="http://www.w3.org/2000/svg">
<path d="M149.118 141.478H144.127L144.248 140.163H155.445L155.324 141.478H150.333L148.98 156.596H147.787L149.118 141.478Z" fill="#222835"/>
<path d="M173.108 151.432C173.108 147.63 175.554 144.462 178.716 144.462C180.108 144.462 181.439 145.122 182.198 146.315L182.337 144.743H183.49L182.436 156.596H181.283L181.422 155.071C180.485 156.243 179.076 156.877 177.662 156.877C175.016 156.877 173.108 154.646 173.108 151.432ZM177.879 155.634C179.232 155.634 180.624 154.928 181.556 153.546L182.055 147.819C181.357 146.432 180.108 145.706 178.755 145.706C176.17 145.706 174.301 148.218 174.301 151.315C174.301 153.965 175.832 155.634 177.879 155.634Z" fill="#222835"/>
<path d="M207.437 156.29L203.838 144.739H205.069L208.17 154.785L212.906 144.739H214.159L206.145 161.71H204.87L207.437 156.29Z" fill="#222835"/>
<path d="M233.076 151.386C233.076 147.584 235.544 144.462 238.844 144.462C241.611 144.462 243.579 146.765 243.579 149.953C243.579 153.781 241.095 156.877 237.812 156.877C235.028 156.877 233.076 154.6 233.076 151.386ZM237.872 155.634C240.44 155.634 242.387 153.147 242.387 150.045C242.387 147.512 240.934 145.706 238.787 145.706C236.203 145.706 234.273 148.218 234.273 151.294C234.269 153.848 235.704 155.634 237.872 155.634Z" fill="#222835"/>
<path d="M288.61 144.745H289.764L288.709 156.597H287.556L288.61 144.745ZM289.564 140.262C290.063 140.262 290.458 140.707 290.458 141.296C290.458 141.976 290.002 142.514 289.421 142.514C288.922 142.514 288.527 142.089 288.527 141.48C288.532 140.799 289.009 140.262 289.564 140.262Z" fill="#222835"/>
<path d="M313.708 156.29L310.108 144.739H311.34L314.441 154.785L319.176 144.739H320.429L312.415 161.71H311.141L313.708 156.29Z" fill="#222835"/>
<path d="M339.347 151.386C339.347 147.584 341.814 144.462 345.114 144.462C347.881 144.462 349.85 146.765 349.85 149.953C349.85 153.781 347.365 156.877 344.082 156.877C341.298 156.877 339.347 154.6 339.347 151.386ZM344.139 155.634C346.706 155.634 348.653 153.147 348.653 150.045C348.653 147.512 347.2 145.706 345.054 145.706C342.469 145.706 340.539 148.218 340.539 151.294C340.539 153.848 341.975 155.634 344.139 155.634Z" fill="#222835"/>
<path d="M395.575 140.163H400.866C403.451 140.163 405.125 141.76 405.125 144.39C405.125 147.538 403.373 149.416 400.771 149.697L404.591 156.596H403.16L399.4 149.743H395.94L395.341 156.596H394.127L395.575 140.163ZM400.012 148.428C402.358 148.428 403.889 147.092 403.889 144.462C403.889 142.512 402.735 141.483 400.627 141.483H396.668L396.052 148.433H400.012V148.428Z" fill="#222835"/>
<path d="M425.213 151.432C425.213 147.63 427.659 144.462 430.82 144.462C432.212 144.462 433.543 145.122 434.302 146.315L434.441 144.743H435.595L434.541 156.596H433.387L433.526 155.071C432.589 156.243 431.18 156.877 429.766 156.877C427.125 156.877 425.213 154.646 425.213 151.432ZM429.987 155.634C431.34 155.634 432.733 154.928 433.665 153.546L434.164 147.819C433.465 146.432 432.216 145.706 430.863 145.706C428.279 145.706 426.41 148.218 426.41 151.315C426.405 153.965 427.941 155.634 429.987 155.634Z" fill="#222835"/>
<path d="M456.083 151.432C456.083 147.604 458.529 144.462 461.712 144.462C463.126 144.462 464.435 145.122 465.173 146.294L465.311 144.743H466.465L464.951 161.714H463.798L464.396 155.071C463.46 156.243 462.028 156.877 460.636 156.877C458.013 156.877 456.083 154.646 456.083 151.432ZM460.853 155.634C462.206 155.634 463.598 154.928 464.531 153.546L465.029 147.794C464.353 146.432 463.082 145.706 461.747 145.706C459.162 145.706 457.271 148.218 457.271 151.315C457.276 153.965 458.828 155.634 460.853 155.634Z" fill="#222835"/>
<path d="M488.205 144.745H489.359L488.305 156.597H487.151L488.205 144.745ZM489.16 140.262C489.659 140.262 490.053 140.707 490.053 141.296C490.053 141.976 489.598 142.514 489.017 142.514C488.518 142.514 488.123 142.089 488.123 141.48C488.127 140.799 488.604 140.262 489.16 140.262Z" fill="#222835"/>
<path d="M511.099 144.745H512.253L511.199 156.597H510.045L511.099 144.745ZM512.053 140.262C512.552 140.262 512.947 140.707 512.947 141.296C512.947 141.976 512.487 142.514 511.91 142.514C511.411 142.514 511.017 142.089 511.017 141.48C511.021 140.799 511.498 140.262 512.053 140.262Z" fill="#222835"/>
<path d="M532.321 154.974L533.098 153.966C533.991 155.071 535.205 155.655 536.519 155.655C538.21 155.655 539.364 154.692 539.364 153.239C539.364 152.395 538.865 151.76 537.573 151.432L535.626 150.89C533.895 150.419 533.18 149.503 533.18 148.213C533.18 145.936 534.949 144.457 537.139 144.457C538.67 144.457 540.084 145.117 540.938 146.335L540.145 147.272C539.368 146.238 538.354 145.701 537.061 145.701C535.53 145.701 534.338 146.591 534.338 148.024C534.338 148.848 534.793 149.339 536.146 149.713L538.076 150.25C539.785 150.721 540.522 151.658 540.522 153.019C540.522 155.486 538.77 156.867 536.424 156.867C534.789 156.878 533.254 156.197 532.321 154.974Z" fill="#222835"/>
<path d="M149.119 76.2734H160.112L158.525 94.651H174.644L176.231 76.2734H187.224L182.766 126.718H171.777L173.486 107.046H157.367L155.658 126.718H144.665L149.119 76.2734Z" fill="#85BF56"/>
<path d="M193.752 89.3911H204.134L200.838 126.72H190.456L193.752 89.3911ZM200.469 71.5918C203.704 71.5918 206.085 74.4014 206.085 78.1476C206.085 82.3287 203.032 85.8599 199.368 85.8599C196.133 85.8599 193.687 83.0503 193.687 79.3758C193.691 75.1947 196.744 71.5918 200.469 71.5918Z" fill="#85BF56"/>
<path d="M212.866 73.5361H223.248L218.547 126.719H208.165L212.866 73.5361Z" fill="#85BF56"/>
<path d="M225.812 110.288C225.812 98.5426 233.02 88.5273 242.664 88.5273C245.535 88.5273 248.159 89.5355 250.418 91.6235L250.6 89.3871H260.982L257.686 126.716H247.305L247.487 124.699C245.106 126.644 242.417 127.58 239.546 127.58C231.736 127.586 225.812 120.38 225.812 110.288ZM242.361 116.199C244.62 116.199 246.697 115.19 248.528 113.102L249.382 102.944C247.977 100.927 246.025 99.9193 243.827 99.9193C239.551 99.9193 236.376 103.594 236.376 109.141C236.376 113.461 238.757 116.199 242.361 116.199Z" fill="#85BF56"/>
<path d="M264.949 110.288C264.949 98.5426 272.157 88.5273 281.801 88.5273C284.672 88.5273 287.296 89.5355 289.555 91.6235L289.737 89.3871H300.119L296.823 126.716H286.441L286.623 124.699C284.243 126.644 281.554 127.58 278.683 127.58C270.873 127.586 264.949 120.38 264.949 110.288ZM281.498 116.199C283.757 116.199 285.834 115.19 287.664 113.102L288.519 102.944C287.113 100.927 285.162 99.9193 282.963 99.9193C278.688 99.9193 275.513 103.594 275.513 109.141C275.513 113.461 277.894 116.199 281.498 116.199Z" fill="#85BF56"/>
<path d="M308.852 73.5361H319.234L314.533 126.719H304.151L308.852 73.5361Z" fill="#85BF56"/>
<path d="M326.684 76.2734H340.791L349.216 108.269L363.263 76.2734H377.734L373.276 126.718H362.53L365.218 96.1659L352.395 125.28H343.358L335.665 95.9509L332.976 126.718H322.226L326.684 76.2734Z" fill="#DB9843"/>
<path d="M380.905 110.288C380.905 98.5426 388.113 88.5273 397.757 88.5273C400.628 88.5273 403.252 89.5355 405.511 91.6235L405.693 89.3871H416.075L412.779 126.716H402.397L402.579 124.699C400.199 126.644 397.51 127.58 394.639 127.58C386.829 127.586 380.905 120.38 380.905 110.288ZM397.454 116.199C399.713 116.199 401.79 115.19 403.62 113.102L404.475 102.944C403.07 100.927 401.118 99.9193 398.919 99.9193C394.644 99.9193 391.469 103.594 391.469 109.141C391.469 113.461 393.85 116.199 397.454 116.199Z" fill="#DB9843"/>
<path d="M423.405 89.391H433.786L433.483 92.564C435.742 89.8977 438.613 88.5312 441.423 88.5312C442.399 88.5312 443.5 88.6745 444.658 89.0379L443.496 100.425C442.399 100.281 441.48 100.21 440.747 100.21C437.694 100.21 434.762 101.653 432.442 104.534L430.486 126.73H420.104L423.405 89.391Z" fill="#DB9843"/>
<path d="M450.759 73.5361H461.141L458.639 101.786L470.3 89.3907H483.796L469.082 105.389L480.743 126.719H468.531L461.571 113.459L457.173 118.285L456.44 126.714H446.059L450.759 73.5361Z" fill="#DB9843"/>
<path d="M481.961 110.651C481.961 97.9695 489.836 88.5273 500.708 88.5273C509.316 88.5273 515.548 94.5816 515.548 104.812C515.548 106.685 515.118 109.715 514.815 111.368H492.039C492.529 115.329 494.663 117.35 498.635 117.35C501.324 117.35 503.947 116.414 506.636 113.532L513.536 119.945C509.26 125.134 504.008 127.586 498.024 127.586C488.128 127.586 481.961 120.666 481.961 110.651ZM505.47 103.297C504.98 99.9807 502.967 98.5427 499.975 98.5427C496.619 98.5427 494.359 100.416 493.136 103.297H505.47Z" fill="#DB9843"/>
<path d="M523.18 111.943L524.216 100.198H518.722L519.697 89.3894H525.192L525.925 81.0322H536.307L535.574 89.3894H544L543.024 100.198H534.659L533.744 110.357C533.379 114.394 534.234 116.047 537.287 116.047C538.388 116.047 539.85 115.832 541.441 115.254L542.113 125.991C539.975 126.856 537.165 127.434 534.359 127.434C526.475 127.439 522.26 122.608 523.18 111.943Z" fill="#DB9843"/>
<path d="M58.9867 162C53.3795 162 48.8174 156.616 48.8174 149.999C48.8174 143.382 53.3795 137.998 58.9867 137.998C64.5939 137.998 69.156 143.382 69.156 149.999C69.1603 156.616 64.5982 162 58.9867 162ZM58.9867 146.017C57.1263 146.017 55.6172 147.804 55.6172 149.994C55.6172 152.189 57.1306 153.97 58.9867 153.97C60.8471 153.97 62.3562 152.184 62.3562 149.994C62.3605 147.804 60.8471 146.017 58.9867 146.017Z" fill="#222835"/>
<path d="M103.889 162C98.2818 162 93.7197 156.616 93.7197 149.999C93.7197 143.382 98.2818 137.998 103.889 137.998C109.496 137.998 114.058 143.382 114.058 149.999C114.058 156.616 109.496 162 103.889 162ZM103.889 146.017C102.029 146.017 100.519 147.804 100.519 149.994C100.519 152.189 102.033 153.97 103.889 153.97C105.749 153.97 107.259 152.184 107.259 149.994C107.259 147.804 105.749 146.017 103.889 146.017Z" fill="#222835"/>
<path d="M130.914 82.1195C129.223 81.1574 127.189 81.9967 126.374 83.9926C118.013 104.458 100.22 117.631 80.9868 117.631C80.8914 117.631 80.8003 117.631 80.7049 117.631C53.1069 117.447 30.6564 90.3999 30.6564 57.3448V52.2271C30.6564 43.6447 26.0596 35.9324 19.2122 33.0306L4.55018 26.8178C2.78519 26.0706 0.838059 27.1504 0.200581 29.2384C-0.432561 31.3264 0.48246 33.6192 2.25179 34.3715L16.9138 40.5844C17.0742 40.6509 17.226 40.7328 17.3821 40.8044V40.7993C17.3821 40.7993 23.9781 42.7235 28.7093 54.5505C28.7093 54.5505 26.6581 50.1493 22.5904 46.3622C23.4013 48.1278 23.8567 50.134 23.8567 52.2271V57.3448C23.8567 94.8011 49.3428 125.446 80.6659 125.656C80.7743 125.656 80.8784 125.656 80.9868 125.656C102.813 125.656 123.008 110.702 132.497 87.4777C133.316 85.4818 132.605 83.0816 130.914 82.1195Z" fill="#222835"/>
<path d="M116.477 144.075C116.117 144.075 115.749 144.008 115.384 143.86C115.233 143.798 99.6773 137.698 79.9155 137.698C60.2101 137.698 47.8335 143.701 47.7077 143.763C45.9774 144.617 43.9826 143.655 43.2584 141.613C42.5341 139.571 43.3494 137.217 45.0841 136.362C45.6348 136.091 58.8614 129.679 79.9155 129.679C100.848 129.679 116.894 135.994 117.566 136.265C119.344 136.977 120.298 139.254 119.695 141.352C119.218 143.021 117.895 144.075 116.477 144.075Z" fill="#222835"/>
<path d="M111.525 58.6438C104.843 52.9939 96.4212 50.6244 88.2033 50.9059C79.9855 51.1874 71.8587 53.7564 64.4215 57.8864C75.4668 51.7503 87.4921 47.518 99.7213 48.1219C107.08 48.4852 114.509 50.8496 120.845 55.1996C120.021 53.4852 119.045 51.8475 117.896 50.3327C117.675 50.041 117.445 49.7493 117.215 49.4678C111.317 42.3031 102.779 38.5671 94.2832 38.0912C85.7878 37.605 77.3228 40.169 69.53 44.1454C64.0876 46.909 58.7579 50.4197 52.8602 51.1669C46.9667 51.9192 40.6744 48.91 38.7055 42.3645C36.6587 48.9356 35.6829 56.131 36.0342 63.6233C37.3222 91.1616 56.6807 113.096 80.0462 113.567C98.4073 113.935 114.297 101.295 121.534 82.9324C122.042 81.6478 122.467 80.3275 122.822 78.9917C121.539 70.8802 117.25 63.4851 111.525 58.6438Z" fill="url(#paint0_linear_1055_14037)"/>
<path opacity="0.3" d="M111.525 58.644C104.843 52.9941 96.421 50.6246 88.2032 50.9061C85.9482 50.9829 83.7018 51.2388 81.4728 51.6431C80.4841 52.2469 79.5777 53.0044 78.8622 54.0023C77.6133 55.7423 77.0408 58.296 77.8474 60.3687C78.6887 62.5335 80.7963 63.6645 82.8085 63.8385C84.8207 64.0125 86.8155 63.424 88.8103 63.0657C90.8052 62.7075 92.9388 62.6051 94.7428 63.6696C97.8001 65.4813 98.9059 70.0053 98.984 74.0432C99.0794 79.0841 97.9995 84.2836 95.3282 88.2191C92.6569 92.1495 88.2422 94.5907 84.0358 93.7002C80.0938 92.866 76.9801 89.4423 73.7797 86.6071C70.4232 83.6337 66.5506 81.1158 62.3572 80.9367C58.1637 80.7525 53.6623 83.4904 52.3917 88.2089C51.7455 90.6142 51.7499 93.69 49.8895 94.9438C48.9484 95.5784 47.7993 95.4812 46.7715 95.0103C54.8766 106.157 66.8152 113.306 80.0461 113.572C98.4072 113.941 114.296 101.3 121.534 82.9377C122.042 81.6532 122.467 80.3328 122.822 78.9971C121.539 70.8804 117.25 63.4854 111.525 58.644Z" fill="url(#paint1_linear_1055_14037)"/>
<path d="M114.556 29.8256C113.823 26.4786 112.787 23.106 110.783 20.583C108.229 17.3691 104.304 15.9413 100.584 16.2842C96.8627 16.627 93.3414 18.5974 90.3925 21.2995C86.4723 19.4879 81.7237 21.1818 78.7922 24.7437C75.8563 28.3056 74.9543 34.0016 76.6022 38.5717C82.2441 35.235 90.0326 34.4264 97.8168 35.7314C104.898 36.9187 110.692 40.1838 116.1 45.7006C116.208 40.3629 115.684 35.0047 114.556 29.8256ZM108.84 22.7478C107.518 21.1153 105.787 19.974 103.944 19.365C102.101 18.756 100.293 18.6741 98.3979 18.9761C101.299 17.6096 104.747 17.973 107.396 19.9229C110.046 21.8727 111.841 25.3629 112.08 29.0425C111.182 26.7191 110.332 24.5902 108.84 22.7478Z" fill="url(#paint2_linear_1055_14037)"/>
<path d="M90.6625 19.7645C89.895 11.1821 92.1586 6.71435 95.9965 3.34179C94.8387 2.98355 93.6027 2.93238 92.4318 3.21897C90.8013 5.42981 89.6738 8.25476 89.2184 11.136C88.7631 14.0173 88.9756 17.0418 89.8256 19.8003C90.0641 19.7695 90.4284 19.7952 90.6625 19.7645Z" fill="url(#paint3_linear_1055_14037)"/>
<path opacity="0.3" d="M107.761 31.8927C105.744 30.5929 104.005 28.7352 101.958 27.5018C99.9115 26.2684 97.3183 25.7413 95.3711 27.1845C94.287 27.988 93.5498 29.2827 92.7735 30.4854C91.9929 31.6829 91.0736 32.8754 89.842 33.2848C88.6104 33.6993 87.0362 32.9931 86.763 31.514C86.4725 29.9224 87.7344 28.5049 87.8819 26.8877C88.0293 25.2807 86.9755 23.7556 85.6832 23.2132C84.3909 22.6707 82.9425 22.947 81.6675 23.5407C80.5877 24.0422 79.5946 24.7843 78.7273 25.6952C77.86 26.6113 77.1314 27.7014 76.559 28.8989C75.5443 31.9798 75.5009 35.5263 76.6024 38.5764C82.2443 35.2397 90.0328 34.4311 97.817 35.7361C104.899 36.9234 110.692 40.1885 116.1 45.7054C116.191 41.1609 115.822 36.6113 115.02 32.164C114.803 32.3431 114.587 32.5069 114.357 32.6502C112.305 33.8938 109.777 33.1926 107.761 31.8927Z" fill="url(#paint4_linear_1055_14037)"/>
<path d="M59.9324 16.1562C58.2498 14.0937 56.4978 12.0262 54.568 10.2913C52.6426 8.55643 50.4526 7.14905 48.0762 6.59122C48.6443 5.11221 49.8065 4.07843 51.1465 3.70996C53.4535 5.05591 55.5308 6.85222 57.4562 8.86347C58.098 11.32 58.8656 13.9146 59.9324 16.1562Z" fill="url(#paint5_linear_1055_14037)"/>
<path d="M60.2105 15.9467C59.0483 13.7768 58.2503 11.0184 57.808 8.50562C57.3657 5.99284 57.1835 3.42886 56.9971 0.870013C57.9555 0.378715 58.9702 0.0255884 60.0153 0C59.508 2.44625 59.625 4.98976 60.0067 7.46672C60.3883 9.94368 61.0604 12.3439 61.7326 14.7338C61.7326 14.7441 60.7352 15.3684 60.2105 15.9467Z" fill="url(#paint6_linear_1055_14037)"/>
<path d="M76.4635 21.6121C75.349 21.8219 74.2561 22.1802 73.2154 22.697C74.087 21.8066 75.0931 21.1157 76.1686 20.6346C75.8737 19.6469 75.5745 18.6643 75.2883 17.651C74.8936 16.2539 74.4643 14.8004 73.5623 13.7871C72.7557 12.8813 71.6369 12.431 70.5224 12.3389C69.4122 12.2467 68.2977 12.4924 67.2179 12.8301C63.8223 13.8946 60.6479 15.9007 58.0156 18.6489C56.7233 19.9949 55.5221 21.6121 55.1405 23.5926C54.8499 25.1075 55.0668 26.7042 55.5308 28.1576C55.8213 29.0686 56.2073 29.9334 56.6236 30.7779C58.2151 29.0532 60.1753 27.8096 62.2742 27.2108C60.2143 28.2702 58.536 30.2815 57.6037 32.6868C59.0608 35.4554 60.5178 38.1269 61.9749 40.8341C63.9654 39.002 66.2725 37.6509 68.7183 36.9089C67.3827 37.7635 66.034 38.6284 64.8718 39.7799C64.0869 40.5578 63.3887 41.4892 62.89 42.5434C63.2672 43.2497 63.6445 43.9559 64.0218 44.6775C67.1008 42.4104 70.4313 40.5527 74.0046 39.5905C72.7991 34.1658 74.0003 28.0808 77.114 23.8485C76.9058 23.0962 76.6846 22.3542 76.4635 21.6121Z" fill="url(#paint7_linear_1055_14037)"/>
<path d="M76.4623 21.6117C75.3478 21.8215 74.255 22.1797 73.2142 22.6966C74.0859 21.8061 75.092 21.1152 76.1718 20.6342C75.8769 19.6465 75.5777 18.6639 75.2915 17.6506C75.2741 17.5892 75.2524 17.5226 75.2351 17.4561C73.9211 17.0211 72.2949 17.0876 71.189 17.4561C69.4501 18.0293 67.9149 19.626 67.4683 21.6884C67.0216 23.7508 67.8412 26.1818 69.4804 27.0722C70.1526 27.4356 70.9549 27.5686 71.4492 28.2135C72.1084 29.0732 71.8916 30.5216 71.2194 31.3711C70.5472 32.2206 69.5628 32.5993 68.6044 32.8706C67.6461 33.1418 66.653 33.3414 65.8117 33.9453C64.9704 34.5492 64.3112 35.6802 64.4934 36.8214C64.5931 37.4458 64.914 37.9473 65.3173 38.3823C66.4058 37.7631 67.542 37.2616 68.7172 36.9084C67.7415 37.5328 66.7657 38.1623 65.8551 38.9043C65.9982 39.0323 66.1456 39.1551 66.2887 39.2728C67.0606 39.9023 67.8933 40.6699 68.0147 41.7702C68.0277 41.8726 68.0277 41.9801 68.032 42.0875C69.9401 41.0231 71.9306 40.1581 74.0035 39.6003C72.7979 34.1756 73.9992 28.0907 77.1128 23.8583C76.9047 23.0958 76.6835 22.3537 76.4623 21.6117Z" fill="url(#paint8_linear_1055_14037)"/>
<path d="M103.889 142.217C100.251 142.217 97.293 145.707 97.293 150.001C97.293 154.295 100.251 157.785 103.889 157.785C107.527 157.785 110.485 154.295 110.485 150.001C110.485 145.707 107.527 142.217 103.889 142.217ZM103.889 153.977C102.029 153.977 100.519 152.191 100.519 150.001C100.519 147.805 102.033 146.024 103.889 146.024C105.749 146.024 107.258 147.81 107.258 150.001C107.258 152.191 105.749 153.977 103.889 153.977Z" fill="#85BF56"/>
<path d="M58.9876 142.217C55.3492 142.217 52.3916 145.707 52.3916 150.001C52.3916 154.295 55.3492 157.785 58.9876 157.785C62.6259 157.785 65.5835 154.295 65.5835 150.001C65.5835 145.707 62.6259 142.217 58.9876 142.217ZM58.9876 153.977C57.1272 153.977 55.618 152.191 55.618 150.001C55.618 147.805 57.1315 146.024 58.9876 146.024C60.8479 146.024 62.3571 147.81 62.3571 150.001C62.3614 152.191 60.8479 153.977 58.9876 153.977Z" fill="#85BF56"/>
<defs>
<linearGradient id="paint0_linear_1055_14037" x1="70.6367" y1="33.6073" x2="94.3793" y2="96.1196" gradientUnits="userSpaceOnUse">
<stop stop-color="#B9DE60"/>
<stop offset="1" stop-color="#6AA632"/>
</linearGradient>
<linearGradient id="paint1_linear_1055_14037" x1="30.7179" y1="67.1963" x2="122.981" y2="85.52" gradientUnits="userSpaceOnUse">
<stop stop-color="white"/>
<stop offset="1" stop-color="white" stop-opacity="0"/>
</linearGradient>
<linearGradient id="paint2_linear_1055_14037" x1="104.137" y1="-0.702372" x2="94.137" y2="34.0122" gradientUnits="userSpaceOnUse">
<stop stop-color="#DE3030"/>
<stop offset="1" stop-color="#A52A2A"/>
</linearGradient>
<linearGradient id="paint3_linear_1055_14037" x1="90.8484" y1="-0.728552" x2="95.3596" y2="19.4637" gradientUnits="userSpaceOnUse">
<stop stop-color="#B9DE60"/>
<stop offset="1" stop-color="#6AA632"/>
</linearGradient>
<linearGradient id="paint4_linear_1055_14037" x1="98.0252" y1="19.9242" x2="95.996" y2="33.4887" gradientUnits="userSpaceOnUse">
<stop stop-color="white"/>
<stop offset="1" stop-color="white" stop-opacity="0"/>
</linearGradient>
<linearGradient id="paint5_linear_1055_14037" x1="52.1255" y1="-0.347239" x2="56.1505" y2="17.6694" gradientUnits="userSpaceOnUse">
<stop stop-color="#B9DE60"/>
<stop offset="1" stop-color="#6AA632"/>
</linearGradient>
<linearGradient id="paint6_linear_1055_14037" x1="57.6112" y1="-3.8442" x2="62.1051" y2="16.271" gradientUnits="userSpaceOnUse">
<stop stop-color="#B9DE60"/>
<stop offset="1" stop-color="#6AA632"/>
</linearGradient>
<linearGradient id="paint7_linear_1055_14037" x1="57.1151" y1="15.059" x2="76.5935" y2="32.0338" gradientUnits="userSpaceOnUse">
<stop stop-color="#FDBA52"/>
<stop offset="1" stop-color="#D49B0B"/>
</linearGradient>
<linearGradient id="paint8_linear_1055_14037" x1="44.0976" y1="18.8604" x2="74.5606" y2="27.5281" gradientUnits="userSpaceOnUse">
<stop stop-color="white"/>
<stop offset="1" stop-color="white" stop-opacity="0"/>
</linearGradient>
</defs>
</svg>
