<svg width="307" height="76" viewBox="0 0 307 76" fill="none" xmlns="http://www.w3.org/2000/svg">
<path d="M86.7836 49.5697H84L84.0677 48.9567H90.3121L90.2444 49.5697H87.4608L86.7062 56.615H86.0411L86.7836 49.5697Z" fill="#222835"/>
<path d="M100.162 54.2085C100.162 52.4365 101.526 50.9602 103.289 50.9602C104.066 50.9602 104.808 51.2678 105.231 51.8235L105.309 51.0913H105.952L105.364 56.615H104.721L104.798 55.9043C104.276 56.4504 103.49 56.7462 102.702 56.7462C101.226 56.7462 100.162 55.7063 100.162 54.2085ZM102.823 56.1666C103.577 56.1666 104.353 55.8375 104.873 55.1935L105.152 52.5247C104.762 51.8784 104.066 51.5397 103.311 51.5397C101.87 51.5397 100.827 52.7108 100.827 54.1537C100.827 55.3891 101.681 56.1666 102.823 56.1666Z" fill="#222835"/>
<path d="M119.307 56.4719L117.299 51.0889H117.986L119.715 55.7707L122.356 51.0889H123.055L118.586 58.9976H117.875L119.307 56.4719Z" fill="#222835"/>
<path d="M133.604 54.1871C133.604 52.415 134.98 50.9602 136.821 50.9602C138.364 50.9602 139.462 52.0334 139.462 53.5193C139.462 55.3032 138.076 56.7462 136.245 56.7462C134.692 56.7462 133.604 55.6849 133.604 54.1871ZM136.279 56.1666C137.711 56.1666 138.797 55.0075 138.797 53.5622C138.797 52.3816 137.986 51.5397 136.789 51.5397C135.348 51.5397 134.272 52.7107 134.272 54.1441C134.269 55.3343 135.07 56.1666 136.279 56.1666Z" fill="#222835"/>
<path d="M164.574 51.0913H165.218L164.63 56.615H163.987L164.574 51.0913ZM165.107 49.002C165.385 49.002 165.605 49.2095 165.605 49.4838C165.605 49.801 165.351 50.0514 165.027 50.0514C164.749 50.0514 164.529 49.8535 164.529 49.5696C164.531 49.2524 164.797 49.002 165.107 49.002Z" fill="#222835"/>
<path d="M178.572 56.4719L176.565 51.0889H177.252L178.981 55.7707L181.622 51.0889H182.321L177.852 58.9976H177.141L178.572 56.4719Z" fill="#222835"/>
<path d="M192.87 54.1871C192.87 52.415 194.246 50.9602 196.086 50.9602C197.629 50.9602 198.727 52.0334 198.727 53.5193C198.727 55.3032 197.342 56.7462 195.511 56.7462C193.958 56.7462 192.87 55.6849 192.87 54.1871ZM195.542 56.1666C196.974 56.1666 198.06 55.0075 198.06 53.5622C198.06 52.3816 197.25 51.5397 196.053 51.5397C194.611 51.5397 193.535 52.7107 193.535 54.1441C193.535 55.3343 194.336 56.1666 195.542 56.1666Z" fill="#222835"/>
<path d="M224.227 48.9567H227.178C228.619 48.9567 229.553 49.7008 229.553 50.9267C229.553 52.3935 228.575 53.2688 227.124 53.4L229.255 56.615H228.457L226.36 53.4214H224.43L224.097 56.615H223.419L224.227 48.9567ZM226.701 52.8085C228.01 52.8085 228.863 52.186 228.863 50.9601C228.863 50.0514 228.22 49.572 227.045 49.572H224.837L224.493 52.8109H226.701V52.8085Z" fill="#222835"/>
<path d="M240.755 54.2085C240.755 52.4365 242.119 50.9602 243.882 50.9602C244.658 50.9602 245.4 51.2678 245.824 51.8235L245.901 51.0913H246.544L245.957 56.615H245.313L245.391 55.9043C244.868 56.4504 244.082 56.7462 243.294 56.7462C241.821 56.7462 240.755 55.7063 240.755 54.2085ZM243.417 56.1666C244.172 56.1666 244.948 55.8375 245.468 55.1935L245.746 52.5247C245.357 51.8784 244.66 51.5397 243.906 51.5397C242.464 51.5397 241.422 52.7108 241.422 54.1537C241.42 55.3891 242.276 56.1666 243.417 56.1666Z" fill="#222835"/>
<path d="M257.971 54.2085C257.971 52.4245 259.335 50.9602 261.111 50.9602C261.899 50.9602 262.629 51.2678 263.04 51.814L263.118 51.0913H263.761L262.917 59H262.274L262.607 55.9043C262.085 56.4504 261.287 56.7462 260.511 56.7462C259.048 56.7462 257.971 55.7063 257.971 54.2085ZM260.632 56.1666C261.386 56.1666 262.163 55.8375 262.682 55.1935L262.961 52.5128C262.583 51.8784 261.875 51.5397 261.13 51.5397C259.688 51.5397 258.634 52.7108 258.634 54.1537C258.636 55.3891 259.502 56.1666 260.632 56.1666Z" fill="#222835"/>
<path d="M275.885 51.0913H276.528L275.94 56.615H275.297L275.885 51.0913ZM276.417 49.002C276.695 49.002 276.915 49.2095 276.915 49.4838C276.915 49.801 276.661 50.0514 276.337 50.0514C276.059 50.0514 275.839 49.8535 275.839 49.5696C275.841 49.2524 276.107 49.002 276.417 49.002Z" fill="#222835"/>
<path d="M288.652 51.0913H289.295L288.707 56.615H288.064L288.652 51.0913ZM289.184 49.002C289.462 49.002 289.682 49.2095 289.682 49.4838C289.682 49.801 289.425 50.0514 289.104 50.0514C288.826 50.0514 288.606 49.8535 288.606 49.5696C288.608 49.2524 288.874 49.002 289.184 49.002Z" fill="#222835"/>
<path d="M300.487 55.859L300.92 55.3891C301.418 55.9043 302.095 56.1762 302.828 56.1762C303.771 56.1762 304.415 55.7278 304.415 55.0504C304.415 54.6569 304.137 54.3612 303.416 54.2085L302.33 53.9557C301.365 53.7363 300.966 53.3094 300.966 52.7084C300.966 51.647 301.953 50.9578 303.174 50.9578C304.028 50.9578 304.816 51.2654 305.293 51.8331L304.85 52.2695C304.417 51.7877 303.851 51.5373 303.131 51.5373C302.277 51.5373 301.612 51.9523 301.612 52.6201C301.612 53.0041 301.866 53.2331 302.62 53.4072L303.696 53.6576C304.649 53.877 305.06 54.3135 305.06 54.9479C305.06 56.0975 304.083 56.7414 302.775 56.7414C301.863 56.7462 301.007 56.429 300.487 55.859Z" fill="#222835"/>
<path d="M86.7836 19.1823H92.9143L92.0292 27.7468H101.018L101.904 19.1823H108.034L105.548 42.6913H99.4199L100.373 33.5233H91.3835L90.4306 42.6913H84.2999L86.7836 19.1823Z" fill="#85BF56"/>
<path d="M111.674 25.295H117.464L115.626 42.6913H109.836L111.674 25.295ZM115.42 17C117.224 17 118.552 18.3093 118.552 20.0552C118.552 22.0037 116.849 23.6494 114.806 23.6494C113.002 23.6494 111.638 22.34 111.638 20.6276C111.64 18.679 113.343 17 115.42 17Z" fill="#85BF56"/>
<path d="M122.334 17.9063H128.124L125.502 42.6913H119.713L122.334 17.9063Z" fill="#85BF56"/>
<path d="M129.553 35.033C129.553 29.5594 133.573 24.892 138.951 24.892C140.552 24.892 142.015 25.3618 143.275 26.3349L143.377 25.2927H149.167L147.329 42.6889H141.539L141.641 41.7492C140.313 42.6555 138.813 43.092 137.212 43.092C132.857 43.0944 129.553 39.7363 129.553 35.033ZM138.782 37.7877C140.042 37.7877 141.2 37.3179 142.221 36.3448L142.697 31.6106C141.914 30.6709 140.826 30.201 139.599 30.201C137.215 30.201 135.445 31.9135 135.445 34.4988C135.445 36.5117 136.772 37.7877 138.782 37.7877Z" fill="#85BF56"/>
<path d="M151.38 35.033C151.38 29.5594 155.399 24.892 160.778 24.892C162.379 24.892 163.842 25.3618 165.102 26.3349L165.203 25.2927H170.993L169.155 42.6889H163.365L163.467 41.7492C162.139 42.6555 160.64 43.092 159.039 43.092C154.683 43.0944 151.38 39.7363 151.38 35.033ZM160.608 37.7877C161.868 37.7877 163.027 37.3179 164.047 36.3448L164.524 31.6106C163.74 30.6709 162.652 30.201 161.426 30.201C159.041 30.201 157.271 31.9135 157.271 34.4988C157.271 36.5117 158.599 37.7877 160.608 37.7877Z" fill="#85BF56"/>
<path d="M175.864 17.9063H181.653L179.032 42.6913H173.242L175.864 17.9063Z" fill="#85BF56"/>
<path d="M185.808 19.1823H193.675L198.374 34.0933L206.208 19.1823H214.278L211.792 42.6913H205.799L207.298 28.4528L200.147 42.0211H195.107L190.817 28.3526L189.317 42.6913H183.322L185.808 19.1823Z" fill="#DB9843"/>
<path d="M216 35.1411C216 29.6675 220.019 25 225.398 25C226.999 25 228.462 25.4698 229.722 26.4429L229.824 25.4007H235.613L233.775 42.7969H227.986L228.087 41.8572C226.76 42.7635 225.26 43.2 223.659 43.2C219.304 43.2024 216 39.8443 216 35.1411ZM225.229 37.8957C226.489 37.8957 227.647 37.4259 228.668 36.4528L229.144 31.7186C228.361 30.7789 227.272 30.309 226.046 30.309C223.662 30.309 221.891 32.0215 221.891 34.6068C221.891 36.6198 223.219 37.8957 225.229 37.8957Z" fill="#DB9843"/>
<path d="M239.746 25.295H245.536L245.367 26.7738C246.627 25.5312 248.228 24.8944 249.795 24.8944C250.339 24.8944 250.953 24.9611 251.599 25.1305L250.951 30.4371C250.339 30.3703 249.826 30.337 249.417 30.337C247.715 30.337 246.08 31.0095 244.786 32.3523L243.695 42.6961H237.906L239.746 25.295Z" fill="#DB9843"/>
<path d="M255.002 17.9063H260.791L259.396 31.0715L265.899 25.295H273.425L265.219 32.7506L271.723 42.6913H264.912L261.031 36.5117L258.578 38.7608L258.17 42.6889H252.38L255.002 17.9063Z" fill="#DB9843"/>
<path d="M272.402 35.2024C272.402 29.2923 276.794 24.892 282.857 24.892C287.657 24.892 291.133 27.7135 291.133 32.4811C291.133 33.354 290.893 34.7659 290.724 35.5363H278.023C278.296 37.3823 279.486 38.3244 281.701 38.3244C283.2 38.3244 284.663 37.8879 286.163 36.5451L290.011 39.5336C287.626 41.952 284.697 43.0944 281.36 43.0944C275.841 43.0944 272.402 39.8698 272.402 35.2024ZM285.512 31.7751C285.239 30.2296 284.117 29.5595 282.448 29.5595C280.576 29.5595 279.316 30.4324 278.634 31.7751H285.512Z" fill="#DB9843"/>
<path d="M295.389 35.8058L295.967 30.3322H292.903L293.447 25.295H296.511L296.92 21.4003H302.71L302.301 25.295H307L306.456 30.3322H301.791L301.28 35.0664C301.077 36.9482 301.554 37.7186 303.256 37.7186C303.871 37.7186 304.686 37.6184 305.573 37.3489L305.948 42.3526C304.756 42.7557 303.189 43.0252 301.624 43.0252C297.227 43.0276 294.877 40.7761 295.389 35.8058Z" fill="#DB9843"/>
<path d="M32.8602 76C29.7366 76 27.1952 73.4743 27.1952 70.3699C27.1952 67.2656 29.7366 64.7398 32.8602 64.7398C35.9838 64.7398 38.5253 67.2656 38.5253 70.3699C38.5277 73.4743 35.9863 76 32.8602 76ZM32.8602 68.502C31.8239 68.502 30.9832 69.3399 30.9832 70.3675C30.9832 71.3975 31.8263 72.233 32.8602 72.233C33.8966 72.233 34.7373 71.3951 34.7373 70.3675C34.7397 69.3399 33.8966 68.502 32.8602 68.502Z" fill="#222835"/>
<path d="M57.8733 76C54.7497 76 52.2083 73.4743 52.2083 70.3699C52.2083 67.2656 54.7497 64.7398 57.8733 64.7398C60.997 64.7398 63.5384 67.2656 63.5384 70.3699C63.5384 73.4743 60.997 76 57.8733 76ZM57.8733 68.502C56.837 68.502 55.9963 69.3399 55.9963 70.3675C55.9963 71.3975 56.8394 72.233 57.8733 72.233C58.9097 72.233 59.7504 71.3951 59.7504 70.3675C59.7504 69.3399 58.9097 68.502 57.8733 68.502Z" fill="#222835"/>
<path d="M72.9285 38.5246C71.9864 38.0732 70.8534 38.467 70.3992 39.4033C65.7415 49.0045 55.8296 55.1843 45.1155 55.1843C45.0624 55.1843 45.0116 55.1843 44.9585 55.1843C29.5844 55.0979 17.0778 42.4092 17.0778 26.9019V24.501C17.0778 20.4748 14.5171 16.8566 10.7026 15.4953L2.53478 12.5806C1.55155 12.2301 0.466859 12.7367 0.111738 13.7163C-0.240968 14.6958 0.268765 15.7714 1.25441 16.1243L9.4222 19.039C9.51158 19.0702 9.59614 19.1086 9.68311 19.1423V19.1399C9.68311 19.1399 13.3575 20.0426 15.9932 25.591C15.9932 25.591 14.8505 23.5263 12.5845 21.7496C13.0362 22.5779 13.2899 23.5191 13.2899 24.501V26.9019C13.2899 44.474 27.4875 58.8505 44.9367 58.9489C44.9971 58.9489 45.0551 58.9489 45.1155 58.9489C57.2742 58.9489 68.5245 51.9335 73.8103 41.0383C74.2669 40.102 73.8707 38.976 72.9285 38.5246Z" fill="#222835"/>
<path d="M64.8863 67.5897C64.6858 67.5897 64.4805 67.5585 64.2776 67.4889C64.193 67.4601 55.5276 64.5982 44.5188 64.5982C33.5414 64.5982 26.6468 67.4145 26.5767 67.4433C25.6128 67.8442 24.5016 67.3928 24.0981 66.4349C23.6947 65.4769 24.1488 64.3725 25.1152 63.9716C25.422 63.8443 32.7901 60.836 44.5188 60.836C56.1798 60.836 65.1183 63.7987 65.4927 63.926C66.4832 64.2597 67.0147 65.3281 66.6789 66.3124C66.4131 67.0951 65.6763 67.5897 64.8863 67.5897Z" fill="#222835"/>
<path d="M62.1276 27.5118C58.4049 24.8612 53.7134 23.7496 49.1355 23.8816C44.5575 24.0137 40.0303 25.2189 35.8873 27.1564C42.0403 24.2778 48.7393 22.2922 55.5518 22.5755C59.6514 22.746 63.7896 23.8552 67.3191 25.896C66.8601 25.0917 66.3166 24.3234 65.6764 23.6127C65.5532 23.4759 65.4251 23.339 65.2971 23.207C62.0116 19.8457 57.2549 18.0931 52.5224 17.8698C47.7899 17.6417 43.0742 18.8446 38.7331 20.71C35.7012 22.0065 32.7322 23.6535 29.4468 24.0041C26.1637 24.357 22.6584 22.9453 21.5616 19.8745C20.4214 22.9573 19.8778 26.3329 20.0735 29.8478C20.791 42.767 31.5751 53.0572 44.5914 53.278C54.8198 53.4509 63.6713 47.5207 67.7032 38.9064C67.9859 38.3037 68.2226 37.6843 68.4207 37.0577C67.7057 33.2523 65.3164 29.783 62.1276 27.5118Z" fill="url(#paint0_linear_1389_7661)"/>
<path opacity="0.3" d="M62.1276 27.5117C58.4049 24.8611 53.7134 23.7495 49.1355 23.8816C47.8793 23.9176 46.6279 24.0376 45.3862 24.2273C44.8354 24.5106 44.3305 24.8659 43.9318 25.3341C43.2361 26.1504 42.9172 27.3485 43.3666 28.3208C43.8352 29.3364 45.0093 29.867 46.1302 29.9486C47.2511 30.0302 48.3624 29.7541 49.4737 29.5861C50.5849 29.418 51.7735 29.37 52.7785 29.8694C54.4816 30.7193 55.0976 32.8417 55.1411 34.736C55.1943 37.1009 54.5927 39.5401 53.1046 41.3864C51.6165 43.2303 49.1572 44.3755 46.8139 43.9578C44.6179 43.5664 42.8834 41.9602 41.1005 40.6302C39.2307 39.2352 37.0734 38.054 34.7373 37.97C32.4013 37.8835 29.8937 39.168 29.1859 41.3816C28.8259 42.51 28.8283 43.953 27.7919 44.5412C27.2677 44.8389 26.6275 44.7933 26.055 44.5724C30.5701 49.8015 37.2208 53.1556 44.5914 53.2804C54.8198 53.4533 63.6713 47.5231 67.7032 38.9087C67.9859 38.3061 68.2226 37.6867 68.4207 37.06C67.7057 33.2522 65.3164 29.783 62.1276 27.5117Z" fill="url(#paint1_linear_1389_7661)"/>
<path d="M63.8162 13.9924C63.4079 12.4222 62.8305 10.84 61.7144 9.65636C60.2915 8.1486 58.1053 7.47875 56.0325 7.63961C53.9598 7.80047 51.9981 8.72482 50.3554 9.99249C48.1715 9.14258 45.5262 9.93726 43.8931 11.6083C42.2577 13.2793 41.7552 15.9515 42.6732 18.0955C45.8161 16.5301 50.1549 16.1507 54.4912 16.763C58.4362 17.32 61.6637 18.8518 64.6762 21.4399C64.7366 18.9358 64.4443 16.4221 63.8162 13.9924ZM60.6322 10.6719C59.8954 9.90605 58.9315 9.37065 57.9047 9.08495C56.878 8.79924 55.8707 8.76083 54.8149 8.90248C56.4311 8.26144 58.3517 8.43191 59.8277 9.34665C61.3038 10.2614 62.3039 11.8988 62.4368 13.625C61.9367 12.535 61.4632 11.5362 60.6322 10.6719Z" fill="url(#paint2_linear_1389_7661)"/>
<path d="M50.5052 9.27225C50.0776 5.24597 51.3387 3.14999 53.4766 1.5678C52.8316 1.39974 52.1431 1.37574 51.4909 1.51019C50.5825 2.54737 49.9544 3.87265 49.7008 5.22435C49.4471 6.57604 49.5655 7.99497 50.039 9.28904C50.1718 9.27464 50.3748 9.28665 50.5052 9.27225Z" fill="url(#paint3_linear_1389_7661)"/>
<path opacity="0.3" d="M60.0306 14.9623C58.9073 14.3525 57.9386 13.481 56.7983 12.9024C55.658 12.3238 54.2134 12.0765 53.1287 12.7535C52.5248 13.1305 52.1141 13.7379 51.6817 14.3021C51.2468 14.8639 50.7347 15.4233 50.0486 15.6154C49.3625 15.8098 48.4856 15.4785 48.3334 14.7847C48.1715 14.038 48.8745 13.3729 48.9566 12.6143C49.0388 11.8604 48.4517 11.1449 47.7318 10.8904C47.0119 10.6359 46.205 10.7656 45.4948 11.0441C44.8933 11.2794 44.3401 11.6275 43.8569 12.0548C43.3737 12.4846 42.9679 12.996 42.649 13.5578C42.0837 15.0031 42.0596 16.6669 42.6732 18.0979C45.8161 16.5325 50.1549 16.1532 54.4912 16.7654C58.4362 17.3224 61.6637 18.8542 64.6762 21.4423C64.7269 19.3103 64.5216 17.1759 64.0747 15.0896C63.9539 15.1736 63.8331 15.2504 63.705 15.3177C62.5624 15.9011 61.154 15.5721 60.0306 14.9623Z" fill="url(#paint4_linear_1389_7661)"/>
<path d="M33.3868 7.57956C32.4495 6.612 31.4735 5.64206 30.3985 4.82816C29.3259 4.01426 28.1059 3.354 26.782 3.09231C27.0985 2.39845 27.7459 1.91347 28.4924 1.74061C29.7776 2.37204 30.9348 3.21475 32.0074 4.1583C32.3649 5.31072 32.7925 6.52797 33.3868 7.57956Z" fill="url(#paint5_linear_1389_7661)"/>
<path d="M33.5414 7.48114C32.894 6.46317 32.4495 5.16909 32.2031 3.99026C31.9567 2.81143 31.8552 1.60857 31.7513 0.40813C32.2852 0.177645 32.8505 0.0119815 33.4327 -2.28882e-05C33.1501 1.1476 33.2153 2.34085 33.4279 3.50287C33.6405 4.6649 34.0149 5.79092 34.3894 6.91213C34.3894 6.91693 33.8338 7.20984 33.5414 7.48114Z" fill="url(#paint6_linear_1389_7661)"/>
<path d="M42.5958 10.1389C41.975 10.2374 41.3662 10.4054 40.7864 10.6479C41.272 10.2302 41.8325 9.90603 42.4316 9.68035C42.2673 9.21698 42.1006 8.75602 41.9412 8.28064C41.7213 7.6252 41.4822 6.94334 40.9797 6.46796C40.5303 6.04301 39.9071 5.83174 39.2862 5.78852C38.6678 5.74531 38.0469 5.86054 37.4454 6.019C35.5538 6.51838 33.7855 7.45953 32.3191 8.7488C31.5992 9.38023 30.93 10.1389 30.7174 11.0681C30.5555 11.7787 30.6763 12.5278 30.9348 13.2096C31.0967 13.637 31.3117 14.0428 31.5436 14.4389C32.4302 13.6298 33.5221 13.0464 34.6914 12.7655C33.5439 13.2625 32.609 14.206 32.0896 15.3344C32.9013 16.6333 33.713 17.8866 34.5247 19.1566C35.6335 18.2971 36.9187 17.6633 38.2812 17.3152C37.5372 17.7161 36.7859 18.1219 36.1384 18.6621C35.7012 19.027 35.3122 19.4639 35.0344 19.9585C35.2446 20.2899 35.4548 20.6212 35.6649 20.9597C37.3802 19.8961 39.2355 19.0246 41.2261 18.5732C40.5545 16.0283 41.2237 13.1736 42.9582 11.1881C42.8423 10.8352 42.7191 10.4871 42.5958 10.1389Z" fill="url(#paint7_linear_1389_7661)"/>
<path d="M42.5958 10.1389C41.975 10.2373 41.3662 10.4054 40.7864 10.6479C41.272 10.2301 41.8324 9.90601 42.434 9.68032C42.2697 9.21695 42.103 8.75599 41.9436 8.28062C41.9339 8.25181 41.9218 8.2206 41.9121 8.18938C41.1802 7.98531 40.2742 8.01652 39.6582 8.18938C38.6895 8.45828 37.8343 9.20735 37.5855 10.1749C37.3366 11.1425 37.7932 12.2829 38.7064 12.7006C39.0808 12.8711 39.5278 12.9335 39.8032 13.236C40.1704 13.6394 40.0496 14.3188 39.6751 14.7174C39.3007 15.1159 38.7523 15.2936 38.2184 15.4208C37.6845 15.5481 37.1313 15.6417 36.6626 15.925C36.194 16.2083 35.8268 16.7389 35.9282 17.2743C35.9838 17.5672 36.1626 17.8025 36.3872 18.0066C36.9936 17.7161 37.6265 17.4808 38.2812 17.3151C37.7377 17.6081 37.1941 17.9034 36.6868 18.2515C36.7665 18.3115 36.8486 18.3691 36.9284 18.4244C37.3584 18.7197 37.8222 19.0798 37.8899 19.596C37.8971 19.644 37.8971 19.6944 37.8995 19.7448C38.9625 19.2455 40.0713 18.8397 41.2261 18.578C40.5545 16.0331 41.2236 13.1784 42.9582 11.1929C42.8422 10.8352 42.719 10.487 42.5958 10.1389Z" fill="url(#paint8_linear_1389_7661)"/>
<path d="M57.8733 66.7182C55.8464 66.7182 54.1989 68.3556 54.1989 70.37C54.1989 72.3843 55.8464 74.0217 57.8733 74.0217C59.9001 74.0217 61.5477 72.3843 61.5477 70.37C61.5477 68.3556 59.9001 66.7182 57.8733 66.7182ZM57.8733 72.2354C56.8369 72.2354 55.9962 71.3975 55.9962 70.37C55.9962 69.34 56.8393 68.5045 57.8733 68.5045C58.9097 68.5045 59.7503 69.3424 59.7503 70.37C59.7503 71.3975 58.9097 72.2354 57.8733 72.2354Z" fill="#85BF56"/>
<path d="M32.8602 66.7182C30.8334 66.7182 29.1858 68.3556 29.1858 70.37C29.1858 72.3843 30.8334 74.0217 32.8602 74.0217C34.8871 74.0217 36.5346 72.3843 36.5346 70.37C36.5346 68.3556 34.8871 66.7182 32.8602 66.7182ZM32.8602 72.2354C31.8238 72.2354 30.9831 71.3975 30.9831 70.37C30.9831 69.34 31.8263 68.5045 32.8602 68.5045C33.8966 68.5045 34.7373 69.3424 34.7373 70.37C34.7397 71.3975 33.8966 72.2354 32.8602 72.2354Z" fill="#85BF56"/>
<defs>
<linearGradient id="paint0_linear_1389_7661" x1="39.3496" y1="15.7663" x2="49.0867" y2="46.209" gradientUnits="userSpaceOnUse">
<stop stop-color="#B9DE60"/>
<stop offset="1" stop-color="#6AA632"/>
</linearGradient>
<linearGradient id="paint1_linear_1389_7661" x1="17.112" y1="31.5239" x2="67.7216" y2="43.4592" gradientUnits="userSpaceOnUse">
<stop stop-color="white"/>
<stop offset="1" stop-color="white" stop-opacity="0"/>
</linearGradient>
<linearGradient id="paint2_linear_1389_7661" x1="58.012" y1="-0.32936" x2="53.9712" y2="16.3276" gradientUnits="userSpaceOnUse">
<stop stop-color="#DE3030"/>
<stop offset="1" stop-color="#A52A2A"/>
</linearGradient>
<linearGradient id="paint3_linear_1389_7661" x1="50.6088" y1="-0.341736" x2="52.416" y2="9.26396" gradientUnits="userSpaceOnUse">
<stop stop-color="#B9DE60"/>
<stop offset="1" stop-color="#6AA632"/>
</linearGradient>
<linearGradient id="paint4_linear_1389_7661" x1="54.6072" y1="9.34747" x2="53.8004" y2="15.7518" gradientUnits="userSpaceOnUse">
<stop stop-color="white"/>
<stop offset="1" stop-color="white" stop-opacity="0"/>
</linearGradient>
<linearGradient id="paint5_linear_1389_7661" x1="29.0378" y1="-0.162765" x2="30.6503" y2="8.40796" gradientUnits="userSpaceOnUse">
<stop stop-color="#B9DE60"/>
<stop offset="1" stop-color="#6AA632"/>
</linearGradient>
<linearGradient id="paint6_linear_1389_7661" x1="32.0934" y1="-1.80347" x2="33.8938" y2="7.76554" gradientUnits="userSpaceOnUse">
<stop stop-color="#B9DE60"/>
<stop offset="1" stop-color="#6AA632"/>
</linearGradient>
<linearGradient id="paint7_linear_1389_7661" x1="31.8174" y1="7.06462" x2="41.0366" y2="16.6049" gradientUnits="userSpaceOnUse">
<stop stop-color="#FDBA52"/>
<stop offset="1" stop-color="#D49B0B"/>
</linearGradient>
<linearGradient id="paint8_linear_1389_7661" x1="24.5663" y1="8.84819" x2="41.0308" y2="14.411" gradientUnits="userSpaceOnUse">
<stop stop-color="white"/>
<stop offset="1" stop-color="white" stop-opacity="0"/>
</linearGradient>
</defs>
</svg>
