<svg width="65" height="32" viewBox="0 0 65 32" fill="none" xmlns="http://www.w3.org/2000/svg">
<rect x="0.5" y="0.5" width="64" height="31" rx="4.79412" fill="#1A1A1A" stroke="#333333"/>
<g clip-path="url(#clip0_842_3351)">
<rect width="11" height="11" transform="translate(5 4)" fill="#1A1A1A"/>
<path d="M13.7083 9.04199H7.29167C6.78541 9.04199 6.375 9.4524 6.375 9.95866V13.167C6.375 13.6733 6.78541 14.0837 7.29167 14.0837H13.7083C14.2146 14.0837 14.625 13.6733 14.625 13.167V9.95866C14.625 9.4524 14.2146 9.04199 13.7083 9.04199Z" stroke="white" stroke-width="0.916667" stroke-linecap="round" stroke-linejoin="round"/>
<path d="M8.20837 9.04199V7.20866C8.20837 6.60087 8.44982 6.01798 8.87959 5.58821C9.30936 5.15843 9.89225 4.91699 10.5 4.91699C11.1078 4.91699 11.6907 5.15843 12.1205 5.58821C12.5503 6.01798 12.7917 6.60087 12.7917 7.20866V9.04199" stroke="white" stroke-width="0.916667" stroke-linecap="round" stroke-linejoin="round"/>
</g>
<path d="M23.709 10.987C23.709 11.3537 23.621 11.6947 23.445 12.01C23.269 12.3253 23.0013 12.582 22.642 12.78C22.2827 12.978 21.839 13.077 21.311 13.077C20.7977 13.077 20.3393 12.9853 19.936 12.802C19.54 12.6113 19.221 12.3547 18.979 12.032C18.7443 11.702 18.6087 11.328 18.572 10.91H19.639C19.661 11.13 19.7343 11.3463 19.859 11.559C19.991 11.7643 20.1743 11.9367 20.409 12.076C20.651 12.208 20.9407 12.274 21.278 12.274C21.718 12.274 22.0553 12.1567 22.29 11.922C22.5247 11.6873 22.642 11.3867 22.642 11.02C22.642 10.7047 22.5577 10.448 22.389 10.25C22.2277 10.052 22.026 9.898 21.784 9.788C21.542 9.67067 21.212 9.546 20.794 9.414C20.3027 9.25267 19.9067 9.10233 19.606 8.963C19.3127 8.81633 19.0597 8.6 18.847 8.314C18.6417 8.028 18.539 7.65033 18.539 7.181C18.539 6.77767 18.6343 6.422 18.825 6.114C19.023 5.806 19.3017 5.56767 19.661 5.399C20.0277 5.23033 20.4567 5.146 20.948 5.146C21.7107 5.146 22.3157 5.333 22.763 5.707C23.2103 6.07367 23.4707 6.543 23.544 7.115H22.466C22.4073 6.807 22.2497 6.53567 21.993 6.301C21.7363 6.06633 21.388 5.949 20.948 5.949C20.5447 5.949 20.222 6.05533 19.98 6.268C19.738 6.47333 19.617 6.76667 19.617 7.148C19.617 7.44867 19.694 7.69433 19.848 7.885C20.0093 8.06833 20.2073 8.215 20.442 8.325C20.6767 8.42767 20.9993 8.545 21.41 8.677C21.9087 8.83833 22.3083 8.99233 22.609 9.139C22.917 9.28567 23.1773 9.50933 23.39 9.81C23.6027 10.1033 23.709 10.4957 23.709 10.987ZM30.61 9.645C30.61 9.85767 30.5953 10.041 30.566 10.195H25.737C25.759 10.8843 25.9533 11.4013 26.32 11.746C26.694 12.0907 27.1486 12.263 27.684 12.263C28.168 12.263 28.5713 12.142 28.894 11.9C29.224 11.6507 29.4256 11.3207 29.499 10.91H30.566C30.4926 11.328 30.3276 11.702 30.071 12.032C29.8216 12.362 29.4953 12.6187 29.092 12.802C28.6886 12.9853 28.234 13.077 27.728 13.077C27.1486 13.077 26.6353 12.9523 26.188 12.703C25.7406 12.4537 25.3886 12.098 25.132 11.636C24.8826 11.1667 24.758 10.6167 24.758 9.986C24.758 9.35533 24.8826 8.80533 25.132 8.336C25.3886 7.86667 25.7406 7.50733 26.188 7.258C26.6353 7.00867 27.1486 6.884 27.728 6.884C28.3146 6.884 28.8243 7.00867 29.257 7.258C29.697 7.50733 30.0306 7.841 30.258 8.259C30.4926 8.677 30.61 9.139 30.61 9.645ZM29.598 9.711C29.62 9.26367 29.5466 8.88967 29.378 8.589C29.2093 8.28833 28.9783 8.06467 28.685 7.918C28.3916 7.77133 28.0726 7.698 27.728 7.698C27.178 7.698 26.716 7.87033 26.342 8.215C25.968 8.55233 25.7663 9.051 25.737 9.711H29.598ZM34.5922 6.884C35.3622 6.884 36.0002 7.08933 36.5062 7.5C37.0122 7.91067 37.3239 8.46067 37.4412 9.15H36.3852C36.3119 8.71733 36.1102 8.38 35.7802 8.138C35.4575 7.88867 35.0542 7.764 34.5702 7.764C34.2182 7.764 33.8955 7.84467 33.6022 8.006C33.3162 8.16733 33.0852 8.41667 32.9092 8.754C32.7332 9.084 32.6452 9.49467 32.6452 9.986C32.6452 10.4773 32.7332 10.8917 32.9092 11.229C33.0852 11.559 33.3162 11.8047 33.6022 11.966C33.8955 12.1273 34.2182 12.208 34.5702 12.208C35.0542 12.208 35.4575 12.0833 35.7802 11.834C36.1102 11.5847 36.3119 11.2437 36.3852 10.811H37.4412C37.3239 11.5077 37.0122 12.0613 36.5062 12.472C36.0002 12.8753 35.3622 13.077 34.5922 13.077C34.0129 13.077 33.4995 12.9523 33.0522 12.703C32.6049 12.4537 32.2529 12.098 31.9962 11.636C31.7469 11.1667 31.6222 10.6167 31.6222 9.986C31.6222 9.35533 31.7469 8.80533 31.9962 8.336C32.2529 7.86667 32.6049 7.50733 33.0522 7.258C33.4995 7.00867 34.0129 6.884 34.5922 6.884ZM44.1192 6.961V13H43.1182V11.581C42.9642 12.0723 42.6892 12.45 42.2932 12.714C41.9046 12.9707 41.4499 13.099 40.9292 13.099C40.2326 13.099 39.6679 12.8753 39.2352 12.428C38.8026 11.9733 38.5862 11.3243 38.5862 10.481V6.961H39.5872V10.382C39.5872 10.9833 39.7412 11.449 40.0492 11.779C40.3572 12.1017 40.7752 12.263 41.3032 12.263C41.8532 12.263 42.2932 12.087 42.6232 11.735C42.9532 11.3757 43.1182 10.855 43.1182 10.173V6.961H44.1192ZM46.7239 8.182C46.9219 7.764 47.2116 7.44133 47.5929 7.214C47.9743 6.97933 48.4289 6.862 48.9569 6.862V7.951H48.6489C48.0843 7.951 47.6223 8.09767 47.2629 8.391C46.9036 8.677 46.7239 9.15367 46.7239 9.821V13H45.7229V6.961H46.7239V8.182ZM55.4996 9.645C55.4996 9.85767 55.4849 10.041 55.4556 10.195H50.6266C50.6486 10.8843 50.8429 11.4013 51.2096 11.746C51.5836 12.0907 52.0383 12.263 52.5736 12.263C53.0576 12.263 53.4609 12.142 53.7836 11.9C54.1136 11.6507 54.3153 11.3207 54.3886 10.91H55.4556C55.3823 11.328 55.2173 11.702 54.9606 12.032C54.7113 12.362 54.3849 12.6187 53.9816 12.802C53.5783 12.9853 53.1236 13.077 52.6176 13.077C52.0383 13.077 51.5249 12.9523 51.0776 12.703C50.6303 12.4537 50.2783 12.098 50.0216 11.636C49.7723 11.1667 49.6476 10.6167 49.6476 9.986C49.6476 9.35533 49.7723 8.80533 50.0216 8.336C50.2783 7.86667 50.6303 7.50733 51.0776 7.258C51.5249 7.00867 52.0383 6.884 52.6176 6.884C53.2043 6.884 53.7139 7.00867 54.1466 7.258C54.5866 7.50733 54.9203 7.841 55.1476 8.259C55.3823 8.677 55.4996 9.139 55.4996 9.645ZM54.4876 9.711C54.5096 9.26367 54.4363 8.88967 54.2676 8.589C54.0989 8.28833 53.8679 8.06467 53.5746 7.918C53.2813 7.77133 52.9623 7.698 52.6176 7.698C52.0676 7.698 51.6056 7.87033 51.2316 8.215C50.8576 8.55233 50.6559 9.051 50.6266 9.711H54.4876Z" fill="white"/>
<path d="M7.28031 22.856V26H5.58831V17.528H8.67231C9.67231 17.528 10.4243 17.768 10.9283 18.248C11.4403 18.728 11.6963 19.38 11.6963 20.204C11.6963 21.012 11.4323 21.656 10.9043 22.136C10.3843 22.616 9.64031 22.856 8.67231 22.856H7.28031ZM8.49231 21.5C9.48431 21.5 9.98031 21.068 9.98031 20.204C9.98031 19.78 9.86431 19.456 9.63231 19.232C9.40031 19.008 9.02031 18.896 8.49231 18.896H7.28031V21.5H8.49231ZM15.3993 19.268C15.9593 19.268 16.4393 19.4 16.8393 19.664C17.2393 19.928 17.5233 20.284 17.6913 20.732V19.352H19.3713V26H17.6913V24.608C17.5233 25.056 17.2393 25.416 16.8393 25.688C16.4393 25.952 15.9593 26.084 15.3993 26.084C14.8393 26.084 14.3353 25.948 13.8873 25.676C13.4393 25.404 13.0873 25.012 12.8313 24.5C12.5833 23.98 12.4593 23.372 12.4593 22.676C12.4593 21.98 12.5833 21.376 12.8313 20.864C13.0873 20.344 13.4393 19.948 13.8873 19.676C14.3353 19.404 14.8393 19.268 15.3993 19.268ZM15.9273 20.744C15.3993 20.744 14.9753 20.916 14.6553 21.26C14.3353 21.604 14.1753 22.076 14.1753 22.676C14.1753 23.276 14.3353 23.748 14.6553 24.092C14.9753 24.428 15.3993 24.596 15.9273 24.596C16.4393 24.596 16.8593 24.424 17.1873 24.08C17.5233 23.728 17.6913 23.26 17.6913 22.676C17.6913 22.084 17.5233 21.616 17.1873 21.272C16.8593 20.92 16.4393 20.744 15.9273 20.744ZM22.0447 19.352L23.8567 23.864L25.5367 19.352H27.3967L23.3287 29.168H21.4567L22.9567 25.808L20.1607 19.352H22.0447ZM36.6538 19.256C37.4618 19.256 38.0978 19.508 38.5618 20.012C39.0338 20.508 39.2698 21.216 39.2698 22.136V26H37.5898V22.328C37.5898 21.816 37.4578 21.424 37.1938 21.152C36.9378 20.872 36.5818 20.732 36.1258 20.732C35.6538 20.732 35.2778 20.88 34.9978 21.176C34.7178 21.472 34.5778 21.904 34.5778 22.472V26H32.8978V22.328C32.8978 21.816 32.7658 21.424 32.5018 21.152C32.2458 20.872 31.8898 20.732 31.4338 20.732C30.9618 20.732 30.5858 20.88 30.3058 21.176C30.0258 21.472 29.8858 21.904 29.8858 22.472V26H28.1938V19.352H29.8858V20.612C30.0618 20.18 30.3378 19.848 30.7138 19.616C31.0978 19.376 31.5418 19.256 32.0458 19.256C32.5818 19.256 33.0458 19.384 33.4378 19.64C33.8378 19.896 34.1378 20.264 34.3378 20.744C34.5458 20.288 34.8538 19.928 35.2618 19.664C35.6778 19.392 36.1418 19.256 36.6538 19.256ZM47.0083 22.424C47.0083 22.592 46.9883 22.784 46.9483 23H42.0763C42.1003 23.592 42.2603 24.028 42.5563 24.308C42.8523 24.588 43.2203 24.728 43.6603 24.728C44.0523 24.728 44.3763 24.632 44.6323 24.44C44.8963 24.248 45.0643 23.988 45.1363 23.66H46.9243C46.8363 24.124 46.6483 24.54 46.3603 24.908C46.0723 25.276 45.7003 25.564 45.2443 25.772C44.7963 25.98 44.2963 26.084 43.7443 26.084C43.0963 26.084 42.5203 25.948 42.0163 25.676C41.5123 25.396 41.1203 25 40.8403 24.488C40.5603 23.976 40.4203 23.372 40.4203 22.676C40.4203 21.98 40.5603 21.376 40.8403 20.864C41.1203 20.344 41.5123 19.948 42.0163 19.676C42.5203 19.404 43.0963 19.268 43.7443 19.268C44.4003 19.268 44.9723 19.404 45.4603 19.676C45.9563 19.948 46.3363 20.324 46.6003 20.804C46.8723 21.276 47.0083 21.816 47.0083 22.424ZM45.3043 22.256C45.3283 21.712 45.1843 21.3 44.8723 21.02C44.5683 20.74 44.1923 20.6 43.7443 20.6C43.2883 20.6 42.9043 20.74 42.5923 21.02C42.2803 21.3 42.1083 21.712 42.0763 22.256H45.3043ZM52.1694 19.256C52.9374 19.256 53.5494 19.508 54.0054 20.012C54.4614 20.516 54.6894 21.224 54.6894 22.136V26H53.0094V22.328C53.0094 21.8 52.8734 21.392 52.6014 21.104C52.3294 20.808 51.9574 20.66 51.4854 20.66C51.0054 20.66 50.6214 20.816 50.3334 21.128C50.0454 21.44 49.9014 21.888 49.9014 22.472V26H48.2094V19.352H49.9014V20.684C50.0774 20.236 50.3654 19.888 50.7654 19.64C51.1734 19.384 51.6414 19.256 52.1694 19.256ZM59.7302 24.548V26H58.8422C58.0982 26 57.5262 25.82 57.1262 25.46C56.7342 25.1 56.5382 24.5 56.5382 23.66V20.78H55.6142V19.352H56.5382V17.708H58.2302V19.352H59.7182V20.78H58.2302V23.684C58.2302 24.004 58.2942 24.228 58.4222 24.356C58.5502 24.484 58.7662 24.548 59.0702 24.548H59.7302Z" fill="white"/>
<defs>
<clipPath id="clip0_842_3351">
<rect width="11" height="11" fill="white" transform="translate(5 4)"/>
</clipPath>
</defs>
</svg>
