<svg width="40" height="40" viewBox="0 0 40 40" fill="none" xmlns="http://www.w3.org/2000/svg">
<rect width="40" height="40" rx="8" fill="#48660E"/>
<path d="M18.5 30H14.5909C13.0455 30 11.8163 29.248 10.7127 28.1966C8.45337 26.0441 12.1628 24.324 13.5776 23.4816C16.1281 21.9629 19.2057 21.6118 22 22.4281" stroke="white" stroke-width="2" stroke-linecap="round" stroke-linejoin="round"/>
<path d="M24.5 14.5C24.5 16.9853 22.4853 19 20 19C17.5147 19 15.5 16.9853 15.5 14.5C15.5 12.0147 17.5147 10 20 10C22.4853 10 24.5 12.0147 24.5 14.5Z" stroke="white" stroke-width="2"/>
<path d="M26.4332 21.8485C26.7685 21.4851 26.9362 21.3035 27.1143 21.1975C27.5442 20.9418 28.0736 20.9339 28.5107 21.1765C28.6918 21.2771 28.8646 21.4537 29.2103 21.8067C29.5559 22.1598 29.7287 22.3364 29.8272 22.5214C30.0647 22.9679 30.0569 23.5087 29.8066 23.9478C29.7029 24.1298 29.5251 24.3011 29.1694 24.6437L24.9378 28.7194C24.2638 29.3686 23.9268 29.6932 23.5056 29.8577C23.0845 30.0222 22.6214 30.0101 21.6954 29.9859L21.5694 29.9826C21.2875 29.9752 21.1466 29.9715 21.0646 29.8785C20.9827 29.7855 20.9939 29.6419 21.0162 29.3548L21.0284 29.1988C21.0914 28.3906 21.1228 27.9865 21.2807 27.6232C21.4385 27.2599 21.7107 26.965 22.2552 26.375L26.4332 21.8485Z" stroke="white" stroke-width="2" stroke-linejoin="round"/>
</svg>
