<svg width="246" height="246" viewBox="0 0 246 246" fill="none" xmlns="http://www.w3.org/2000/svg">
<g clip-path="url(#clip0_896_2209)">
<mask id="mask0_896_2209" style="mask-type:luminance" maskUnits="userSpaceOnUse" x="0" y="0" width="246" height="246">
<path d="M246 0H0V246H246V0Z" fill="white"/>
</mask>
<g mask="url(#mask0_896_2209)">
<path d="M40.7208 94.7122C40.6309 94.7122 40.5315 94.7169 40.4415 94.7027C39.14 94.5513 38.2124 93.3775 38.3639 92.0808C43.1913 50.3471 78.5641 18.8788 120.634 18.8788H125.367C167.375 18.8788 202.743 50.2998 207.627 91.9624C207.778 93.2545 206.846 94.4282 205.549 94.5844C204.262 94.7501 203.079 93.813 202.927 92.5114C198.322 53.2294 164.975 23.6116 125.367 23.6116H120.634C80.9636 23.6116 47.6164 53.2767 43.0635 92.625C42.9263 93.8272 41.904 94.7122 40.7208 94.7122Z" fill="#6AA632"/>
<path d="M113.535 40.1764H132.466C163.286 40.1764 190.026 57.522 203.543 82.9702C195.085 47.5832 163.338 21.2452 125.367 21.2452H120.634C82.663 21.2452 50.9155 47.5832 42.458 82.9702C55.9748 57.522 82.715 40.1764 113.535 40.1764Z" fill="#B9DE60"/>
<path d="M203.548 85.3318C202.691 85.3318 201.877 84.8633 201.456 84.0729C187.849 58.4544 161.416 42.5427 132.471 42.5427H113.54C84.5938 42.5427 58.1565 58.4544 44.5498 84.0729C43.9913 85.1236 42.7277 85.5921 41.6249 85.1756C40.508 84.7591 39.8785 83.5712 40.1578 82.4117C49.098 45.0085 82.1896 18.8788 120.634 18.8788H125.371C163.603 18.8788 196.538 44.7151 205.696 81.7917C205.895 82.1325 206.009 82.5347 206.009 82.9654C206.009 84.2764 204.83 85.1709 203.604 85.3318H203.548ZM113.535 37.81H132.471C156.764 37.81 179.387 48.3735 194.924 66.2492C181.876 40.4651 155.349 23.6116 125.371 23.6116H120.634C90.6565 23.6116 64.1293 40.4651 51.081 66.2492C66.6187 48.3735 89.2414 37.81 113.535 37.81Z" fill="#6AA632"/>
<path d="M73.2062 44.9849C72.5153 44.9849 71.8243 44.682 71.3605 44.0998C70.5417 43.0823 70.7026 41.5915 71.7201 40.768C85.4831 29.7027 102.857 23.6116 120.638 23.6116H125.371C136.484 23.6116 147.222 25.8881 157.279 30.3795C158.472 30.9143 159.007 32.3105 158.477 33.5079C157.942 34.6958 156.546 35.2448 155.348 34.7053C145.902 30.4884 135.816 28.3444 125.371 28.3444H120.638C103.931 28.3444 87.6081 34.0663 74.6876 44.4595C74.2522 44.8098 73.7268 44.9849 73.2062 44.9849Z" fill="white"/>
<path d="M40.1762 163.229H44.909V106.435H40.1762C29.7215 106.435 21.2451 114.912 21.2451 125.366V144.298C21.2451 154.752 29.7215 163.229 40.1762 163.229Z" fill="#DB9843"/>
<path d="M35.7276 165.065C35.543 165.065 35.3584 165.051 35.1691 165.003C25.5805 162.694 18.8789 154.175 18.8789 144.298V125.366C18.8789 115.735 25.3723 107.268 34.6722 104.793C35.9216 104.448 37.2326 105.195 37.5687 106.459C37.9047 107.723 37.1569 109.019 35.8933 109.355C28.6616 111.286 23.6117 117.87 23.6117 125.366V144.298C23.6117 151.979 28.8225 158.605 36.2813 160.403C37.5497 160.706 38.3306 161.984 38.023 163.252C37.7627 164.336 36.7972 165.065 35.7276 165.065Z" fill="#6AA632"/>
<path d="M25.9777 146.664C24.6715 146.664 23.6113 145.604 23.6113 144.298V125.366C23.6113 118.21 28.1785 111.887 34.9747 109.639C36.2147 109.237 37.5588 109.9 37.9659 111.14C38.3776 112.38 37.7056 113.719 36.4656 114.131C31.605 115.74 28.3441 120.255 28.3441 125.366V144.298C28.3441 145.604 27.284 146.664 25.9777 146.664Z" fill="#E8EAF6"/>
<path d="M56.7411 172.694H52.0084C48.0849 172.694 44.9092 169.514 44.9092 165.595V104.069C44.9092 100.15 48.0849 96.9697 52.0084 96.9697H56.7411C60.6646 96.9697 63.8403 100.15 63.8403 104.069V165.595C63.8403 169.514 60.6646 172.694 56.7411 172.694Z" fill="#B9DE60"/>
<path d="M56.7413 175.061H52.0085C46.7883 175.061 42.543 170.82 42.543 165.595V104.069C42.543 98.8439 46.7883 94.6033 52.0085 94.6033H56.7413C61.9616 94.6033 66.2069 98.8439 66.2069 104.069V165.595C66.2069 170.82 61.9616 175.061 56.7413 175.061ZM52.0085 99.3361C49.4008 99.3361 47.2757 101.461 47.2757 104.069V165.595C47.2757 168.203 49.4008 170.328 52.0085 170.328H56.7413C59.3491 170.328 61.4741 168.203 61.4741 165.595V104.069C61.4741 101.461 59.3491 99.3361 56.7413 99.3361H52.0085Z" fill="#6AA632"/>
<path d="M49.6418 163.229C48.3355 163.229 47.2754 162.169 47.2754 160.862V104.069C47.2754 101.461 49.4004 99.3361 52.0082 99.3361H54.3746C55.6808 99.3361 56.741 100.396 56.741 101.703C56.741 103.009 55.6808 104.069 54.3746 104.069H52.0082V160.862C52.0082 162.169 50.948 163.229 49.6418 163.229Z" fill="white"/>
<path d="M139.506 224.959H106.376C105.07 224.959 104.01 223.898 104.01 222.592C104.01 221.286 105.07 220.226 106.376 220.226H139.506C163.988 220.226 186.694 201.006 197.253 178.899C197.816 177.72 199.227 177.219 200.405 177.782C201.588 178.345 202.085 179.756 201.522 180.939C190.182 204.678 165.806 224.959 139.506 224.959Z" fill="#6AA632"/>
<path d="M139.505 229.691H111.109C108.496 229.691 106.376 227.576 106.376 224.959V220.226C106.376 217.609 108.496 215.493 111.109 215.493H139.505C142.118 215.493 144.238 217.609 144.238 220.226V224.959C144.238 227.576 142.118 229.691 139.505 229.691Z" fill="#FFE47E"/>
<path d="M139.506 232.058H111.109C107.195 232.058 104.01 228.873 104.01 224.959V220.226C104.01 216.312 107.195 213.127 111.109 213.127H139.506C143.42 213.127 146.605 216.312 146.605 220.226V224.959C146.605 228.873 143.42 232.058 139.506 232.058ZM111.109 217.859C109.803 217.859 108.743 218.924 108.743 220.226V224.959C108.743 226.26 109.803 227.325 111.109 227.325H139.506C140.812 227.325 141.872 226.26 141.872 224.959V220.226C141.872 218.924 140.812 217.859 139.506 217.859H111.109Z" fill="#6AA632"/>
<path d="M111.109 224.959C109.802 224.959 108.742 223.898 108.742 222.592V220.226C108.742 218.92 109.802 217.859 111.109 217.859H134.772C136.079 217.859 137.139 218.92 137.139 220.226C137.139 221.532 136.079 222.592 134.772 222.592H113.475C113.475 223.898 112.415 224.959 111.109 224.959Z" fill="#FFF8E0"/>
<path d="M205.824 163.229H201.091V106.435H205.824C216.278 106.435 224.755 114.912 224.755 125.366V144.298C224.755 154.752 216.278 163.229 205.824 163.229Z" fill="#DB9843"/>
<path d="M210.315 165.055C209.251 165.055 208.28 164.336 208.02 163.252C207.708 161.984 208.489 160.706 209.757 160.394C217.197 158.586 222.389 151.965 222.389 144.298V125.366C222.389 117.889 217.353 111.31 210.14 109.365C208.881 109.029 208.129 107.732 208.465 106.468C208.806 105.209 210.117 104.457 211.371 104.802C220.647 107.297 227.121 115.754 227.121 125.366V144.298C227.121 154.156 220.439 162.665 210.874 164.994C210.685 165.041 210.5 165.055 210.315 165.055Z" fill="#6AA632"/>
<path d="M205.823 158.496C204.517 158.496 203.457 157.436 203.457 156.129V113.534C203.457 112.228 204.517 111.168 205.823 111.168C207.13 111.168 208.19 112.228 208.19 113.534V156.129C208.19 157.436 207.13 158.496 205.823 158.496Z" fill="#E8EAF6"/>
<path d="M193.992 172.694H189.259C185.336 172.694 182.16 169.514 182.16 165.595V104.069C182.16 100.15 185.336 96.9697 189.259 96.9697H193.992C197.916 96.9697 201.091 100.15 201.091 104.069V165.595C201.091 169.514 197.916 172.694 193.992 172.694Z" fill="#B9DE60"/>
<path d="M193.991 175.061H189.259C184.038 175.061 179.793 170.82 179.793 165.595V104.069C179.793 98.8439 184.038 94.6033 189.259 94.6033H193.991C199.212 94.6033 203.457 98.8439 203.457 104.069V165.595C203.457 170.82 199.212 175.061 193.991 175.061ZM189.259 99.3361C186.651 99.3361 184.526 101.461 184.526 104.069V165.595C184.526 168.203 186.651 170.328 189.259 170.328H193.991C196.599 170.328 198.724 168.203 198.724 165.595V104.069C198.724 101.461 196.599 99.3361 193.991 99.3361H189.259Z" fill="#6AA632"/>
<path d="M186.893 163.229C185.587 163.229 184.526 162.169 184.526 160.862V104.069C184.526 101.461 186.651 99.3361 189.259 99.3361H191.626C192.932 99.3361 193.992 100.396 193.992 101.703C193.992 103.009 192.932 104.069 191.626 104.069H189.259V160.862C189.259 162.169 188.199 163.229 186.893 163.229Z" fill="white"/>
<path d="M79.2344 87.6392V147.529C79.2344 150.077 81.2983 152.136 83.8413 152.136H123L137.553 168.993C138.134 169.578 139.124 169.163 139.124 168.348V152.136H162.159C164.702 152.136 166.766 150.077 166.766 147.529V87.6392C166.766 85.0915 164.702 83.0323 162.159 83.0323H83.8413C81.2983 83.0323 79.2344 85.0915 79.2344 87.6392Z" fill="#F5F5F5"/>
<path d="M138.193 171.568C137.341 171.568 136.535 171.232 135.922 170.619L121.945 154.439H83.841C80.0311 154.439 76.9307 151.339 76.9307 147.529V87.6392C76.9307 83.8292 80.0311 80.7288 83.841 80.7288H162.159C165.968 80.7288 169.069 83.8292 169.069 87.6392V147.529C169.069 151.339 165.968 154.439 162.159 154.439H141.427V168.343C141.427 169.241 141.063 170.08 140.409 170.688C139.806 171.255 139.023 171.568 138.193 171.568ZM83.841 85.3357C82.5695 85.3357 81.5376 86.3723 81.5376 87.6392V147.529C81.5376 148.796 82.5695 149.832 83.841 149.832H123C123.672 149.832 124.308 150.123 124.741 150.634L136.82 164.621V152.136C136.82 150.864 137.852 149.832 139.124 149.832H162.159C163.43 149.832 164.462 148.796 164.462 147.529V87.6392C164.462 86.3723 163.43 85.3357 162.159 85.3357H83.841Z" fill="#6AA632"/>
<path d="M83.8406 145.226C82.5691 145.226 81.5371 144.194 81.5371 142.922V87.6391C81.5371 86.3676 82.5691 85.3357 83.8406 85.3357H157.551C158.823 85.3357 159.855 86.3676 159.855 87.6391C159.855 88.9107 158.823 89.9426 157.551 89.9426H86.144V142.922C86.144 144.194 85.1121 145.226 83.8406 145.226Z" fill="white"/>
<path d="M134.104 131.406L93.0544 131.405C91.7829 131.405 90.751 130.373 90.751 129.101C90.751 127.83 91.7829 126.798 93.0544 126.798L134.104 126.799C135.375 126.799 136.407 127.831 136.407 129.102C136.407 130.374 135.375 131.406 134.104 131.406Z" fill="#6AA632"/>
<path d="M151.531 117.585L93.0544 117.584C91.7829 117.584 90.751 116.552 90.751 115.281C90.751 114.009 91.7829 112.977 93.0544 112.977L151.531 112.978C152.802 112.978 153.834 114.01 153.834 115.282C153.834 116.553 152.802 117.585 151.531 117.585Z" fill="#6AA632"/>
<path d="M141.902 103.771L93.0544 103.763C91.7829 103.763 90.751 102.731 90.751 101.46C90.751 100.188 91.7829 99.1564 93.0544 99.1564L141.902 99.1645C143.174 99.1645 144.206 100.196 144.206 101.468C144.206 102.739 143.174 103.771 141.902 103.771Z" fill="#6AA632"/>
</g>
</g>
<defs>
<clipPath id="clip0_896_2209">
<rect width="246" height="246" fill="white"/>
</clipPath>
</defs>
</svg>
