<svg width="58" height="57" viewBox="0 0 58 57" fill="none" xmlns="http://www.w3.org/2000/svg">
<g clip-path="url(#clip0_770_2075)">
<mask id="mask0_770_2075" style="mask-type:luminance" maskUnits="userSpaceOnUse" x="1" y="0" width="57" height="56">
<path d="M57.2835 0.19928H1.3125V55.9947H57.2835V0.19928Z" fill="white"/>
</mask>
<g mask="url(#mask0_770_2075)">
<path d="M57.2835 29.8722L48.6335 36.0859L51.9408 46.1036L41.2554 45.9768L37.948 55.9947L29.298 49.7811L20.648 55.9947L17.3406 45.9768L6.65518 46.1036L9.96257 36.0859L1.3125 29.8722L9.96257 23.7855L6.65518 13.7677H17.3406L20.648 3.74986L29.298 9.83663L37.948 3.62305L41.2554 13.6409H51.9408L48.6335 23.6586L57.2835 29.8722Z" fill="#6AA632"/>
<path d="M43.9265 18.0792C47.4882 15.9234 50.7956 13.1336 53.0853 9.83666C54.2302 8.18816 55.2479 6.28605 54.9934 4.38393C54.7391 2.60862 53.4669 1.08693 51.686 0.833311C50.7956 0.579695 49.9052 0.706503 49.1419 0.960119C48.3786 1.08693 47.6154 1.34054 47.1066 1.72096C45.5801 2.73543 44.9441 4.76436 44.4353 6.53966C43.5448 9.83666 42.7815 12.8801 42.2727 16.1771" stroke="#1D1D1B" stroke-width="0.5714" stroke-miterlimit="10" stroke-linecap="round" stroke-linejoin="round"/>
<path d="M39.7292 45.0892L25.8636 44.3283L19.8849 32.2816L36.4218 7.68091L56.2661 20.4885L39.7292 45.0892Z" fill="#D49B0B"/>
<path d="M43.9271 18.0792C47.489 15.9234 50.7963 13.1336 53.0861 9.83666C54.2309 8.18816 55.2486 6.28605 54.9941 4.38393C54.7397 2.60862 53.4677 1.08693 51.6868 0.833311C50.7963 0.579695 49.9058 0.706503 49.1426 0.960119C48.3794 1.08693 47.6161 1.34054 47.1073 1.72096C45.5809 2.73543 44.9448 4.76436 44.436 6.53966C44.1816 7.1737 44.0544 7.68093 43.9271 8.44177" stroke="#1D1D1B" stroke-width="0.5714" stroke-miterlimit="10" stroke-linecap="round" stroke-linejoin="round"/>
<path d="M43.7992 26.5753L28.28 28.9846L29.1705 29.9991L44.6897 27.5897L43.7992 26.5753Z" fill="#1D1D1B"/>
<path d="M38.8384 30.8867C38.5839 30.7599 38.4568 30.7599 38.3296 30.7599C37.8207 30.6332 37.3119 30.6332 36.803 30.7599C36.2942 31.0136 35.6582 31.2671 35.1494 31.6476C34.6406 32.1548 34.259 32.662 34.0045 33.1693C33.7501 33.6765 33.7501 34.1838 33.8773 34.691C34.0045 35.1982 34.259 35.7055 34.6406 36.0859L34.7678 36.2127C35.4038 36.8467 36.0398 37.1004 36.803 37.1004C37.5664 37.1004 38.4568 36.72 39.22 36.0859C39.9832 35.3251 40.3649 34.5642 40.492 33.8033C40.6193 33.0424 40.2377 32.2816 39.7288 31.6476C39.4744 31.2671 39.0928 31.1404 38.8384 30.8867ZM35.9126 35.959C35.7854 35.8322 35.531 35.7055 35.4038 35.5786C35.0222 35.1982 34.8949 34.691 35.0222 34.0569C35.1494 33.5497 35.4038 33.0424 36.0398 32.4085C36.6758 31.9012 37.1847 31.5208 37.6935 31.5208C37.8207 31.5208 37.8207 31.5208 37.948 31.5208C38.4568 31.5208 38.7112 31.6476 39.0928 32.0281C39.4744 32.4085 39.6016 32.9157 39.4744 33.5497C39.3472 34.0569 38.9656 34.5642 38.4568 35.0714C37.948 35.5786 37.3119 35.959 36.803 35.959C36.5487 36.0859 36.1671 36.0859 35.9126 35.959Z" fill="#1D1D1B"/>
<path d="M33.241 25.1804C33.877 25.8144 34.5131 26.068 35.2763 26.068C35.2763 26.068 35.2763 26.068 35.4035 26.068C36.1667 26.068 37.0572 25.6876 37.8204 25.0535C38.5837 24.2927 38.9653 23.5319 39.0925 22.771C39.2197 22.0102 38.8381 21.2494 38.3292 20.6153C38.0749 20.2349 37.6933 20.1081 37.4388 19.9812C37.0572 19.7277 36.6756 19.7277 36.1667 19.7277C35.4035 19.7277 34.5131 20.1081 33.7498 20.7421C32.9866 21.503 32.605 22.2638 32.4778 23.0247C32.2233 23.7855 32.4778 24.4196 33.241 25.1804ZM36.294 20.6153C36.6756 20.6153 37.0572 20.8689 37.566 21.1225C37.9476 21.503 38.0749 22.0102 37.9476 22.6443C37.8204 23.1515 37.4388 23.6586 36.9299 24.2927C36.294 24.8 35.7851 25.1804 35.2763 25.1804C34.8947 25.3072 34.6402 25.1804 34.3859 25.0535C34.1314 24.9268 34.0043 24.8 33.877 24.6731C33.4954 24.2927 33.3682 23.7855 33.4954 23.1515C33.6226 22.6443 34.0043 22.137 34.5131 21.503C35.1491 20.9957 35.6579 20.6153 36.1667 20.6153C36.0395 20.6153 36.1667 20.6153 36.294 20.6153Z" fill="#1D1D1B"/>
</g>
</g>
<defs>
<clipPath id="clip0_770_2075">
<rect width="56.9705" height="56.7918" fill="white" transform="translate(0.812744)"/>
</clipPath>
</defs>
</svg>
