<svg width="49" height="50" viewBox="0 0 49 50" fill="none" xmlns="http://www.w3.org/2000/svg">
<rect width="49" height="50" rx="5" fill="#85BF56" fill-opacity="0.2"/>
<path d="M37.0619 19.7557C35.2006 18.4303 32.8543 17.8739 30.5661 17.9404C28.2771 18.0069 26.0133 18.6091 23.9416 19.5785C27.0183 18.1391 30.3679 17.1455 33.7749 17.2881C35.8248 17.3736 37.8939 17.9283 39.6578 18.9487C39.4274 18.5461 39.1562 18.1625 38.8363 17.8074C38.7746 17.7382 38.7111 17.6708 38.6459 17.6052C37.0028 15.9239 34.6243 15.0478 32.2587 14.9363C29.8932 14.8223 27.5347 15.4236 25.3639 16.3559C23.8477 17.0047 22.3638 17.8272 20.7198 18.0035C19.0785 18.1797 17.3259 17.4739 16.7773 15.9386C16.207 17.4799 15.9358 19.1673 16.0331 20.9255C16.3922 27.3847 21.7839 32.5306 28.2928 32.6412C33.4072 32.7285 37.8339 29.7615 39.8499 25.4545C39.9916 25.153 40.1099 24.8437 40.2081 24.5301C39.8508 22.6267 38.6572 20.8909 37.0619 19.7557Z" fill="url(#paint0_linear_917_5444)"/>
<path opacity="0.3" d="M37.0617 19.7555C35.2004 18.4301 32.854 17.8737 30.5658 17.9402C29.9382 17.9584 29.3122 18.018 28.6915 18.1139C28.4168 18.2556 28.1638 18.4336 27.9647 18.6669C27.6161 19.0747 27.4579 19.6743 27.6831 20.1598C27.9178 20.667 28.5037 20.9331 29.0645 20.9746C29.6252 21.016 30.1807 20.8778 30.7354 20.7931C31.2909 20.7093 31.8855 20.6851 32.3871 20.9357C33.2391 21.3599 33.5469 22.4218 33.5677 23.3687C33.5938 24.5506 33.2939 25.7714 32.5488 26.6933C31.8038 27.6152 30.5745 28.188 29.4035 27.9789C28.3055 27.7828 27.4388 26.9802 26.546 26.3149C25.6114 25.6177 24.5325 25.0276 23.365 24.9844C22.1974 24.942 20.943 25.5831 20.5891 26.6899C20.4083 27.2549 20.4101 27.9763 19.8919 28.2701C19.6302 28.4187 19.3095 28.3962 19.0234 28.2865C21.282 30.9009 24.6073 32.578 28.2916 32.641C33.406 32.7283 37.8328 29.7613 39.8488 25.4544C39.9905 25.1528 40.1087 24.8435 40.207 24.5299C39.8505 22.6265 38.6569 20.8908 37.0617 19.7555Z" fill="url(#paint1_linear_917_5444)"/>
<path d="M37.9065 12.9966C37.7031 12.2112 37.4145 11.4198 36.8555 10.8289C36.1435 10.0755 35.0516 9.74023 34.0144 9.82058C32.9773 9.90093 31.9975 10.364 31.1751 10.9973C30.0823 10.5722 28.7609 10.9697 27.9437 11.8052C27.1265 12.6415 26.8753 13.9764 27.3334 15.0494C28.9052 14.2667 31.0743 14.0775 33.2433 14.3833C35.2159 14.6615 36.8294 15.4279 38.336 16.7221C38.3673 15.4676 38.2221 14.2105 37.9065 12.9966ZM36.3147 11.3352C35.9461 10.9524 35.4645 10.6846 34.9507 10.5411C34.4369 10.3977 33.9336 10.3796 33.405 10.4504C34.2135 10.1299 35.1733 10.2146 35.9114 10.6725C36.6503 11.1304 37.1493 11.9486 37.2154 12.8108C36.9676 12.2674 36.7303 11.7671 36.3147 11.3352Z" fill="url(#paint2_linear_917_5444)"/>
<path d="M31.2514 10.6354C31.0384 8.62226 31.6678 7.57424 32.7371 6.78282C32.4154 6.69815 32.0703 6.68692 31.7443 6.75431C31.2905 7.27357 30.9758 7.93538 30.8489 8.61189C30.7228 9.28839 30.7819 9.99773 31.0184 10.644C31.0844 10.6371 31.1862 10.6431 31.2514 10.6354Z" fill="url(#paint3_linear_917_5444)"/>
<path opacity="0.3" d="M36.0141 13.4805C35.4525 13.1746 34.9682 12.74 34.3971 12.4506C33.8268 12.1611 33.1052 12.0376 32.5627 12.3754C32.2611 12.5638 32.0559 12.8679 31.8386 13.1495C31.6212 13.4303 31.3648 13.7094 31.0222 13.807C30.6797 13.9038 30.2398 13.7388 30.1642 13.3923C30.0825 13.0191 30.4345 12.6864 30.4754 12.3063C30.5163 11.9287 30.2224 11.571 29.8625 11.444C29.5026 11.317 29.0992 11.3818 28.7445 11.5209C28.4437 11.6384 28.1664 11.813 27.9265 12.0272C27.6856 12.2415 27.4814 12.4981 27.3231 12.7789C27.0406 13.5021 27.0293 14.3332 27.3344 15.0486C28.9062 14.2658 31.0753 14.0766 33.2443 14.3825C35.2169 14.6607 36.8304 15.427 38.337 16.7213C38.3622 15.656 38.2596 14.5872 38.0353 13.5453C37.9753 13.5867 37.9145 13.6265 37.8501 13.6593C37.2807 13.9505 36.5765 13.7863 36.0141 13.4805Z" fill="url(#paint4_linear_917_5444)"/>
<path d="M22.6915 9.7895C22.2229 9.30653 21.7343 8.82097 21.1979 8.41403C20.6615 8.00709 20.0512 7.67705 19.3896 7.54572C19.5479 7.1984 19.8713 6.95648 20.2442 6.87008C20.8867 7.18544 21.4657 7.60706 22.0012 8.07966C22.1803 8.65508 22.3941 9.26333 22.6915 9.7895Z" fill="url(#paint5_linear_917_5444)"/>
<path d="M22.7686 9.74021C22.4452 9.23132 22.2226 8.58419 22.1001 7.99495C21.9775 7.40571 21.9253 6.80437 21.874 6.2039C22.1418 6.08899 22.4235 6.00605 22.7147 6C22.5739 6.57369 22.6051 7.17071 22.7121 7.75217C22.8181 8.33364 23.0059 8.89609 23.1928 9.45768C23.192 9.45768 22.9146 9.60456 22.7686 9.74021Z" fill="url(#paint6_linear_917_5444)"/>
<path d="M27.2955 11.0691C26.9852 11.1184 26.68 11.2022 26.3905 11.324C26.6331 11.1158 26.9139 10.9533 27.2138 10.841C27.1312 10.6095 27.0486 10.3788 26.9686 10.1403C26.8582 9.81287 26.7391 9.4716 26.4879 9.234C26.2627 9.02146 25.9515 8.91519 25.6411 8.89445C25.3316 8.87285 25.0213 8.93074 24.7214 9.00936C23.7764 9.25906 22.8914 9.72993 22.1585 10.3736C21.7995 10.6898 21.4639 11.0691 21.3578 11.5339C21.277 11.889 21.3378 12.264 21.4665 12.6044C21.5473 12.8187 21.6551 13.0209 21.7708 13.2187C22.2141 12.8144 22.7601 12.5215 23.3443 12.3815C22.7705 12.6303 22.3028 13.1012 22.0437 13.6663C22.4489 14.316 22.8557 14.9424 23.2617 15.5766C23.8164 15.1471 24.4588 14.8301 25.1404 14.6564C24.7683 14.8568 24.3927 15.0599 24.0685 15.3303C23.8494 15.5135 23.6547 15.7312 23.5164 15.9792C23.6216 16.1451 23.7268 16.3109 23.832 16.4794C24.6892 15.9472 25.6168 15.5118 26.6122 15.2863C26.2758 14.0145 26.6113 12.5863 27.4789 11.5927C27.419 11.4164 27.3572 11.2428 27.2955 11.0691Z" fill="url(#paint7_linear_917_5444)"/>
<path d="M27.2958 11.069C26.9855 11.1183 26.6812 11.2021 26.3908 11.3239C26.6334 11.1157 26.9142 10.9532 27.2141 10.8409C27.1315 10.6094 27.0489 10.3787 26.9689 10.1402C26.9637 10.1255 26.9585 10.11 26.9533 10.0953C26.5873 9.99334 26.1344 10.0089 25.8266 10.0953C25.3424 10.2301 24.9147 10.6042 24.7903 11.088C24.666 11.5718 24.8947 12.1429 25.3511 12.3503C25.538 12.435 25.7614 12.4669 25.8996 12.6181C26.0831 12.8203 26.0222 13.159 25.8362 13.3586C25.6493 13.5573 25.3745 13.6471 25.1085 13.7102C24.8425 13.7733 24.5652 13.8208 24.3313 13.9625C24.0975 14.1042 23.914 14.3703 23.9645 14.6373C23.9923 14.7833 24.0818 14.9017 24.194 15.0036C24.4974 14.8576 24.8138 14.741 25.1407 14.658C24.8695 14.804 24.5973 14.9518 24.3435 15.1254C24.3835 15.1548 24.4243 15.1833 24.4643 15.211C24.6799 15.3587 24.9112 15.5393 24.9451 15.7968C24.9486 15.8209 24.9494 15.846 24.9494 15.8711C25.4806 15.6214 26.0353 15.4183 26.6125 15.287C26.2761 14.0152 26.6116 12.587 27.4793 11.5934C27.4193 11.4163 27.3575 11.2427 27.2958 11.069Z" fill="url(#paint8_linear_917_5444)"/>
<path d="M22.4289 44C20.8667 44 19.5957 42.7368 19.5957 41.1851C19.5957 39.6325 20.8667 38.3694 22.4289 38.3694C23.9912 38.3694 25.2622 39.6325 25.2622 41.1851C25.2613 42.7368 23.9912 44 22.4289 44ZM22.4289 40.252C21.9108 40.252 21.49 40.671 21.49 41.1851C21.49 41.6992 21.9117 42.1182 22.4289 42.1182C22.9462 42.1182 23.3678 41.7 23.3678 41.1851C23.3678 40.6702 22.9462 40.252 22.4289 40.252Z" fill="#222835"/>
<path d="M34.9358 44C33.3735 44 32.1025 42.7368 32.1025 41.1851C32.1025 39.6325 33.3735 38.3694 34.9358 38.3694C36.498 38.3694 37.769 39.6325 37.769 41.1851C37.7681 42.7368 36.4971 44 34.9358 44ZM34.9358 40.252C34.4185 40.252 33.9969 40.671 33.9969 41.1851C33.9969 41.6992 34.4185 42.1182 34.9358 42.1182C35.453 42.1182 35.8747 41.7 35.8747 41.1851C35.8747 40.6702 35.453 40.252 34.9358 40.252Z" fill="#222835"/>
<path d="M42.4644 25.2618C41.9932 25.0363 41.4273 25.2324 41.2004 25.7007C38.8714 30.501 33.9152 33.5915 28.5582 33.5915C28.5321 33.5915 28.5061 33.5915 28.48 33.5915C20.7931 33.5483 14.539 27.2041 14.539 19.4497V18.2497C14.539 16.2366 13.2585 14.4265 11.3511 13.7466L7.26687 12.289C6.77481 12.1136 6.23233 12.3676 6.05586 12.8566C5.87938 13.3457 6.13497 13.8848 6.62702 14.0602L10.7112 15.5177C10.7556 15.5333 10.7982 15.5523 10.8408 15.5696V15.5687C10.8408 15.5687 12.6777 16.0197 13.9965 18.794C13.9965 18.794 13.4254 17.7615 12.2917 16.8725C12.5169 17.2872 12.6447 17.7572 12.6447 18.2488V19.4489C12.6447 28.2357 19.7438 35.424 28.4695 35.4733C28.4991 35.4733 28.5287 35.4733 28.5582 35.4733C34.6376 35.4733 40.2623 31.9655 42.906 26.5181C43.1329 26.0506 42.9347 25.4882 42.4644 25.2618Z" fill="#222835"/>
<path d="M38.4415 39.7958C38.3407 39.7958 38.2381 39.7793 38.1373 39.7457C38.0947 39.7318 33.7618 38.3002 28.2579 38.3002C22.7697 38.3002 19.321 39.7076 19.2871 39.7223C18.8046 39.9228 18.2499 39.6973 18.0482 39.2178C17.8465 38.7382 18.0734 38.187 18.5559 37.9866C18.7098 37.9226 22.3933 36.4184 28.2579 36.4184C34.0887 36.4184 38.5572 37.9002 38.7449 37.9632C39.2405 38.13 39.5056 38.6639 39.3378 39.1564C39.2048 39.5478 38.8362 39.7958 38.4415 39.7958Z" fill="#222835"/>
<path d="M34.9356 39.3586C33.9228 39.3586 33.0986 40.1777 33.0986 41.1842C33.0986 42.1908 33.9228 43.0098 34.9356 43.0098C35.9484 43.0098 36.7725 42.1908 36.7725 41.1842C36.7725 40.1777 35.9484 39.3586 34.9356 39.3586ZM34.9356 42.1182C34.4183 42.1182 33.9967 41.7 33.9967 41.1851C33.9967 40.671 34.4183 40.252 34.9356 40.252C35.4528 40.252 35.8745 40.671 35.8745 41.1851C35.8745 41.6992 35.4528 42.1182 34.9356 42.1182Z" fill="#85BF56"/>
<path d="M22.4287 39.3586C21.4159 39.3586 20.5918 40.1777 20.5918 41.1842C20.5918 42.1908 21.4159 43.0098 22.4287 43.0098C23.4415 43.0098 24.2657 42.1908 24.2657 41.1842C24.2657 40.1777 23.4415 39.3586 22.4287 39.3586ZM22.4287 42.1182C21.9106 42.1182 21.4898 41.7 21.4898 41.1851C21.4898 40.671 21.9115 40.252 22.4287 40.252C22.946 40.252 23.3676 40.671 23.3676 41.1851C23.3676 41.6992 22.946 42.1182 22.4287 42.1182Z" fill="#85BF56"/>
<defs>
<linearGradient id="paint0_linear_917_5444" x1="25.673" y1="13.8827" x2="30.5417" y2="29.1046" gradientUnits="userSpaceOnUse">
<stop stop-color="#B9DE60"/>
<stop offset="1" stop-color="#6AA632"/>
</linearGradient>
<linearGradient id="paint1_linear_917_5444" x1="14.5536" y1="21.7616" x2="39.8592" y2="27.7295" gradientUnits="userSpaceOnUse">
<stop stop-color="white"/>
<stop offset="1" stop-color="white" stop-opacity="0"/>
</linearGradient>
<linearGradient id="paint2_linear_917_5444" x1="35.005" y1="5.8346" x2="32.9845" y2="14.1634" gradientUnits="userSpaceOnUse">
<stop stop-color="#DE3030"/>
<stop offset="1" stop-color="#A52A2A"/>
</linearGradient>
<linearGradient id="paint3_linear_917_5444" x1="31.303" y1="5.82842" x2="32.2066" y2="10.6314" gradientUnits="userSpaceOnUse">
<stop stop-color="#B9DE60"/>
<stop offset="1" stop-color="#6AA632"/>
</linearGradient>
<linearGradient id="paint4_linear_917_5444" x1="33.3027" y1="10.6732" x2="32.8992" y2="13.8754" gradientUnits="userSpaceOnUse">
<stop stop-color="white"/>
<stop offset="1" stop-color="white" stop-opacity="0"/>
</linearGradient>
<linearGradient id="paint5_linear_917_5444" x1="20.5169" y1="5.91794" x2="21.3232" y2="10.2034" gradientUnits="userSpaceOnUse">
<stop stop-color="#B9DE60"/>
<stop offset="1" stop-color="#6AA632"/>
</linearGradient>
<linearGradient id="paint6_linear_917_5444" x1="22.0446" y1="5.09751" x2="22.9448" y2="9.88216" gradientUnits="userSpaceOnUse">
<stop stop-color="#B9DE60"/>
<stop offset="1" stop-color="#6AA632"/>
</linearGradient>
<linearGradient id="paint7_linear_917_5444" x1="21.9067" y1="9.53179" x2="26.5165" y2="14.3021" gradientUnits="userSpaceOnUse">
<stop stop-color="#FDBA52"/>
<stop offset="1" stop-color="#D49B0B"/>
</linearGradient>
<linearGradient id="paint8_linear_917_5444" x1="18.2814" y1="10.4235" x2="26.5139" y2="13.205" gradientUnits="userSpaceOnUse">
<stop stop-color="white"/>
<stop offset="1" stop-color="white" stop-opacity="0"/>
</linearGradient>
</defs>
</svg>
