<svg width="202" height="203" viewBox="0 0 202 203" fill="none" xmlns="http://www.w3.org/2000/svg">
<g clip-path="url(#clip0_987_4242)">
<mask id="mask0_987_4242" style="mask-type:luminance" maskUnits="userSpaceOnUse" x="0" y="0" width="202" height="203">
<path d="M202 0H0V203H202V0Z" fill="white"/>
</mask>
<g mask="url(#mask0_987_4242)">
<mask id="mask1_987_4242" style="mask-type:alpha" maskUnits="userSpaceOnUse" x="0" y="0" width="202" height="203">
<mask id="mask2_987_4242" style="mask-type:luminance" maskUnits="userSpaceOnUse" x="0" y="0" width="202" height="203">
<path d="M0 0H202V203H0V0Z" fill="white"/>
</mask>
<g mask="url(#mask2_987_4242)">
<path d="M0 0H202V203H0V0Z" fill="#5924B0"/>
</g>
</mask>
<g mask="url(#mask1_987_4242)">
<mask id="mask3_987_4242" style="mask-type:luminance" maskUnits="userSpaceOnUse" x="0" y="0" width="202" height="203">
<path d="M0 0H202V203H0V0Z" fill="white"/>
</mask>
<g mask="url(#mask3_987_4242)">
<path d="M71.4229 99.6858L91.9836 120.711C91.9836 120.711 121.807 90.7379 128.776 83.7344" stroke="#6AA632" stroke-width="8" stroke-linecap="round" stroke-linejoin="round"/>
<path d="M78.4875 173.607L101.002 164.092L124.148 173.607L138.246 152.461L162.865 146.118L160.34 120.954L177.383 101.5L160.34 81.6228L162.865 56.4591L138.246 50.5384L123.727 29.3927L101.002 38.9083L77.8563 29.3927L63.7585 50.5384L39.1397 56.4591L41.6647 81.6228L24.621 101.5L41.6647 120.954L39.1397 146.54L63.7585 152.461L78.4875 173.607ZM69.8603 185.237L56.8143 162.823L30.7228 157.536C29.1797 157.254 27.8822 156.409 26.83 154.999C25.7779 153.589 25.3922 152.109 25.6728 150.558L28.6187 125.183L11.996 105.729C10.8737 104.601 10.3125 103.192 10.3125 101.5C10.3125 99.8081 10.8738 98.3982 11.996 97.2704L28.6187 78.0279L25.6728 52.6529C25.3922 51.1021 25.7778 49.622 26.83 48.2122C27.8821 46.8025 29.1797 45.9568 30.7228 45.6747L56.8143 40.3884L69.8603 17.7622C70.702 16.3525 71.8944 15.3657 73.4375 14.8017C74.9806 14.2378 76.5234 14.3083 78.0666 15.013L101.002 25.7974L123.937 15.013C125.48 14.3082 127.023 14.2025 128.566 14.6958C130.109 15.1892 131.302 16.1408 132.143 17.5505L145.4 40.388L171.281 45.6744C172.824 45.9563 174.122 46.8021 175.174 48.2119C176.226 49.6216 176.612 51.1017 176.331 52.6525L173.385 78.0275L190.008 97.2701C191.13 98.3979 191.691 99.8076 191.691 101.499C191.691 103.191 191.13 104.601 190.008 105.729L173.385 125.183L176.331 150.558C176.611 152.109 176.226 153.589 175.174 154.999C174.122 156.408 172.824 157.254 171.281 157.536L145.4 162.822L132.143 185.449C131.302 186.858 130.109 187.81 128.566 188.303C127.023 188.797 125.48 188.691 123.937 187.986L101.002 177.202L78.0666 187.986C76.5235 188.691 74.9806 188.761 73.4375 188.197C71.8944 187.633 70.7018 186.647 69.8603 185.237Z" fill="#6AA632"/>
<path d="M78.4875 173.607L101.002 164.092L124.148 173.607L138.246 152.461L162.865 146.118L160.34 120.954L177.383 101.5L160.34 81.6228L162.865 56.4591L138.246 50.5384L123.727 29.3927L101.002 38.9083L77.8563 29.3927L63.7585 50.5384L39.1397 56.4591L41.6647 81.6228L24.621 101.5L41.6647 120.954L39.1397 146.54L63.7585 152.461L78.4875 173.607ZM69.8603 185.237L56.8143 162.823L30.7228 157.536C29.1797 157.254 27.8822 156.409 26.83 154.999C25.7779 153.589 25.3922 152.109 25.6728 150.558L28.6187 125.183L11.996 105.729C10.8737 104.601 10.3125 103.192 10.3125 101.5C10.3125 99.8081 10.8738 98.3982 11.996 97.2704L28.6187 78.0279L25.6728 52.6529C25.3922 51.1021 25.7778 49.622 26.83 48.2122C27.8821 46.8025 29.1797 45.9568 30.7228 45.6747L56.8143 40.3884L69.8603 17.7622C70.702 16.3525 71.8944 15.3657 73.4375 14.8017C74.9806 14.2378 76.5234 14.3083 78.0666 15.013L101.002 25.7974L123.937 15.013C125.48 14.3082 127.023 14.2025 128.566 14.6958C130.109 15.1892 131.302 16.1408 132.143 17.5505L145.4 40.388L171.281 45.6744C172.824 45.9563 174.122 46.8021 175.174 48.2119C176.226 49.6216 176.612 51.1017 176.331 52.6525L173.385 78.0275L190.008 97.2701C191.13 98.3979 191.691 99.8076 191.691 101.499C191.691 103.191 191.13 104.601 190.008 105.729L173.385 125.183L176.331 150.558C176.611 152.109 176.226 153.589 175.174 154.999C174.122 156.408 172.824 157.254 171.281 157.536L145.4 162.822L132.143 185.449C131.302 186.858 130.109 187.81 128.566 188.303C127.023 188.797 125.48 188.691 123.937 187.986L101.002 177.202L78.0666 187.986C76.5235 188.691 74.9806 188.761 73.4375 188.197C71.8944 187.633 70.7018 186.647 69.8603 185.237Z" fill="#6AA632"/>
</g>
</g>
</g>
</g>
<defs>
<clipPath id="clip0_987_4242">
<rect width="202" height="203" fill="white"/>
</clipPath>
</defs>
</svg>
