<svg width="57" height="57" viewBox="0 0 57 57" fill="none" xmlns="http://www.w3.org/2000/svg">
<path d="M34.9082 38.7256C41.9045 38.7256 47.6766 32.9717 47.6766 25.9973C47.6766 19.0229 41.9045 13.269 34.9082 13.269C27.9118 13.269 22.1398 19.0229 22.1398 25.9973C22.1398 32.9717 27.7369 38.7256 34.9082 38.7256Z" fill="#D49B0B"/>
<path d="M26.3369 21.1152C27.2114 20.069 27.5613 18.8485 27.5613 17.4536C27.5613 14.6639 25.6373 12.2228 23.0136 11.6997C23.1885 11.0023 23.3634 10.3048 23.3634 9.60742C23.3634 5.42276 19.8652 1.93555 15.4925 1.93555C11.2947 1.93555 7.79651 5.42276 7.79651 9.60742C7.79651 10.3048 7.97142 10.8279 7.97142 11.5254C5.52268 12.2228 3.59868 14.6639 3.59868 17.4536C3.59868 18.8485 4.12341 20.069 4.82305 21.1152C3.42377 22.5101 2.0245 24.4281 2.37431 26.6948C2.72413 28.7871 11.6445 50.0591 11.6445 50.0591H19.3405C19.3405 50.0591 28.2609 28.7871 28.6107 26.6948C29.1355 24.4281 27.7362 22.5101 26.3369 21.1152Z" fill="#6AA632"/>
<path d="M15.4928 10.6536V49.536" stroke="#1D1D1B" stroke-width="1.5" stroke-miterlimit="10" stroke-linecap="round" stroke-linejoin="round"/>
<path d="M8.84583 27.5666L15.4924 35.0641" stroke="#1D1D1B" stroke-width="1.5" stroke-miterlimit="10" stroke-linecap="round" stroke-linejoin="round"/>
<path d="M22.3143 27.5666L15.4928 35.0641" stroke="#1D1D1B" stroke-width="1.5" stroke-miterlimit="10" stroke-linecap="round" stroke-linejoin="round"/>
<path d="M8.84583 16.5818L15.6673 24.2537" stroke="#1D1D1B" stroke-width="1.5" stroke-miterlimit="10" stroke-linecap="round" stroke-linejoin="round"/>
<path d="M22.3143 16.5818L15.4928 24.2537" stroke="#1D1D1B" stroke-width="1.5" stroke-miterlimit="10" stroke-linecap="round" stroke-linejoin="round"/>
<path d="M42.9532 38.0282C43.303 39.2487 43.4779 40.4692 43.6528 41.5154H54.847L50.2994 27.7409L41.2041 34.541C41.9037 35.5871 42.4285 36.8077 42.9532 38.0282Z" fill="#6AA632"/>
<path d="M3.07464 51.1053C2.375 49.1873 3.07464 47.095 4.47392 46.2232L30.5354 30.8795C35.0831 28.6128 40.8551 31.9256 42.954 38.0282C44.878 44.1309 42.2544 50.2335 37.182 51.1053L7.09757 54.2438C5.52338 54.4181 3.77428 53.0233 3.07464 51.1053Z" stroke="#1D1D1B" stroke-width="1.5" stroke-miterlimit="10" stroke-linecap="round" stroke-linejoin="round"/>
<path d="M30.1854 31.2281C30.3603 31.5769 34.0334 43.6078 34.0334 43.6078" stroke="#1D1D1B" stroke-width="1.5" stroke-miterlimit="10" stroke-linecap="round" stroke-linejoin="round"/>
<path d="M25.9873 45.0026C26.1622 45.3513 28.2611 51.9771 28.2611 51.9771" stroke="#1D1D1B" stroke-width="1.5" stroke-miterlimit="10" stroke-linecap="round" stroke-linejoin="round"/>
<path d="M18.4658 38.377C18.6407 38.7257 20.7396 45.3514 20.7396 45.3514" stroke="#1D1D1B" stroke-width="1.5" stroke-miterlimit="10" stroke-linecap="round" stroke-linejoin="round"/>
<path d="M8.49646 48.6642L10.0715 53.7206" stroke="#1D1D1B" stroke-width="1.5" stroke-miterlimit="10" stroke-linecap="round" stroke-linejoin="round"/>
<path d="M39.4556 8.21252L37.1818 16.7562" stroke="#1D1D1B" stroke-width="1.5" stroke-miterlimit="10" stroke-linecap="round" stroke-linejoin="round"/>
<path d="M40.5047 16.5818C39.98 16.9306 39.2803 16.9306 38.5807 16.9306C37.1814 16.9306 35.7821 16.2331 34.9076 15.187" stroke="#1D1D1B" stroke-width="1.5" stroke-miterlimit="10" stroke-linecap="round" stroke-linejoin="round"/>
</svg>
