<svg width="49" height="49" viewBox="0 0 49 49" fill="none" xmlns="http://www.w3.org/2000/svg">
<rect width="49" height="49" rx="5" fill="white" fill-opacity="0.1"/>
<path d="M24.5 34.9167C30.2529 34.9167 34.9166 30.2529 34.9166 24.5C34.9166 18.747 30.2529 14.0833 24.5 14.0833C18.747 14.0833 14.0833 18.747 14.0833 24.5C14.0833 25.9364 14.374 27.3048 14.8998 28.5497C15.1904 29.2376 15.3357 29.5817 15.3537 29.8417C15.3716 30.1017 15.2951 30.3876 15.1421 30.9596L14.0833 34.9167L18.0404 33.8579C18.6124 33.7049 18.8984 33.6283 19.1583 33.6464C19.4183 33.6643 19.7623 33.8096 20.4503 34.1002C21.6952 34.6259 23.0636 34.9167 24.5 34.9167Z" stroke="white" stroke-width="2" stroke-linejoin="round"/>
<path d="M20.946 24.893L21.8532 23.7663C22.2356 23.2914 22.7083 22.8493 22.7453 22.2169C22.7546 22.0572 22.6423 21.3402 22.4175 19.9061C22.3292 19.3425 21.803 19.2917 21.3472 19.2917C20.7533 19.2917 20.4563 19.2917 20.1614 19.4264C19.7887 19.5966 19.4061 20.0753 19.3221 20.4764C19.2556 20.7937 19.305 21.0124 19.4038 21.4497C19.8232 23.3071 20.8071 25.1415 22.3328 26.6672C23.8586 28.1929 25.6929 29.1769 27.5503 29.5963C27.9876 29.695 28.2063 29.7444 28.5237 29.6779C28.9247 29.594 29.4034 29.2114 29.5737 28.8385C29.7084 28.5436 29.7084 28.2468 29.7084 27.6528C29.7084 27.197 29.6575 26.6708 29.0939 26.5825C27.6598 26.3577 26.9428 26.2454 26.783 26.2547C26.1508 26.2918 25.7087 26.7644 25.2338 27.1468L24.107 28.054" stroke="white" stroke-width="2"/>
</svg>
