<svg width="16" height="12" viewBox="0 0 16 12" fill="none" xmlns="http://www.w3.org/2000/svg">
<path d="M8 0.40625C8.03205 0.406254 13.0111 0.407576 14.2598 0.749023C14.945 0.933585 15.4855 1.4738 15.6699 2.15918C16.0109 3.40461 16.0001 5.99358 16 6.02051C16 6.02051 16.0003 8.61705 15.6709 9.86914C15.4863 10.5544 14.9452 11.0948 14.2598 11.2793C13.0089 11.6083 8.0149 11.6084 8 11.6084C8 11.6084 3.00439 11.6093 1.73926 11.2666C1.054 11.0819 0.51364 10.5407 0.329102 9.85547C0.00173021 8.62376 1.16178e-05 6.03857 0 6.00781C0 6.00781 -0.000337156 3.41117 0.329102 2.15918C0.51353 1.47395 1.06724 0.919857 1.73926 0.735352C2.99133 0.405763 8 0.40625 8 0.40625ZM6.40527 8.40625L10.5693 6.00781L6.40527 3.6084V8.40625Z" fill="#6B7280"/>
</svg>
