<svg width="79" height="75" viewBox="0 0 79 75" fill="none" xmlns="http://www.w3.org/2000/svg">
<path d="M79 45.5601C79 60.2704 65.8251 74.9993 52.6666 74.9993C39.5082 74.9993 21.3174 70.7845 21.3174 56.0741C21.3174 41.3637 36.3733 21.0273 49.5317 21.0273C62.6901 21.0273 79 30.8497 79 45.5601Z" fill="#B9C700"/>
<path d="M44.4114 40.317C44.4114 39.3074 44.4114 38.8027 44.5472 38.3529C44.9422 37.0457 45.9835 36.5387 47.0267 36.0074C48.1994 35.4102 48.7856 35.1117 49.3666 35.0591C50.0263 34.9995 50.687 35.1584 51.2507 35.5121C51.9981 35.9809 52.5193 36.8719 53.053 37.5965C55.5174 40.9429 56.7496 42.6164 57.2005 44.4616C57.5645 45.9505 57.5645 47.5077 57.2005 48.9966C56.543 51.6879 54.4653 53.9441 52.9274 56.0323C52.1408 57.1003 51.7474 57.6345 51.2507 57.9461C50.687 58.2998 50.0263 58.4587 49.3666 58.3991C48.7856 58.3465 48.1994 58.048 47.0267 57.4508C45.9835 56.9195 44.9422 56.4125 44.5472 55.1053C44.4114 54.6555 44.4114 54.1508 44.4114 53.1412V40.317Z" stroke="#141B34" stroke-width="3"/>
<path d="M24.8184 61.332C28.4253 65.226 34.2735 65.226 37.8805 61.332" stroke="#141B34" stroke-width="3" stroke-linecap="round" stroke-linejoin="round"/>
<path d="M18.2868 40.3169C18.2868 39.0459 18.2549 37.9037 17.3356 37.01C17.0013 36.6849 16.558 36.4592 15.6715 36.0077C14.4988 35.4107 13.9124 35.1122 13.3314 35.0596C11.5883 34.9019 10.6504 36.232 9.64519 37.5967C7.18067 40.9431 5.94841 42.6163 5.4975 44.4615C5.13364 45.9504 5.13364 47.5076 5.4975 48.9966C6.15516 51.6878 8.23288 53.9434 9.77079 56.0316C10.7402 57.3479 11.6663 58.5491 13.3314 58.3984C13.9124 58.3459 14.4988 58.0474 15.6715 57.4501C16.558 56.9989 17.0013 56.7731 17.3356 56.4481C18.2549 55.5544 18.2868 54.4121 18.2868 53.1408V40.3169Z" stroke="#141B34" stroke-width="3"/>
<path d="M5.22461 46.7277V35.0454C5.22461 18.9156 16.9209 5.83984 31.3489 5.83984C45.7769 5.83984 57.4733 18.9156 57.4733 35.0454L57.4735 46.7277" stroke="#141B34" stroke-width="3" stroke-linecap="round" stroke-linejoin="round"/>
</svg>
