<svg width="578" height="296" viewBox="0 0 578 296" fill="none" xmlns="http://www.w3.org/2000/svg">
<g clip-path="url(#clip0_1973_2941)">
<path d="M177.348 267.355C177.348 251.696 226.695 238.838 287.519 238.838C348.343 238.838 397.69 251.696 397.69 267.483C397.669 269.27 397.089 271.005 396.032 272.448C386.851 285.815 341.712 296 287.519 296C226.695 296 177.348 283.142 177.348 267.355Z" fill="#CEEDA2"/>
<path d="M155.419 247.877H49.3281C46.6093 247.883 43.9671 248.777 41.8049 250.423L1.00071 282.378C0.577922 282.701 0.266746 283.148 0.110556 283.657C-0.0456339 284.165 -0.039055 284.709 0.129376 285.214C0.297807 285.718 0.619696 286.158 1.05017 286.471C1.48065 286.784 1.99827 286.955 2.53086 286.961H114.615C117.458 286.933 120.187 285.843 122.266 283.906L156.567 250.805C156.816 250.574 156.991 250.274 157.067 249.943C157.143 249.612 157.118 249.266 156.994 248.95C156.87 248.634 156.653 248.362 156.372 248.171C156.091 247.979 155.759 247.877 155.419 247.877Z" fill="#CEEDA2"/>
<path d="M576.337 247.877H470.119C467.4 247.883 464.758 248.777 462.596 250.423L421.792 282.378C421.369 282.701 421.058 283.148 420.902 283.657C420.745 284.165 420.752 284.709 420.92 285.214C421.089 285.718 421.411 286.158 421.841 286.471C422.272 286.784 422.789 286.955 423.322 286.961H535.406C538.249 286.933 540.978 285.843 543.057 283.906L577.358 250.805C577.63 250.596 577.83 250.306 577.928 249.978C578.026 249.649 578.018 249.297 577.906 248.973C577.793 248.649 577.58 248.369 577.299 248.172C577.017 247.975 576.681 247.872 576.337 247.877Z" fill="#CEEDA2"/>
<path d="M177.348 262.136C177.348 246.477 226.695 233.618 287.519 233.618C348.343 233.618 397.69 246.477 397.69 262.263C397.669 264.05 397.089 265.786 396.032 267.228C386.851 280.596 341.712 290.78 287.519 290.78C226.695 290.78 177.348 277.922 177.348 262.136Z" fill="#B9C700"/>
<path d="M396.032 267.228C386.851 280.596 341.839 290.78 287.519 290.78C226.695 290.78 177.348 277.922 177.348 262.136C177.348 262.136 196.475 285.179 283.693 285.179C358.671 285.306 388.892 271.175 396.032 267.228Z" fill="#6DA117"/>
<path d="M350.256 255.516C346.048 250.932 319.525 247.368 287.519 247.368C254.111 247.368 226.823 251.187 224.4 256.025C225.548 253.224 233.199 243.549 287.519 243.549C337.504 243.549 348.088 252.206 350.256 255.516Z" fill="#6DA117"/>
<path d="M156.31 247.877L133.995 88.4849C133.872 87.6641 133.456 86.9154 132.823 86.3772C132.19 85.839 131.384 85.5476 130.552 85.5567H100.459C99.9635 85.5597 99.4739 85.668 99.0232 85.8744C98.5725 86.0808 98.171 86.3806 97.8454 86.7539C97.5197 87.1272 97.2774 87.5655 97.1344 88.0395C96.9915 88.5136 96.9513 89.0126 97.0164 89.5034L104.54 149.721C104.613 150.28 104.565 150.849 104.399 151.388C104.233 151.927 103.954 152.425 103.579 152.847C103.204 153.269 102.743 153.607 102.227 153.836C101.711 154.065 101.152 154.182 100.587 154.177H66.1583C65.1175 154.183 64.1139 153.791 63.3547 153.08C62.5954 152.37 62.1383 151.395 62.0779 150.358L59.2726 88.9941C59.2291 88.1083 58.8486 87.2725 58.2088 86.6573C57.5689 86.0421 56.718 85.694 55.8298 85.6841H27.6494C27.1838 85.6747 26.7213 85.7615 26.2909 85.9391C25.8605 86.1166 25.4715 86.381 25.1482 86.7157C24.8249 87.0504 24.5744 87.4481 24.4124 87.884C24.2504 88.3199 24.1803 88.7845 24.2066 89.2487L28.0319 194.152C28.1092 195.758 28.8 197.274 29.9622 198.387C31.1244 199.5 32.6697 200.125 34.2801 200.136H110.915L116.908 248.132H156.31V247.877Z" fill="#6DA117"/>
<path d="M577.229 247.877L554.915 88.4847C554.791 87.6639 554.375 86.9153 553.742 86.3771C553.109 85.8388 552.303 85.5474 551.472 85.5566H521.379C520.883 85.5595 520.393 85.6678 519.943 85.8742C519.492 86.0806 519.09 86.3804 518.765 86.7538C518.439 87.1271 518.197 87.5653 518.054 88.0394C517.911 88.5134 517.871 89.0124 517.936 89.5032L525.459 149.721C525.532 150.28 525.484 150.849 525.318 151.388C525.153 151.927 524.873 152.425 524.498 152.847C524.124 153.269 523.663 153.606 523.147 153.836C522.631 154.065 522.071 154.181 521.506 154.177H487.078C486.037 154.183 485.033 153.791 484.274 153.08C483.515 152.369 483.058 151.395 482.997 150.357L480.192 88.9939C480.148 88.1081 479.768 87.2723 479.128 86.6571C478.488 86.042 477.637 85.6938 476.749 85.6839H448.696C448.231 85.6745 447.768 85.7614 447.338 85.9389C446.907 86.1164 446.518 86.3808 446.195 86.7155C445.872 87.0502 445.621 87.4479 445.459 87.8838C445.297 88.3197 445.227 88.7843 445.253 89.2486L449.079 194.152C449.156 195.758 449.847 197.273 451.009 198.386C452.171 199.499 453.717 200.125 455.327 200.136H531.962L537.955 248.131H577.229V247.877Z" fill="#6DA117"/>
<path d="M133.101 90.1397L116.27 280.595C116.129 282.325 115.343 283.938 114.068 285.117C112.793 286.295 111.122 286.954 109.384 286.961H84.1365C83.1545 286.961 82.1837 286.753 81.2883 286.35C80.3929 285.948 79.5932 285.36 78.9423 284.626C78.2914 283.892 77.8041 283.028 77.5125 282.092C77.2209 281.156 77.1317 280.168 77.2508 279.195L87.8344 189.951L12.2192 191.224C11.2423 191.24 10.2739 191.041 9.38338 190.64C8.49287 190.238 7.70234 189.645 7.06852 188.903C6.4347 188.161 5.9733 187.287 5.71742 186.346C5.46154 185.405 5.41752 184.418 5.58853 183.458L5.84355 181.803L23.1853 88.9939C23.4192 87.745 24.082 86.6167 25.0596 85.8033C26.0372 84.99 27.2683 84.5425 28.5409 84.5381H52.6408C53.4301 84.5512 54.2073 84.7333 54.92 85.0721C55.6327 85.4109 56.2642 85.8985 56.7719 86.502C57.2796 87.1054 57.6517 87.8106 57.8629 88.57C58.0742 89.3294 58.1197 90.1251 57.9964 90.9036L47.6678 149.466C47.57 150.019 47.5962 150.586 47.7445 151.128C47.8927 151.669 48.1594 152.171 48.5253 152.597C48.8911 153.023 49.347 153.363 49.8603 153.592C50.3735 153.821 50.9312 153.934 51.4932 153.922H87.5794L95.9952 88.8666C96.1719 87.638 96.7834 86.5131 97.7191 85.6957C98.6547 84.8783 99.8526 84.4225 101.096 84.4108H128.001C128.713 84.4518 129.41 84.6327 130.052 84.943C130.693 85.2533 131.268 85.6869 131.741 86.219C132.215 86.7512 132.579 87.3714 132.812 88.0441C133.046 88.7169 133.144 89.429 133.101 90.1397Z" fill="#B9C700"/>
<path d="M88.345 181.803L87.7074 189.951L12.0922 191.224C11.1154 191.24 10.1469 191.041 9.25643 190.64C8.36591 190.238 7.57539 189.645 6.94157 188.903C6.30775 188.161 5.84635 187.287 5.59047 186.346C5.33459 185.405 5.29057 184.418 5.46157 183.458L5.7166 181.803H88.345Z" fill="#6DA117"/>
<path d="M133.101 90.1397L116.27 280.595C116.129 282.325 115.343 283.938 114.068 285.117C112.793 286.295 111.122 286.954 109.384 286.961H105.559L125.578 84.538H128.001C128.71 84.5547 129.408 84.7148 130.053 85.0087C130.698 85.3027 131.276 85.7243 131.753 86.2481C132.23 86.7718 132.595 87.3868 132.827 88.0558C133.059 88.7247 133.152 89.4337 133.101 90.1397Z" fill="#6DA117"/>
<path d="M47.5437 149.593C47.446 150.146 47.4721 150.714 47.6204 151.255C47.7687 151.796 48.0353 152.298 48.4012 152.724C48.767 153.151 49.223 153.49 49.7362 153.719C50.2494 153.949 50.8071 154.061 51.3691 154.049H43.9734C43.3353 154.053 42.7041 153.918 42.1241 153.652C41.5441 153.387 41.0294 152.998 40.6162 152.513C40.2029 152.027 39.9012 151.457 39.7322 150.843C39.5632 150.229 39.531 149.585 39.6379 148.957L50.9866 84.6653H52.6443C53.4335 84.6784 54.2107 84.8605 54.9234 85.1993C55.6361 85.5381 56.2677 86.0257 56.7754 86.6292C57.2831 87.2327 57.6551 87.9379 57.8664 88.6972C58.0776 89.4566 58.1231 90.2524 57.9998 91.0308L47.5437 149.593Z" fill="#6DA117"/>
<path d="M553.889 90.1398L537.057 280.595C536.916 282.325 536.13 283.938 534.855 285.117C533.58 286.296 531.909 286.954 530.171 286.961H504.924C503.942 286.961 502.971 286.753 502.075 286.35C501.18 285.948 500.38 285.36 499.729 284.626C499.079 283.892 498.591 283.028 498.3 282.092C498.008 281.156 497.919 280.168 498.038 279.195L508.621 189.951L433.006 191.224C432.029 191.24 431.061 191.041 430.17 190.64C429.28 190.238 428.489 189.645 427.856 188.903C427.222 188.161 426.76 187.287 426.505 186.346C426.249 185.405 426.205 184.418 426.376 183.458L426.631 181.803L443.972 88.994C444.206 87.7451 444.869 86.6168 445.847 85.8034C446.824 84.9901 448.055 84.5426 449.328 84.5382H473.428C474.217 84.5513 474.994 84.7334 475.707 85.0722C476.42 85.411 477.051 85.8986 477.559 86.5021C478.067 87.1055 478.439 87.8107 478.65 88.5701C478.861 89.3295 478.907 90.1252 478.783 90.9037L468.455 149.466C468.357 150.019 468.383 150.586 468.532 151.128C468.68 151.669 468.947 152.171 469.312 152.597C469.678 153.023 470.134 153.363 470.647 153.592C471.161 153.821 471.718 153.934 472.28 153.922H508.366L516.782 88.8667C516.959 87.6381 517.571 86.5132 518.506 85.6958C519.442 84.8784 520.64 84.4226 521.883 84.4109H548.788C549.508 84.4295 550.215 84.5953 550.868 84.8981C551.521 85.2009 552.104 85.6342 552.582 86.1713C553.061 86.7083 553.423 87.3376 553.648 88.0203C553.873 88.7029 553.954 89.4243 553.889 90.1398Z" fill="#B9C700"/>
<path d="M509.259 181.803L508.621 189.951L433.006 191.224C432.029 191.24 431.061 191.041 430.17 190.64C429.28 190.238 428.489 189.645 427.856 188.903C427.222 188.161 426.76 187.287 426.505 186.346C426.249 185.405 426.205 184.418 426.376 183.458L426.631 181.803H509.259Z" fill="#6DA117"/>
<path d="M553.89 90.1399L537.059 280.596C536.918 282.325 536.132 283.938 534.857 285.117C533.582 286.296 531.911 286.954 530.173 286.961H526.348L546.367 84.5382H548.79C549.506 84.5324 550.214 84.6775 550.87 84.9639C551.526 85.2503 552.113 85.6716 552.595 86.2003C553.076 86.729 553.44 87.3532 553.664 88.0321C553.887 88.7109 553.964 89.4291 553.89 90.1399Z" fill="#6DA117"/>
<path d="M468.454 149.593C468.356 150.146 468.382 150.714 468.531 151.255C468.679 151.796 468.945 152.298 469.311 152.724C469.677 153.151 470.133 153.49 470.646 153.72C471.16 153.949 471.717 154.061 472.279 154.049H464.884C464.245 154.054 463.614 153.918 463.034 153.653C462.454 153.387 461.94 152.998 461.526 152.513C461.113 152.027 460.811 151.457 460.642 150.843C460.473 150.229 460.441 149.585 460.548 148.957L471.897 84.6654H473.554C474.344 84.6785 475.121 84.8606 475.834 85.1994C476.546 85.5382 477.178 86.0258 477.686 86.6293C478.193 87.2328 478.565 87.938 478.777 88.6973C478.988 89.4567 479.033 90.2525 478.91 91.0309L468.454 149.593Z" fill="#6DA117"/>
<path opacity="0.28" d="M237.154 128.965L211.013 261.368C209.611 268.497 214.201 275.245 220.449 275.245H358.928C365.049 275.245 369.639 268.752 368.492 261.877L347.07 129.475C346.177 124.128 342.224 120.308 337.506 120.308H246.717C242.127 120.181 238.174 123.873 237.154 128.965Z" fill="#B9C700"/>
<path d="M355.234 137.244L367.857 179.129C367.907 179.341 368.003 179.539 368.138 179.709C368.273 179.88 368.444 180.019 368.639 180.116C368.833 180.213 369.047 180.266 369.264 180.272C369.482 180.277 369.698 180.235 369.898 180.148C370.242 180.015 370.523 179.758 370.688 179.429C370.853 179.099 370.89 178.72 370.79 178.366L362.502 135.462C362.371 134.921 362.124 134.414 361.779 133.977C361.434 133.54 360.998 133.182 360.502 132.928C360.006 132.674 359.46 132.531 358.903 132.507C358.346 132.482 357.79 132.579 357.274 132.789C356.452 133.16 355.793 133.816 355.418 134.635C355.043 135.454 354.978 136.381 355.234 137.244Z" fill="#FEC272"/>
<path d="M331.388 152.393L339.549 184.73C339.578 184.866 339.636 184.994 339.717 185.107C339.798 185.22 339.901 185.316 340.021 185.387C340.14 185.459 340.273 185.505 340.411 185.523C340.55 185.542 340.69 185.532 340.824 185.494C340.942 185.462 341.053 185.407 341.15 185.332C341.247 185.257 341.327 185.163 341.387 185.056C341.446 184.949 341.483 184.831 341.496 184.71C341.509 184.588 341.497 184.465 341.462 184.348L336.234 151.375C336.169 151.003 336.023 150.65 335.804 150.342C335.585 150.035 335.3 149.78 334.97 149.597C334.64 149.413 334.273 149.306 333.895 149.284C333.518 149.261 333.141 149.323 332.791 149.465C332.265 149.729 331.842 150.16 331.588 150.69C331.334 151.22 331.264 151.819 331.388 152.393Z" fill="#FEC272"/>
<path d="M225.043 141.318L214.46 173.528C214.422 173.67 214.353 173.802 214.257 173.914C214.162 174.026 214.043 174.116 213.909 174.177C213.775 174.238 213.629 174.268 213.482 174.266C213.334 174.264 213.189 174.229 213.057 174.164C212.819 174.06 212.625 173.875 212.509 173.643C212.392 173.41 212.361 173.144 212.42 172.891L220.07 139.918C220.168 139.554 220.342 139.215 220.58 138.923C220.819 138.631 221.116 138.393 221.454 138.225C221.791 138.056 222.161 137.961 222.538 137.946C222.915 137.93 223.291 137.995 223.641 138.136C224.226 138.401 224.692 138.872 224.951 139.459C225.21 140.047 225.243 140.709 225.043 141.318Z" fill="#FEC272"/>
<path d="M246.083 151.247L232.312 211.083C232.282 211.219 232.225 211.347 232.144 211.46C232.063 211.573 231.959 211.669 231.84 211.74C231.72 211.812 231.587 211.858 231.449 211.876C231.311 211.895 231.171 211.885 231.037 211.847C230.918 211.815 230.807 211.76 230.711 211.685C230.614 211.61 230.534 211.516 230.474 211.409C230.415 211.302 230.377 211.184 230.364 211.063C230.352 210.941 230.363 210.818 230.399 210.701L241.238 150.229C241.302 149.857 241.449 149.504 241.667 149.196C241.886 148.889 242.171 148.634 242.501 148.451C242.831 148.267 243.199 148.161 243.576 148.138C243.953 148.115 244.331 148.177 244.681 148.319C245.251 148.527 245.718 148.95 245.98 149.498C246.242 150.045 246.279 150.673 246.083 151.247Z" fill="#FEC272"/>
<path d="M275.284 158.246L268.653 201.658C268.635 201.8 268.585 201.936 268.507 202.056C268.429 202.176 268.324 202.276 268.202 202.35C268.079 202.423 267.941 202.468 267.798 202.481C267.655 202.493 267.512 202.473 267.378 202.422C267.14 202.344 266.936 202.189 266.797 201.981C266.658 201.774 266.593 201.525 266.613 201.276L270.183 157.482C270.239 157.116 270.374 156.767 270.578 156.458C270.783 156.15 271.052 155.89 271.368 155.696C271.683 155.502 272.037 155.379 272.405 155.336C272.773 155.292 273.146 155.33 273.498 155.445C273.8 155.511 274.086 155.637 274.339 155.813C274.592 155.99 274.807 156.215 274.973 156.475C275.139 156.736 275.252 157.026 275.305 157.33C275.358 157.633 275.351 157.945 275.284 158.246Z" fill="#FEC272"/>
<path d="M309.457 157.359L311.115 226.234C311.112 226.378 311.08 226.52 311.02 226.651C310.96 226.782 310.873 226.899 310.765 226.995C310.657 227.091 310.531 227.163 310.393 227.208C310.256 227.252 310.111 227.267 309.967 227.253C309.724 227.21 309.504 227.085 309.341 226.9C309.179 226.715 309.085 226.48 309.074 226.234L304.356 157.359C304.346 156.989 304.418 156.62 304.568 156.28C304.717 155.941 304.94 155.638 305.22 155.395C305.501 155.151 305.832 154.973 306.19 154.872C306.547 154.772 306.923 154.752 307.289 154.813C307.885 154.932 308.423 155.248 308.816 155.71C309.21 156.172 309.435 156.753 309.457 157.359Z" fill="#FEC272"/>
<path d="M176.968 94.8503C175.684 93.3479 174.612 91.6774 173.78 89.8852L170.848 70.2795L177.606 76.5177L176.968 94.8503Z" fill="#6DA117"/>
<path d="M367.218 101.471C363.638 108.255 359.132 114.511 353.829 120.058C342.353 132.28 322.971 146.156 294.153 146.156C273.878 146.156 258.832 139.409 248.121 131.261C238.039 123.647 229.983 113.681 224.658 102.234L367.218 101.471Z" fill="#6DA117"/>
<path d="M367.218 101.471C363.638 108.255 359.132 114.511 353.829 120.058C341.903 124.516 329.49 127.55 316.85 129.097C287.267 133.043 264.187 132.789 248.121 131.261C238.039 123.647 229.983 113.681 224.658 102.234L367.218 101.471Z" fill="#072506"/>
<path d="M412.104 69.5159C411.421 75.5695 410.313 81.5678 408.789 87.4666C408.356 89.0926 407.668 90.6396 406.749 92.0497C404.071 96.3783 398.97 101.089 390.682 105.545C389.279 106.308 387.622 107.072 385.964 107.836C384.689 108.473 383.414 108.982 382.011 109.619C380.098 110.382 378.186 111.146 376.145 111.91C367.811 114.744 359.29 116.999 350.643 118.658C349.878 118.785 349.24 118.912 348.475 119.039C346.562 119.421 344.267 119.676 341.845 119.931C331.643 121.076 318.127 121.84 303.718 122.095C301.04 122.095 298.363 122.222 295.685 122.222C282.041 122.349 268.27 121.968 256.283 121.331C253.733 121.204 251.183 121.076 248.888 120.822C242.984 120.447 237.108 119.725 231.291 118.658C224.788 117.384 218.922 115.984 213.694 114.456C211.526 113.82 209.486 113.183 207.446 112.547C191.634 107.327 182.071 100.961 177.098 95.1052C176.38 94.3196 175.739 93.4669 175.185 92.559C174.662 91.8083 174.233 90.9958 173.91 90.1401C173.5 89.3349 173.2 88.4785 173.017 87.5939C171.929 83.2362 171.12 78.8139 170.595 74.3536C170.085 70.1524 169.957 67.3516 169.957 67.3516L291.094 76.3906L412.232 69.6432L412.104 69.5159Z" fill="#CEEDA2"/>
<path d="M411.976 69.2612C411.756 70.5655 411.132 71.7678 410.191 72.6986C407.003 76.3906 399.352 81.8649 386.346 86.83C384.688 87.4666 382.903 88.1031 380.99 88.7397C380.098 88.9943 379.205 89.3762 378.312 89.6308C376.4 90.2674 374.359 90.9039 372.192 91.4132C363.859 93.745 355.383 95.5311 346.817 96.7602C344.521 97.1421 342.099 97.5241 339.548 97.7787C327.576 99.2927 315.529 100.143 303.462 100.325C300.912 100.325 298.234 100.452 295.556 100.452H295.429C281.785 100.452 269.161 99.8156 257.813 98.7972C255.262 98.5425 252.712 98.2879 250.289 98.0333C239.131 96.8067 228.059 94.8934 217.136 92.3044C214.968 91.7951 212.801 91.1586 210.76 90.6493C191.761 85.4296 179.265 78.9368 173.527 73.5898C172.523 72.6737 171.625 71.6489 170.849 70.5343C170.154 69.6129 169.754 68.5037 169.701 67.3516C169.701 58.3126 205.405 39.0888 296.067 39.0888C386.728 38.9615 411.976 63.0231 411.976 69.2612Z" fill="#6DA117"/>
<path d="M243.788 49.401L177.481 76.518C174.951 74.7599 172.676 72.6605 170.723 70.2798L241.62 48.2552L243.788 49.401Z" fill="#072506"/>
<path d="M411.977 69.3885C411.722 70.6435 411.101 71.7951 410.192 72.6986L342.1 49.4008L344.267 48.3824L411.977 69.3885Z" fill="#072506"/>
<path d="M255.007 56.4029L217.135 92.177C214.968 91.6678 212.8 91.0312 210.76 90.522L252.712 56.2756L255.007 56.4029Z" fill="#072506"/>
<path d="M275.794 60.6042L257.814 98.7972C255.264 98.5426 252.714 98.288 250.291 98.0334L273.498 60.4769L275.794 60.6042Z" fill="#072506"/>
<path d="M346.945 96.8875C344.65 97.2694 342.1 97.6514 339.677 97.906L322.08 60.6042L324.503 60.4769L346.945 96.8875Z" fill="#072506"/>
<path d="M303.461 100.452C300.911 100.452 298.233 100.58 295.555 100.58H295.428L298.488 63.0231L300.911 62.8958L303.461 100.452Z" fill="#072506"/>
<path d="M386.219 86.83C384.561 87.4666 382.776 88.1031 380.863 88.7397L335.086 56.4029L337.509 56.2756L386.219 86.83Z" fill="#072506"/>
<path d="M303.59 121.84C300.912 121.84 298.234 121.968 295.557 121.968V100.452L303.462 100.325L303.59 121.84Z" fill="#6DA117"/>
<path d="M348.22 118.785C346.18 119.167 344.012 119.421 341.589 119.676L339.549 97.7787L346.817 96.7602L348.22 118.785Z" fill="#6DA117"/>
<path d="M390.554 105.417C389.151 106.181 387.493 106.945 385.836 107.709L380.99 88.6124L386.218 86.83L390.554 105.417Z" fill="#6DA117"/>
<path d="M257.813 98.7972L256.282 121.076C253.732 120.949 251.182 120.822 248.887 120.567L250.417 98.0333L257.813 98.7972Z" fill="#6DA117"/>
<path d="M217.137 92.177L213.566 114.202C211.399 113.565 209.359 112.929 207.318 112.292L210.634 90.522L217.137 92.177Z" fill="#6DA117"/>
<path d="M177.606 76.7724L175.055 92.4316C174.532 91.6809 174.104 90.8684 173.78 90.0127C173.37 89.2074 173.07 88.3511 172.888 87.4665C171.8 83.1088 170.99 78.6865 170.465 74.2262L170.847 70.4069C170.847 70.4069 173.015 72.9531 173.908 73.8443C174.673 74.6082 177.606 76.7724 177.606 76.7724Z" fill="#6DA117"/>
<path d="M290.072 78.1727C327.608 78.1727 358.036 69.5659 358.036 58.9489C358.036 48.3319 327.608 39.7251 290.072 39.7251C252.536 39.7251 222.107 48.3319 222.107 58.9489C222.107 69.5659 252.536 78.1727 290.072 78.1727Z" fill="#072506"/>
<path d="M352.173 55.8936C352.173 55.8936 347.2 61.4952 334.959 66.333C325.905 69.8976 312.899 72.9531 295.047 72.9531C286.492 73.0094 277.952 72.242 269.545 70.6615C245.7 66.0783 235.371 56.1482 235.371 56.1482C235.371 56.1482 240.599 17.4459 273.242 4.33301C280.795 1.37894 288.849 -0.0908198 296.96 0.00447626C341.844 0.00447626 352.173 55.8936 352.173 55.8936Z" fill="#CEEDA2"/>
<path d="M269.545 70.6615C245.7 66.0783 235.371 56.1482 235.371 56.1482C235.371 56.1482 240.599 17.4459 273.242 4.33301C266.867 9.68003 260.619 20.3741 259.599 37.8155C258.578 50.8011 261.639 61.6225 269.545 70.6615Z" fill="#CEEDA2"/>
<path d="M352.174 55.8935C352.174 55.8935 347.201 61.4952 334.96 66.333C333.683 61.7205 332.064 57.2097 330.114 52.8381C330.114 52.8381 318.128 55.3843 312.772 44.0537C307.417 32.7231 320.296 24.5753 320.296 24.5753C320.296 24.5753 317.235 14.7724 301.424 8.40693C285.612 2.04144 272.988 4.33301 272.988 4.33301C280.541 1.37894 288.594 -0.0908198 296.706 0.00447626C341.845 0.00447626 352.174 55.8935 352.174 55.8935Z" fill="#CEEDA2"/>
<path d="M300.785 31.9593C302.686 31.9593 304.227 30.4773 304.227 28.6492C304.227 26.8212 302.686 25.3392 300.785 25.3392C298.883 25.3392 297.342 26.8212 297.342 28.6492C297.342 30.4773 298.883 31.9593 300.785 31.9593Z" fill="#CEEDA2"/>
<path d="M288.799 35.142C290.278 35.142 291.477 34.002 291.477 32.5958C291.477 31.1896 290.278 30.0496 288.799 30.0496C287.32 30.0496 286.121 31.1896 286.121 32.5958C286.121 34.002 287.32 35.142 288.799 35.142Z" fill="#CEEDA2"/>
<path d="M296.832 52.3288C299.719 52.3288 302.06 50.0489 302.06 47.2364C302.06 44.424 299.719 42.144 296.832 42.144C293.944 42.144 291.604 44.424 291.604 47.2364C291.604 50.0489 293.944 52.3288 296.832 52.3288Z" fill="#CEEDA2"/>
</g>
<defs>
<clipPath id="clip0_1973_2941">
<rect width="578" height="296" fill="white"/>
</clipPath>
</defs>
</svg>
