<svg width="768" height="402" viewBox="0 0 768 402" fill="none" xmlns="http://www.w3.org/2000/svg">
<path d="M127.032 162.03C148.204 162.03 166.69 165.664 182.49 172.932C198.29 179.884 210.456 190.47 218.988 204.69C227.52 218.594 231.786 235.658 231.786 255.882C231.786 274.526 227.994 291.748 220.41 307.548C212.826 323.032 200.028 335.672 182.016 345.468C164.32 355.264 141.252 360.162 112.812 360.162C95.432 360.162 79.474 358.424 64.938 354.948C50.718 351.788 37.13 347.206 24.174 341.202L45.978 292.854C66.518 301.702 86.9 306.126 107.124 306.126C126.716 306.126 141.094 301.702 150.258 292.854C159.738 284.006 164.478 273.104 164.478 260.148C164.478 250.036 162.74 241.346 159.264 234.078C155.788 226.81 149.31 221.122 139.83 217.014C130.666 212.906 117.868 210.852 101.436 210.852C94.8 210.852 88.006 211.326 81.054 212.274C74.418 212.906 69.362 213.854 65.886 215.118L42.66 196.158V46.848H223.254L215.67 100.884H108.072V162.978C116.288 162.346 122.608 162.03 127.032 162.03ZM381.115 360.636C358.047 360.636 338.139 354.948 321.391 343.572C304.643 331.88 291.687 314.184 282.523 290.484C273.359 266.468 268.777 236.448 268.777 200.424C268.777 159.344 274.623 126.954 286.315 103.254C298.007 79.554 312.701 63.122 330.397 53.958C348.093 44.794 366.895 40.212 386.803 40.212C422.195 40.212 449.687 53.168 469.279 79.08C489.187 104.676 499.141 145.44 499.141 201.372C499.141 260.78 487.607 302.176 464.539 325.56C441.787 348.944 413.979 360.636 381.115 360.636ZM382.537 303.756C393.597 303.756 402.603 300.438 409.555 293.802C416.823 287.166 422.195 276.422 425.671 261.57C429.147 246.402 430.885 226.02 430.885 200.424C430.885 165.664 427.409 139.752 420.457 122.688C413.505 105.624 401.813 97.092 385.381 97.092C374.321 97.092 365.157 100.568 357.889 107.52C350.937 114.156 345.723 125.216 342.247 140.7C338.771 155.868 337.033 176.092 337.033 201.372C337.033 236.132 340.509 261.886 347.461 278.634C354.413 295.382 366.105 303.756 382.537 303.756ZM637.093 360.636C614.025 360.636 594.117 354.948 577.369 343.572C560.621 331.88 547.665 314.184 538.501 290.484C529.337 266.468 524.755 236.448 524.755 200.424C524.755 159.344 530.601 126.954 542.293 103.254C553.985 79.554 568.679 63.122 586.375 53.958C604.071 44.794 622.873 40.212 642.781 40.212C678.173 40.212 705.665 53.168 725.257 79.08C745.165 104.676 755.119 145.44 755.119 201.372C755.119 260.78 743.585 302.176 720.517 325.56C697.765 348.944 669.957 360.636 637.093 360.636ZM638.515 303.756C649.575 303.756 658.581 300.438 665.533 293.802C672.801 287.166 678.173 276.422 681.649 261.57C685.125 246.402 686.863 226.02 686.863 200.424C686.863 165.664 683.387 139.752 676.435 122.688C669.483 105.624 657.791 97.092 641.359 97.092C630.299 97.092 621.135 100.568 613.867 107.52C606.915 114.156 601.701 125.216 598.225 140.7C594.749 155.868 593.011 176.092 593.011 201.372C593.011 236.132 596.487 261.886 603.439 278.634C610.391 295.382 622.083 303.756 638.515 303.756Z" fill="#6DA117" fill-opacity="0.24"/>
<path d="M497.175 239.306C532.988 239.306 562.019 210.254 562.019 174.417C562.019 138.58 532.988 109.528 497.175 109.528C461.363 109.528 432.332 138.58 432.332 174.417C432.332 210.254 461.363 239.306 497.175 239.306Z" fill="white"/>
<path d="M283.84 239.306C319.652 239.306 348.683 210.254 348.683 174.417C348.683 138.58 319.652 109.528 283.84 109.528C248.027 109.528 218.996 138.58 218.996 174.417C218.996 210.254 248.027 239.306 283.84 239.306Z" fill="white"/>
<path d="M321.962 122.046C328.599 132.265 332.429 144.357 332.429 157.471C332.429 193.322 303.411 222.36 267.585 222.36C253.289 222.36 240.099 217.677 229.377 209.842C240.95 227.555 260.948 239.306 283.754 239.306C319.579 239.306 348.597 210.268 348.597 174.417C348.597 152.873 338.13 133.798 321.962 122.046Z" fill="#EFEFEF"/>
<path d="M535.3 122.046C541.937 132.265 545.767 144.357 545.767 157.471C545.767 193.322 516.749 222.36 480.923 222.36C466.627 222.36 453.437 217.677 442.715 209.842C454.288 227.64 474.286 239.306 497.091 239.306C532.917 239.306 561.935 210.268 561.935 174.417C561.935 152.873 551.383 133.798 535.3 122.046Z" fill="#EFEFEF"/>
<path d="M283.839 242.287C246.482 242.287 216.018 211.801 216.018 174.417C216.018 137.034 246.397 106.548 283.839 106.548C321.197 106.548 351.661 137.034 351.661 174.417C351.661 211.801 321.197 242.287 283.839 242.287ZM283.839 112.509C249.716 112.509 221.974 140.27 221.974 174.417C221.974 208.565 249.716 236.326 283.839 236.326C317.963 236.326 345.704 208.565 345.704 174.417C345.704 140.27 317.963 112.509 283.839 112.509Z" fill="#231F20"/>
<path d="M283.84 215.122C301.182 215.122 315.241 201.054 315.241 183.699C315.241 166.345 301.182 152.277 283.84 152.277C266.498 152.277 252.439 166.345 252.439 183.699C252.439 201.054 266.498 215.122 283.84 215.122Z" fill="#231F20"/>
<path d="M276.096 190.852C283.192 190.852 288.945 185.095 288.945 177.994C288.945 170.892 283.192 165.135 276.096 165.135C268.999 165.135 263.246 170.892 263.246 177.994C263.246 185.095 268.999 190.852 276.096 190.852Z" fill="white"/>
<path d="M497.175 242.287C459.818 242.287 429.354 211.801 429.354 174.417C429.354 137.034 459.818 106.548 497.175 106.548C534.533 106.548 564.997 137.034 564.997 174.417C564.997 211.801 534.533 242.287 497.175 242.287ZM497.175 112.509C463.052 112.509 435.31 140.27 435.31 174.417C435.31 208.565 463.052 236.326 497.175 236.326C531.299 236.326 559.04 208.565 559.04 174.417C559.04 140.27 531.299 112.509 497.175 112.509Z" fill="#231F20"/>
<path d="M497.176 215.122C514.518 215.122 528.577 201.054 528.577 183.699C528.577 166.345 514.518 152.277 497.176 152.277C479.834 152.277 465.775 166.345 465.775 183.699C465.775 201.054 479.834 215.122 497.176 215.122Z" fill="#231F20"/>
<path d="M489.432 190.852C496.528 190.852 502.281 185.095 502.281 177.994C502.281 170.892 496.528 165.135 489.432 165.135C482.335 165.135 476.582 170.892 476.582 177.994C476.582 185.095 482.335 190.852 489.432 190.852Z" fill="white"/>
<path d="M206.657 37.7418C219.932 50.8558 233.037 28.4598 275.755 22.8395C311.411 18.1559 333.025 33.0582 339.578 22.584C346.045 12.0246 318.389 -3.89955 265.969 0.869191C227.08 4.44575 191.255 22.584 206.657 37.7418Z" fill="#231F20"/>
<path d="M555.298 31.866C538.704 22.4988 531.045 47.5347 489.348 63.8847C454.629 77.5097 429.1 68.4831 425.185 80.3198C421.186 92.1565 453.012 100.587 504.58 82.7042C542.959 69.3347 574.53 42.6808 555.298 31.866Z" fill="#231F20"/>
<path d="M265.715 386.115C265.715 386.115 313.284 290.4 397.614 292.529C481.945 294.743 510.537 353.33 510.537 353.33C510.537 353.33 474.456 318.927 405.018 324.207C315.241 331.019 265.715 386.115 265.715 386.115Z" fill="#231F20"/>
<path d="M506.366 327.869C510.962 333.233 514.11 339.79 515.642 346.688C517.003 352.904 517.599 361.165 512.834 366.189C510.621 368.573 507.302 370.021 504.069 369.254C501.346 368.573 500.154 372.746 502.877 373.427C506.622 374.364 510.621 373.427 513.77 371.128C517.088 368.658 519.216 364.997 520.152 360.909C522.024 352.904 520.067 344.048 516.833 336.554C514.961 332.212 512.408 328.294 509.43 324.718C508.664 323.781 507.132 323.951 506.366 324.718C505.43 325.654 505.6 326.932 506.366 327.869Z" fill="#231F20"/>
<path d="M271.161 396.589C265.119 397.441 258.482 394.546 254.822 389.607C250.908 384.242 250.483 376.748 253.631 370.872C254.993 368.403 251.248 366.189 249.887 368.658C246.823 374.279 246.313 381.261 248.696 387.222C250.993 393.183 255.844 397.611 261.885 399.825C265.289 401.018 268.778 401.273 272.352 400.762C273.544 400.592 274.139 399.144 273.884 398.037C273.544 396.845 272.352 396.419 271.161 396.589Z" fill="#231F20"/>
</svg>
