<svg width="30" height="30" viewBox="0 0 30 30" fill="none" xmlns="http://www.w3.org/2000/svg">
<path d="M8.75 13.75V14.375M6.25 5C6.25 3.61929 7.36929 2.5 8.75 2.5C10.0932 2.5 11.25 3.5122 11.25 4.89872C11.25 5.37229 11.1098 5.83526 10.8471 6.2293L9.44337 8.33494C8.99126 9.01311 8.75 9.80994 8.75 10.625" stroke="#072506" stroke-width="1.875" stroke-linecap="round" stroke-linejoin="round"/>
<path d="M5 15V18.1802C5 22.2365 5 24.2646 6.10759 25.6384C6.33135 25.9159 6.58414 26.1686 6.86166 26.3924C8.23539 27.5 10.2635 27.5 14.3198 27.5C15.2018 27.5 15.6426 27.5 16.0465 27.3575C16.1305 27.3279 16.2128 27.2938 16.2931 27.2554C16.6795 27.0705 16.9912 26.7588 17.6149 26.1351L23.5355 20.2145C24.2581 19.4919 24.6194 19.1306 24.8097 18.6711C25 18.2118 25 17.7007 25 16.6789V12.5C25 7.78595 25 5.42894 23.5355 3.96446C22.0711 2.5 19.714 2.5 15 2.5M16.25 26.875V26.25C16.25 22.7145 16.25 20.9468 17.3484 19.8484C18.4468 18.75 20.2145 18.75 23.75 18.75H24.375" stroke="#072506" stroke-width="1.875" stroke-linecap="round" stroke-linejoin="round"/>
</svg>
