<svg width="34" height="34" viewBox="0 0 34 34" fill="none" xmlns="http://www.w3.org/2000/svg">
<path d="M8.5 25.4639C8.68232 27.3174 9.09438 28.5651 10.0256 29.4963C11.6959 31.1667 14.3843 31.1667 19.7609 31.1667C25.1376 31.1667 27.826 31.1667 29.4963 29.4963C31.1667 27.826 31.1667 25.1376 31.1667 19.7609C31.1667 14.3843 31.1667 11.6959 29.4963 10.0256C28.5651 9.09438 27.3174 8.68232 25.4639 8.5" stroke="#C8C8C8" stroke-width="2"/>
<path d="M2.83325 14.1666C2.83325 8.824 2.83325 6.15271 4.49298 4.49298C6.15271 2.83325 8.824 2.83325 14.1666 2.83325C19.5091 2.83325 22.1805 2.83325 23.8402 4.49298C25.4999 6.15271 25.4999 8.824 25.4999 14.1666C25.4999 19.5091 25.4999 22.1805 23.8402 23.8402C22.1805 25.4999 19.5091 25.4999 14.1666 25.4999C8.824 25.4999 6.15271 25.4999 4.49298 23.8402C2.83325 22.1805 2.83325 19.5091 2.83325 14.1666Z" stroke="#C8C8C8" stroke-width="2"/>
<path d="M2.83325 15.7512C3.7102 15.6397 4.59678 15.5847 5.48484 15.5866C9.24176 15.5171 12.9067 16.5414 15.8256 18.4767C18.5328 20.2716 20.4349 22.7417 21.2499 25.5" stroke="#C8C8C8" stroke-width="2" stroke-linejoin="round"/>
<path d="M18.4165 9.91675H18.4293" stroke="#C8C8C8" stroke-width="2" stroke-linecap="round" stroke-linejoin="round"/>
</svg>
