<svg width="50" height="50" viewBox="0 0 50 50" fill="none" xmlns="http://www.w3.org/2000/svg">
<path d="M4.16602 45.8333H27.0827C37.4381 45.8333 45.8327 37.4387 45.8327 27.0833C45.8327 16.728 37.4381 8.33333 27.0827 8.33333C17.4315 8.33333 9.36902 15.6251 8.33268 25" stroke="#6DA117" stroke-width="3.5" stroke-linecap="round"/>
<path d="M38.5423 11.4583L40.6257 9.375M11.459 9.375L13.5423 11.4583" stroke="#6DA117" stroke-width="3.5" stroke-linecap="round" stroke-linejoin="round"/>
<path d="M34.3743 18.7501L28.2508 24.8737M28.2508 24.8737C27.6852 24.3081 26.9039 23.9583 26.041 23.9583C24.3152 23.9583 22.916 25.3575 22.916 27.0833C22.916 28.8094 24.3152 30.2083 26.041 30.2083C27.7668 30.2083 29.166 28.8094 29.166 27.0833C29.166 26.2204 28.8162 25.4392 28.2508 24.8737Z" stroke="#6DA117" stroke-width="3.5" stroke-linecap="round"/>
<path d="M26.041 7.29167V4.16667" stroke="#6DA117" stroke-width="3.5" stroke-linecap="round" stroke-linejoin="round"/>
<path d="M21.875 4.16666H30.2083" stroke="#6DA117" stroke-width="3.5" stroke-linecap="round" stroke-linejoin="round"/>
<path d="M4.16602 31.25H10.416" stroke="#6DA117" stroke-width="3.5" stroke-linecap="round" stroke-linejoin="round"/>
<path d="M4.16602 39.5833H14.5827" stroke="#6DA117" stroke-width="3.5" stroke-linecap="round" stroke-linejoin="round"/>
</svg>
