<svg width="45" height="45" viewBox="0 0 45 45" fill="none" xmlns="http://www.w3.org/2000/svg">
<rect width="45" height="45" rx="5" fill="#6DA117"/>
<path d="M28.7505 25.624C28.7505 26.9184 29.7999 27.9678 31.0942 27.9678C32.3886 27.9678 33.438 26.9184 33.438 25.624C33.438 24.3296 32.3886 23.2803 31.0942 23.2803C29.7999 23.2803 28.7505 24.3296 28.7505 25.624Z" stroke="white" stroke-width="3"/>
<path d="M19.3755 14.6865H28.7505C33.1699 14.6865 35.3795 14.6865 36.7525 16.0595C38.1255 17.4324 38.1255 19.6421 38.1255 24.0615V27.1865C38.1255 31.6059 38.1255 33.8156 36.7525 35.1886C35.3795 36.5615 33.1699 36.5615 28.7505 36.5615H19.3755C13.4829 36.5615 10.5367 36.5615 8.70607 34.7309C6.87549 32.9004 6.87549 29.954 6.87549 24.0615V20.9365C6.87549 15.044 6.87549 12.0977 8.70607 10.2671C10.5367 8.43652 13.4829 8.43652 19.3755 8.43652H25.6255C27.0786 8.43652 27.8052 8.43652 28.4013 8.59624C30.0188 9.02968 31.2824 10.2932 31.7158 11.9108C31.8755 12.5069 31.8755 13.2334 31.8755 14.6865" stroke="white" stroke-width="3" stroke-linecap="round"/>
</svg>
