<svg width="30" height="30" viewBox="0 0 30 30" fill="none" xmlns="http://www.w3.org/2000/svg">
<path d="M21.875 27.5C21.875 27.5 21.25 25 21.25 21.25C21.25 14.25 22.9166 5.83334 23.75 2.5C24.5834 6.25 26.25 15 26.25 20C26.25 21.5251 26.0174 23.283 25.836 24.4219C25.7146 25.1838 25.2214 25.8267 24.5314 26.1719L21.875 27.5ZM21.875 27.5H6.32694C5.17978 27.5 4.18831 26.7158 4.03435 25.5789C3.88802 24.4985 3.75 23.0123 3.75 21.25C3.75 13.75 6.25 6.25 6.25 6.25" stroke="#072506" stroke-width="1.875" stroke-linecap="round" stroke-linejoin="round"/>
<path d="M7.22547 2.5H23.7495C23.6296 2.97946 23.4925 3.56411 23.3456 4.23459C23.0898 5.4024 22.066 6.25 20.8704 6.25H5.42847C5.63735 5.18296 5.84092 4.23455 6.02213 3.44898C6.15105 2.89008 6.65188 2.5 7.22547 2.5Z" stroke="#072506" stroke-width="1.875" stroke-linecap="round" stroke-linejoin="round"/>
<path d="M7.52674 22.5924C7.50972 22.166 7.5 21.7177 7.5 21.25C7.5 19.1855 7.64496 16.9979 7.87077 14.8536C7.93711 14.2238 8.47152 13.75 9.10497 13.75H16.5875C17.3361 13.75 17.916 14.4036 17.8402 15.1484C17.632 17.1979 17.5 19.28 17.5 21.25C17.5 21.6496 17.5071 22.035 17.5198 22.4047C17.5448 23.1315 16.973 23.75 16.2458 23.75H8.75284C8.0988 23.75 7.55282 23.2459 7.52674 22.5924Z" stroke="#072506" stroke-width="1.875" stroke-linecap="round" stroke-linejoin="round"/>
</svg>
