<svg width="60" height="60" viewBox="0 0 60 60" fill="none" xmlns="http://www.w3.org/2000/svg">
<circle cx="30" cy="30" r="30" fill="#CE4328"/>
<path d="M41.875 19.708L40.8938 35.5811C40.643 39.6365 40.5178 41.6643 39.5013 43.1222C38.9986 43.8429 38.3516 44.4512 37.6011 44.9083C36.0833 45.833 34.0517 45.833 29.9884 45.833C25.9199 45.833 23.8856 45.833 22.3668 44.9066C21.6159 44.4487 20.9687 43.8393 20.4662 43.1173C19.4501 41.6571 19.3275 39.6265 19.0823 35.5654L18.125 19.708" stroke="white" stroke-width="3" stroke-linecap="round"/>
<path d="M15.75 19.7087H44.25M36.4215 19.7087L35.3407 17.4789C34.6227 15.9977 34.2636 15.2571 33.6444 14.7953C33.5071 14.6928 33.3616 14.6017 33.2094 14.5228C32.5237 14.167 31.7007 14.167 30.0546 14.167C28.3673 14.167 27.5237 14.167 26.8265 14.5377C26.672 14.6198 26.5246 14.7147 26.3857 14.8212C25.7593 15.3018 25.4093 16.0694 24.7095 17.6048L23.7505 19.7087" stroke="white" stroke-width="3" stroke-linecap="round"/>
<path d="M26.042 37.125V27.625" stroke="white" stroke-width="3" stroke-linecap="round"/>
<path d="M33.958 37.125V27.625" stroke="white" stroke-width="3" stroke-linecap="round"/>
</svg>
