<svg width="50" height="50" viewBox="0 0 50 50" fill="none" xmlns="http://www.w3.org/2000/svg">
<path d="M43.75 14.5833V25M6.25 14.5833C6.25 20.9677 6.25 34.9463 6.25 35.7527C6.25 38.6329 10.3034 40.3452 18.4103 43.7698C21.6671 45.1454 23.2954 45.8333 25 45.8333V23.6558" stroke="#898483" stroke-width="2.5" stroke-linecap="round" stroke-linejoin="round"/>
<path d="M31.25 39.5833C31.25 39.5833 33.0729 39.5833 34.8958 43.75C34.8958 43.75 40.6863 33.3333 45.8333 31.25" stroke="#898483" stroke-width="2.5" stroke-linecap="round" stroke-linejoin="round"/>
<path d="M17.3457 20.1904L11.2598 17.2455C7.91994 15.6294 6.25 14.8213 6.25 13.5417C6.25 12.262 7.91994 11.454 11.2598 9.83781L17.3457 6.89296C21.1017 5.07543 22.9798 4.16666 25 4.16666C27.0202 4.16666 28.8983 5.07541 32.6544 6.89296L38.7402 9.83781C42.08 11.454 43.75 12.262 43.75 13.5417C43.75 14.8213 42.08 15.6294 38.7402 17.2455L32.6544 20.1904C28.8983 22.0079 27.0202 22.9167 25 22.9167C22.9798 22.9167 21.1017 22.0079 17.3457 20.1904Z" stroke="#898483" stroke-width="2.5" stroke-linecap="round" stroke-linejoin="round"/>
<path d="M12.5 25L16.6667 27.0833" stroke="#898483" stroke-width="2.5" stroke-linecap="round" stroke-linejoin="round"/>
<path d="M35.4173 8.33333L14.584 18.75" stroke="#898483" stroke-width="2.5" stroke-linecap="round" stroke-linejoin="round"/>
</svg>
