<svg width="25" height="25" viewBox="0 0 25 25" fill="none" xmlns="http://www.w3.org/2000/svg">
<path d="M8.01187 20.4331C8.62753 20.4331 8.93535 20.4331 9.21579 20.5372C9.25474 20.5515 9.29313 20.5675 9.33089 20.5848C9.60277 20.7096 9.82044 20.9272 10.2558 21.3625C11.2578 22.3645 11.7587 22.8655 12.3752 22.9117C12.458 22.9179 12.5413 22.9179 12.6242 22.9117C13.2406 22.8655 13.7417 22.3645 14.7435 21.3625C15.1789 20.9272 15.3966 20.7096 15.6684 20.5848C15.7062 20.5675 15.7446 20.5515 15.7835 20.5372C16.0641 20.4331 16.3719 20.4331 16.9875 20.4331H17.101C18.6718 20.4331 19.4572 20.4331 19.9451 19.9451C20.4331 19.4572 20.4331 18.6718 20.4331 17.101V16.9875C20.4331 16.3719 20.4331 16.0641 20.5372 15.7835C20.5515 15.7446 20.5675 15.7062 20.5848 15.6684C20.7096 15.3966 20.9272 15.1789 21.3625 14.7435C22.3645 13.7417 22.8655 13.2406 22.9117 12.6242C22.9179 12.5413 22.9179 12.458 22.9117 12.3752C22.8655 11.7587 22.3645 11.2578 21.3625 10.2558C20.9272 9.82044 20.7096 9.60277 20.5848 9.33089C20.5675 9.29313 20.5515 9.25474 20.5372 9.21579C20.4331 8.93535 20.4331 8.62753 20.4331 8.01187V7.89831C20.4331 6.32758 20.4331 5.54221 19.9451 5.05425C19.4572 4.56628 18.6718 4.56628 17.101 4.56628H16.9875C16.3719 4.56628 16.0641 4.56628 15.7835 4.46223C15.7446 4.44778 15.7062 4.43187 15.6684 4.41455C15.3966 4.28983 15.1789 4.07216 14.7435 3.63683C13.7417 2.63485 13.2406 2.13386 12.6242 2.08766C12.5413 2.08146 12.458 2.08146 12.3752 2.08766C11.7587 2.13386 11.2578 2.63485 10.2558 3.63683C9.82044 4.07216 9.60277 4.28983 9.33089 4.41455C9.29313 4.43187 9.25474 4.44778 9.21579 4.46223C8.93535 4.56628 8.62753 4.56628 8.01187 4.56628H7.89831C6.32758 4.56628 5.54221 4.56628 5.05425 5.05425C4.56628 5.54221 4.56628 6.32758 4.56628 7.89831V8.01187C4.56628 8.62753 4.56628 8.93535 4.46223 9.21579C4.44778 9.25474 4.43187 9.29313 4.41455 9.33089C4.28983 9.60277 4.07216 9.82044 3.63683 10.2558C2.63485 11.2578 2.13386 11.7587 2.08766 12.3752C2.08146 12.458 2.08146 12.5413 2.08766 12.6242C2.13386 13.2406 2.63485 13.7417 3.63683 14.7435C4.07216 15.1789 4.28983 15.3966 4.41455 15.6684C4.43187 15.7062 4.44778 15.7446 4.46223 15.7835C4.56628 16.0641 4.56628 16.3719 4.56628 16.9875V17.101C4.56628 18.6718 4.56628 19.4572 5.05425 19.9451C5.54221 20.4331 6.32758 20.4331 7.89831 20.4331H8.01187Z" fill="#6DA117"/>
<path d="M15.625 9.375L9.375 15.625" stroke="white" stroke-width="1.5" stroke-linecap="round" stroke-linejoin="round"/>
<path d="M15.625 15.625H15.6137M9.38621 9.375H9.375" stroke="white" stroke-width="2" stroke-linecap="round" stroke-linejoin="round"/>
</svg>
