<svg width="60" height="60" viewBox="0 0 60 60" fill="none" xmlns="http://www.w3.org/2000/svg">
<circle cx="30" cy="30" r="30" fill="#6DA117"/>
<path d="M15.0054 34.3855C14.6687 36.5927 16.174 38.1247 18.0171 38.8882C25.0831 41.8155 34.9162 41.8155 41.9822 38.8882C43.8253 38.1247 45.3306 36.5927 44.994 34.3855C44.7871 33.0291 43.7639 31.8995 43.0058 30.7966C42.0129 29.3342 41.9143 27.739 41.9141 26.042C41.9141 19.4836 36.5798 14.167 29.9997 14.167C23.4195 14.167 18.0853 19.4836 18.0853 26.042C18.0851 27.739 17.9865 29.3342 16.9936 30.7966C16.2355 31.8995 15.2123 33.0291 15.0054 34.3855Z" stroke="white" stroke-width="3" stroke-linecap="round" stroke-linejoin="round"/>
<path d="M23.667 41.083C24.3929 43.8146 26.9532 45.833 30.0003 45.833C33.0474 45.833 35.6077 43.8146 36.3337 41.083" stroke="white" stroke-width="3" stroke-linecap="round" stroke-linejoin="round"/>
<circle cx="39.7" cy="18.7" r="5.7" fill="#6DA117"/>
<path d="M42.9941 16.678L42.809 16.3568C42.669 16.1139 42.599 15.9924 42.4799 15.944C42.3608 15.8955 42.2261 15.9337 41.9567 16.0102L41.4992 16.1391C41.3272 16.1787 41.1467 16.1562 40.9897 16.0755L40.8634 16.0027C40.7287 15.9164 40.6251 15.7892 40.5678 15.6398L40.4426 15.2658C40.3602 15.0183 40.3191 14.8945 40.221 14.8237C40.1231 14.7529 39.9929 14.7529 39.7325 14.7529H39.3144C39.054 14.7529 38.9238 14.7529 38.8258 14.8237C38.7278 14.8945 38.6866 15.0183 38.6043 15.2658L38.4791 15.6398C38.4217 15.7892 38.3182 15.9164 38.1835 16.0027L38.0572 16.0755C37.9002 16.1562 37.7197 16.1787 37.5477 16.1391L37.0902 16.0102C36.8208 15.9337 36.6861 15.8955 36.567 15.944C36.4479 15.9924 36.3779 16.1139 36.2379 16.3568L36.0528 16.678C35.9216 16.9057 35.856 17.0196 35.8687 17.1408C35.8815 17.262 35.9693 17.3597 36.145 17.555L36.5316 17.9873C36.6261 18.1069 36.6932 18.3154 36.6932 18.5029C36.6932 18.6904 36.6261 18.8989 36.5316 19.0185L36.145 19.4508C35.9693 19.6462 35.8815 19.7438 35.8687 19.865C35.856 19.9862 35.9216 20.1001 36.0528 20.3278L36.2379 20.649C36.3779 20.8919 36.4479 21.0134 36.567 21.0619C36.6861 21.1103 36.8208 21.0721 37.0902 20.9956L37.5477 20.8667C37.7197 20.8271 37.9002 20.8496 38.0573 20.9303L38.1836 21.0032C38.3182 21.0895 38.4217 21.2166 38.4791 21.3661L38.6043 21.7401C38.6866 21.9876 38.7278 22.1114 38.8258 22.1822C38.9238 22.2529 39.054 22.2529 39.3144 22.2529H39.7325C39.9929 22.2529 40.1231 22.2529 40.221 22.1822C40.3191 22.1114 40.3602 21.9876 40.4426 21.7401L40.5678 21.3661C40.6251 21.2166 40.7287 21.0895 40.8633 21.0032L40.9896 20.9303C41.1467 20.8496 41.3271 20.8271 41.4992 20.8667L41.9567 20.9956C42.2261 21.0721 42.3608 21.1103 42.4799 21.0619C42.599 21.0134 42.669 20.8919 42.809 20.649L42.9941 20.3278C43.1253 20.1001 43.1909 19.9862 43.1781 19.865C43.1654 19.7438 43.0776 19.6462 42.9019 19.4508L42.5153 19.0185C42.4208 18.8989 42.3537 18.6904 42.3537 18.5029C42.3537 18.3154 42.4208 18.1069 42.5153 17.9873L42.9019 17.555C43.0776 17.3597 43.1654 17.262 43.1781 17.1408C43.1909 17.0196 43.1253 16.9057 42.9941 16.678Z" stroke="white" stroke-width="0.5" stroke-linecap="round"/>
<path d="M40.8193 18.5C40.8193 19.2249 40.2317 19.8125 39.5068 19.8125C38.7819 19.8125 38.1943 19.2249 38.1943 18.5C38.1943 17.7751 38.7819 17.1875 39.5068 17.1875C40.2317 17.1875 40.8193 17.7751 40.8193 18.5Z" stroke="white" stroke-width="0.5"/>
</svg>
