<svg width="34" height="34" viewBox="0 0 34 34" fill="none" xmlns="http://www.w3.org/2000/svg">
<path fill-rule="evenodd" clip-rule="evenodd" d="M8.75725 14.6395C7.37209 14.6395 7.08301 14.9114 7.08301 16.2136V18.5747C7.08301 19.8771 7.37209 20.1488 8.75725 20.1488H12.1057V29.5933C12.1057 30.8955 12.3948 31.1673 13.78 31.1673H17.1285C18.5137 31.1673 18.8027 30.8955 18.8027 29.5933V20.1488H22.5625C23.6131 20.1488 23.8838 19.9568 24.1724 19.0072L24.8899 16.6461C25.3842 15.0193 25.0796 14.6395 23.28 14.6395H18.8027V10.7044C18.8027 9.83502 19.5522 9.13027 20.4769 9.13027H25.2421C26.6272 9.13027 26.9163 8.85849 26.9163 7.5562V4.40806C26.9163 3.10577 26.6272 2.83398 25.2421 2.83398H20.4769C15.8536 2.83398 12.1057 6.35767 12.1057 10.7044V14.6395H8.75725Z" stroke="#6DA117" stroke-width="2.5" stroke-linejoin="round"/>
</svg>
