<svg width="79" height="75" viewBox="0 0 79 75" fill="none" xmlns="http://www.w3.org/2000/svg">
<path d="M79.0004 46.1001C79.0004 60.5406 64.9323 74.9992 50.8818 74.9992C36.8313 74.9992 17.4072 70.8617 17.4072 56.4212C17.4072 41.9808 33.4838 22.0176 47.5343 22.0176C61.5848 22.0176 79.0004 31.6597 79.0004 46.1001Z" fill="#B9C700"/>
<path d="M44.6328 40.1364C44.6328 42.5114 46.5063 44.4369 48.8171 44.4369C51.128 44.4369 53.0015 42.5114 53.0015 40.1364C53.0015 37.7614 51.128 35.8359 48.8171 35.8359C46.5063 35.8359 44.6328 37.7614 44.6328 40.1364Z" stroke="#072506" stroke-width="4"/>
<path d="M27.8955 20.0695H44.6328C52.5227 20.0695 56.4677 20.0695 58.9189 22.5886C61.37 25.1078 61.37 29.1623 61.37 37.2713V43.0052C61.37 51.1142 61.37 55.1687 58.9189 57.6879C56.4677 60.2071 52.5227 60.2071 44.6328 60.2071H27.8955C17.3754 60.2071 12.1154 60.2071 8.84724 56.8481C5.57909 53.4895 5.57909 48.0832 5.57909 37.2713V31.5373C5.57909 20.7253 5.57909 15.3193 8.84724 11.9604C12.1154 8.60156 17.3754 8.60156 27.8955 8.60156H39.0537C41.6479 8.60156 42.9451 8.60156 44.0093 8.89462C46.897 9.68992 49.1529 12.0083 49.9268 14.9764C50.2119 16.0701 50.2119 17.4033 50.2119 20.0695" stroke="#072506" stroke-width="4" stroke-linecap="round"/>
</svg>
