<svg width="79" height="75" viewBox="0 0 79 75" fill="none" xmlns="http://www.w3.org/2000/svg">
<path d="M79 45.8329C79 60.407 64.5649 74.9995 50.1478 74.9995C35.7308 74.9995 15.8 70.8237 15.8 56.2495C15.8 41.6754 32.296 21.5273 46.713 21.5273C61.1301 21.5273 79 31.2587 79 45.8329Z" fill="#B9C700"/>
<path d="M60.1087 20.2539V34.7215M8.58694 20.2539C8.58694 29.1211 8.58694 48.5357 8.58694 49.6558C8.58694 53.6561 14.156 56.0342 25.2941 60.7906C29.7687 62.7012 32.0059 63.6566 34.3478 63.6566V32.8546" stroke="#072506" stroke-width="4" stroke-linecap="round" stroke-linejoin="round"/>
<path d="M42.9348 54.9764C42.9348 54.9764 45.4393 54.9764 47.9438 60.7634C47.9438 60.7634 55.8994 46.2959 62.971 43.4023" stroke="#072506" stroke-width="4" stroke-linecap="round" stroke-linejoin="round"/>
<path d="M23.8314 28.0422L15.47 23.9522C10.8813 21.7075 8.58694 20.5852 8.58694 18.8079C8.58694 17.0306 10.8813 15.9083 15.47 13.6637L23.8314 9.57362C28.9918 7.04929 31.5722 5.78711 34.3478 5.78711C37.1234 5.78711 39.7038 7.04926 44.8643 9.57362L53.2257 13.6637C57.8143 15.9083 60.1087 17.0306 60.1087 18.8079C60.1087 20.5852 57.8143 21.7075 53.2257 23.9522L44.8643 28.0422C39.7038 30.5666 37.1234 31.8287 34.3478 31.8287C31.5722 31.8287 28.9918 30.5666 23.8314 28.0422Z" stroke="#072506" stroke-width="4" stroke-linecap="round" stroke-linejoin="round"/>
<path d="M17.1739 34.7227L22.8986 37.6162" stroke="#072506" stroke-width="4" stroke-linecap="round" stroke-linejoin="round"/>
<path d="M48.6594 11.5742L20.0362 26.0418" stroke="#072506" stroke-width="4" stroke-linecap="round" stroke-linejoin="round"/>
</svg>
