<svg width="30" height="30" viewBox="0 0 30 30" fill="none" xmlns="http://www.w3.org/2000/svg">
<path d="M21.25 17.2556C21.25 16.8235 21.25 16.6075 21.315 16.415C21.504 15.8555 22.0023 15.6385 22.5014 15.4111C23.0625 15.1555 23.343 15.0277 23.621 15.0052C23.9366 14.9797 24.2528 15.0477 24.5225 15.1991C24.8801 15.3997 25.1295 15.7811 25.3849 16.0912C26.564 17.5235 27.1536 18.2397 27.3694 19.0295C27.5435 19.6667 27.5435 20.3332 27.3694 20.9705C27.0548 22.1224 26.0606 23.088 25.3247 23.9817C24.9484 24.4389 24.7601 24.6675 24.5225 24.8009C24.2528 24.9522 23.9366 25.0202 23.621 24.9947C23.343 24.9722 23.0625 24.8445 22.5014 24.5889C22.0023 24.3615 21.504 24.1445 21.315 23.585C21.25 23.3925 21.25 23.1765 21.25 22.7444V17.2556Z" stroke="#072506" stroke-width="2"/>
<path d="M11.875 26.25C13.6009 27.9166 16.3991 27.9166 18.125 26.25" stroke="#072506" stroke-width="2" stroke-linecap="round" stroke-linejoin="round"/>
<path d="M8.75 17.2556C8.75 16.7116 8.73472 16.2227 8.29489 15.8402C8.13491 15.7011 7.92281 15.6045 7.49864 15.4112C6.93751 15.1557 6.65695 15.028 6.37895 15.0055C5.54489 14.938 5.09615 15.5072 4.61516 16.0913C3.43594 17.5236 2.84632 18.2397 2.63057 19.0295C2.45647 19.6667 2.45647 20.3332 2.63057 20.9705C2.94525 22.1223 3.9394 23.0877 4.67526 23.9815C5.13911 24.5448 5.58221 25.059 6.37895 24.9945C6.65695 24.972 6.93751 24.8442 7.49864 24.5886C7.92281 24.3955 8.13491 24.2988 8.29489 24.1597C8.73472 23.7772 8.75 23.2883 8.75 22.7442V17.2556Z" stroke="#072506" stroke-width="2"/>
<path d="M2.5 20V15C2.5 8.09644 8.09644 2.5 15 2.5C21.9035 2.5 27.5 8.09644 27.5 15L27.5001 20" stroke="#072506" stroke-width="2" stroke-linecap="round" stroke-linejoin="round"/>
</svg>
