<svg width="34" height="34" viewBox="0 0 34 34" fill="none" xmlns="http://www.w3.org/2000/svg">
<path d="M3.54199 16.9993C3.54199 10.655 3.54199 7.48288 5.51292 5.51194C7.48385 3.54102 10.656 3.54102 17.0003 3.54102C23.3446 3.54102 26.5168 3.54102 28.4878 5.51194C30.4587 7.48288 30.4587 10.655 30.4587 16.9993C30.4587 23.3436 30.4587 26.5158 28.4878 28.4868C26.5168 30.4577 23.3446 30.4577 17.0003 30.4577C10.656 30.4577 7.48385 30.4577 5.51292 28.4868C3.54199 26.5158 3.54199 23.3436 3.54199 16.9993Z" stroke="#6DA117" stroke-width="2.5" stroke-linejoin="round"/>
<path d="M23.375 17C23.375 20.5208 20.5208 23.375 17 23.375C13.4792 23.375 10.625 20.5208 10.625 17C10.625 13.4792 13.4792 10.625 17 10.625C20.5208 10.625 23.375 13.4792 23.375 17Z" stroke="#6DA117" stroke-width="2.5"/>
<path d="M24.8028 9.20898H24.79" stroke="#6DA117" stroke-width="2" stroke-linecap="round" stroke-linejoin="round"/>
</svg>
