<svg width="266" height="83" viewBox="0 0 266 83" fill="none" xmlns="http://www.w3.org/2000/svg">
<path d="M101.613 44.8578C97.9278 44.8578 94.4545 43.1094 92.4636 38.6319L88.6092 30.487V42.0859C88.6092 43.5785 87.762 44.3887 86.3219 44.3887H83.1027C81.6201 44.3887 80.8154 43.5785 80.8154 42.0859V16.8413C80.8154 15.3488 81.6201 14.5386 83.1027 14.5386H86.3219C87.762 14.5386 88.6092 15.3488 88.6092 16.8413V27.7579L95.5558 16.1164C96.191 15.0076 97.0382 14.5386 98.3089 14.5386H102.121C103.985 14.5386 104.451 15.4341 103.392 17.1398L95.8946 28.9946L99.2408 35.4336C100.596 38.1628 101.655 38.8451 102.968 38.6745C103.222 38.6319 103.731 38.5467 104.069 38.4186C105.213 38.0775 105.679 38.7172 106.23 39.9112L106.696 41.0625C107.289 42.4271 106.908 43.6638 105.383 44.2181C104.197 44.6873 103.011 44.8578 101.613 44.8578ZM118.04 44.8578C112.026 44.8578 107.578 39.9112 107.578 33.3015C107.578 26.6919 112.026 21.7453 118.04 21.7453C120.921 21.7453 123.335 22.9393 124.733 25.1993V24.517C124.733 23.0246 125.537 22.2143 127.02 22.2143H130.07C131.552 22.2143 132.357 23.0246 132.357 24.517V42.0859C132.357 43.5785 131.552 44.3887 130.07 44.3887H127.02C125.537 44.3887 124.733 43.5785 124.733 42.0859V41.4464C123.335 43.6638 120.921 44.8578 118.04 44.8578ZM119.989 38.8878C122.954 38.8878 124.817 36.4571 124.817 33.3015C124.817 30.1459 122.954 27.7153 119.989 27.7153C116.981 27.7153 115.202 30.1886 115.202 33.3015C115.202 36.4145 116.981 38.8878 119.989 38.8878ZM139.346 44.3887C137.863 44.3887 137.058 43.5785 137.058 42.0859V24.517C137.058 23.0246 137.863 22.2143 139.346 22.2143H142.141C143.581 22.2143 144.428 23.0246 144.428 24.517V26.9903C145.149 22.6835 148.495 21.7453 150.02 21.7453C150.062 21.7453 150.57 21.7453 150.655 21.7879C151.756 21.7879 151.968 22.726 151.968 23.5363V27.3742C151.968 28.6535 151.29 29.2078 150.316 29.0799C149.935 29.0372 149.638 29.0372 149.3 29.0372C146.25 29.0372 144.683 31.084 144.683 35.0499V42.0859C144.683 43.5785 143.878 44.3887 142.395 44.3887H139.346ZM165.654 44.8578C158.411 44.8578 153.201 39.6979 153.201 33.3015C153.201 26.905 158.411 21.7453 165.654 21.7453C172.939 21.7453 178.107 26.905 178.107 33.3015C178.107 39.6979 172.939 44.8578 165.654 44.8578ZM165.654 38.8025C168.704 38.8025 170.991 36.4571 170.991 33.3015C170.991 30.1459 168.704 27.8432 165.654 27.8432C162.604 27.8432 160.359 30.1886 160.359 33.3015C160.359 36.4145 162.604 38.8025 165.654 38.8025ZM192.707 44.8578C185.464 44.8578 180.253 39.6979 180.253 33.3015C180.253 26.905 185.464 21.7453 192.707 21.7453C199.993 21.7453 205.159 26.905 205.159 33.3015C205.159 39.6979 199.993 44.8578 192.707 44.8578ZM192.707 38.8025C195.757 38.8025 198.043 36.4571 198.043 33.3015C198.043 30.1459 195.757 27.8432 192.707 27.8432C189.658 27.8432 187.411 30.1886 187.411 33.3015C187.411 36.4145 189.658 38.8025 192.707 38.8025ZM217.778 44.8578C213.966 44.8578 209.772 43.1947 209.772 36.8835V27.8432H207.781C207.02 27.8432 206.595 27.4167 206.595 26.6492V23.4083C206.595 22.6407 207.02 22.2143 207.781 22.2143H210.45L211.214 18.0353C211.339 17.0545 211.975 16.5854 212.95 16.5854H215.619C216.677 16.5854 217.227 17.1398 217.227 18.1633V22.2143H221.674C222.438 22.2143 222.86 22.6407 222.86 23.4083V26.6492C222.86 27.4167 222.438 27.8432 221.674 27.8432H217.227V37.0115C217.227 38.3334 217.863 38.8451 218.625 38.8451C219.641 38.8451 220.15 37.9497 220.15 36.9688C220.15 36.7557 220.15 36.4998 220.108 36.2439C220.024 35.4336 220.277 35.0072 221.082 35.0072H223.921C224.555 35.0072 225.063 35.2631 225.232 35.9028C225.446 36.4998 225.487 37.1394 225.529 37.6085C225.529 43.0668 221.674 44.8578 217.778 44.8578ZM239.365 44.8578C232.123 44.8578 226.913 39.6979 226.913 33.3015C226.913 26.905 232.123 21.7453 239.365 21.7453C246.65 21.7453 251.819 26.905 251.819 33.3015C251.819 39.6979 246.65 44.8578 239.365 44.8578ZM239.365 38.8025C242.415 38.8025 244.703 36.4571 244.703 33.3015C244.703 30.1459 242.415 27.8432 239.365 27.8432C236.315 27.8432 234.071 30.1886 234.071 33.3015C234.071 36.4145 236.315 38.8025 239.365 38.8025Z" fill="#123A10"/>
<path d="M5.90588 44.1851C5.90588 62.2527 20.4543 76.899 38.4005 76.899C44.3979 76.899 50.0147 75.2614 54.8368 72.409C53.1045 71.5723 51.4212 70.6364 49.7816 69.6098C49.449 69.4021 49.4029 69.1904 49.5203 68.8308C50.1428 66.9255 50.8925 65.0782 51.8772 63.331C52.0397 63.044 52.1658 62.7377 52.309 62.4398C52.2643 62.4134 52.221 62.3867 52.1765 62.3605C50.4788 64.1155 49.1583 66.1576 47.9203 68.2512C47.8385 68.2259 47.7867 68.2231 47.7516 68.1985C47.383 67.9326 47.0134 67.669 46.6525 67.394C43.9242 65.3107 41.476 62.9357 39.299 60.2737C39.0869 60.0142 39.0593 59.7919 39.2144 59.5084C39.5543 58.8884 39.8637 58.2511 40.2181 57.6406C41.7613 54.9883 43.6405 52.6064 45.8968 50.5307C46.0262 50.4115 46.1271 50.2601 46.2407 50.1231C46.2068 50.0848 46.1715 50.0461 46.1373 50.0074C44.4269 50.9113 42.8973 52.0944 41.4746 53.3956C40.0397 54.7085 38.7116 56.1417 37.3359 57.5242C37.3318 57.5207 37.3046 57.5029 37.2863 57.4783C37.2396 57.4152 37.1914 57.3524 37.1528 57.2843C35.1371 53.7918 34.4559 50.0883 35.5228 46.1511C36.1738 43.7462 37.3874 41.6821 39.4911 40.2577C39.9175 39.9695 40.3519 39.7344 40.7931 39.5524C42.3375 38.9153 43.967 38.9273 45.6248 39.5628C46.5285 39.9095 47.4144 40.43 48.1535 41.0569C49.1727 41.92 50.1161 42.9005 50.9627 43.9375C52.44 45.7473 53.4252 47.8709 54.4681 49.9497C54.5196 50.0519 54.4828 50.2587 54.4092 50.3587C53.2421 51.9505 52.0535 53.5254 50.893 55.1214C50.6694 55.4288 50.5414 55.8077 50.369 56.1536C50.4219 56.1898 50.474 56.2257 50.5262 56.2616C52.0187 54.6157 53.6052 53.0751 55.4153 51.7458C55.5694 51.9523 55.7257 52.1295 55.8459 52.3279C57.3998 54.8893 59.2175 57.2455 61.2711 59.4163C61.5012 59.6593 61.5267 59.8285 61.3751 60.1083C60.8441 61.0876 60.3159 62.07 59.8263 63.0702C59.6074 63.5188 59.4795 64.0144 59.3105 64.4883C59.3533 64.5108 59.3964 64.5333 59.439 64.5558C60.4479 63.2649 61.4572 61.9749 62.4881 60.6555C63.3322 61.4468 64.1886 62.1887 65.0578 62.8937C68.736 57.5921 70.8952 51.1428 70.8952 44.1851C70.8952 26.1178 56.3469 11.4714 38.4005 11.4714C20.4543 11.4714 5.90588 26.1178 5.90588 44.1851ZM37.6824 26.2182C37.6927 26.2033 37.7035 26.1894 37.7147 26.1748C37.7228 26.1977 37.7304 26.2198 37.7376 26.2428L37.6824 26.2182ZM37.7376 26.2428L37.7385 26.2434L37.7381 26.2441C37.7385 26.2434 37.7385 26.2434 37.7376 26.2428ZM35.2257 33.387C35.1726 30.8654 35.9366 28.6015 37.4314 26.6394L37.4866 26.6642C37.4873 26.6647 37.4873 26.6647 37.487 26.6656C37.7111 27.3192 37.91 27.9779 38.1675 28.612C38.4363 29.2724 38.7785 29.9021 39.0679 30.5538C39.376 31.2466 39.7018 31.9352 39.9482 32.6502C40.86 35.2928 40.2209 37.7783 37.7902 40.2354C36.1399 38.2471 35.279 35.9614 35.2257 33.387ZM24.7848 38.4609C23.9637 37.6042 23.235 36.6543 22.4883 35.7261C21.7859 34.8536 21.1512 33.9225 20.4216 33.0733C19.7206 32.2581 18.9439 31.509 18.1916 30.7271C18.1902 30.7271 18.1902 30.7271 18.1902 30.7257L18.1949 30.6301C21.9931 29.9137 25.6926 30.4433 29.1709 32.3117C32.722 34.2179 35.2962 37.0598 36.895 40.8057C35.1625 41.3728 33.5693 41.6518 32.1026 41.6518C29.2054 41.6518 26.8007 40.5639 24.7848 38.4609Z" fill="#B9C700"/>
<path d="M82.1498 63.5838H85.8095V64.4614H82.1498V63.5838ZM82.2513 67.3497H81.2375V60.2057H86.2453V61.0936H82.2513V67.3497ZM90.3714 67.3497V61.9406H91.3039V63.4104L91.2127 63.0428C91.3614 62.6686 91.6113 62.3829 91.9628 62.1856C92.3142 61.9883 92.7469 61.8896 93.2604 61.8896V62.8387C93.2199 62.832 93.1793 62.8285 93.1388 62.8285C93.1049 62.8285 93.0712 62.8285 93.0373 62.8285C92.517 62.8285 92.1048 62.985 91.8007 63.298C91.4966 63.611 91.3444 64.0635 91.3444 64.6554V67.3497H90.3714ZM99.7296 67.4109C99.2701 67.4109 98.8646 67.326 98.5132 67.1557C98.1684 66.9857 97.8982 66.7272 97.7022 66.3801C97.5129 66.0263 97.4184 65.5842 97.4184 65.0535V61.9406H98.3915V64.9411C98.3915 65.4718 98.5165 65.8699 98.7667 66.1353C99.0234 66.4007 99.3815 66.5332 99.841 66.5332C100.179 66.5332 100.473 66.4652 100.723 66.3291C100.973 66.1863 101.166 65.9821 101.301 65.7168C101.436 65.4446 101.504 65.118 101.504 64.737V61.9406H102.477V67.3497H101.554V65.8903L101.706 66.2781C101.531 66.6388 101.267 66.9176 100.916 67.1149C100.564 67.3122 100.169 67.4109 99.7296 67.4109ZM107.269 67.3497V61.9406H108.242V67.3497H107.269ZM107.756 60.8996C107.567 60.8996 107.408 60.8384 107.28 60.716C107.158 60.5935 107.097 60.4438 107.097 60.2669C107.097 60.0832 107.158 59.9302 107.28 59.8076C107.408 59.6852 107.567 59.624 107.756 59.624C107.945 59.624 108.101 59.6852 108.222 59.8076C108.351 59.9233 108.415 60.0696 108.415 60.2465C108.415 60.4303 108.354 60.5868 108.232 60.716C108.111 60.8384 107.952 60.8996 107.756 60.8996ZM114.885 67.4109C114.345 67.4109 113.926 67.2646 113.628 66.9722C113.331 66.6795 113.182 66.261 113.182 65.7168V60.7568H114.156V65.676C114.156 65.9686 114.227 66.193 114.368 66.3495C114.517 66.506 114.727 66.5842 114.997 66.5842C115.301 66.5842 115.555 66.4993 115.757 66.3291L116.061 67.0334C115.913 67.1626 115.734 67.2579 115.524 67.3191C115.321 67.3803 115.109 67.4109 114.885 67.4109ZM112.27 62.7469V61.9406H115.696V62.7469H112.27ZM121.719 67.4109C121.273 67.4109 120.847 67.3497 120.441 67.2273C120.043 67.1047 119.728 66.9551 119.499 66.7782L119.904 66.0025C120.134 66.159 120.418 66.2916 120.756 66.4007C121.094 66.5095 121.438 66.5638 121.79 66.5638C122.242 66.5638 122.567 66.4993 122.763 66.3699C122.966 66.2406 123.067 66.0604 123.067 65.829C123.067 65.6589 123.006 65.5263 122.884 65.431C122.763 65.3357 122.601 65.2643 122.398 65.2167C122.202 65.169 121.982 65.1282 121.739 65.0943C121.496 65.0535 121.252 65.0058 121.009 64.9513C120.766 64.8901 120.543 64.8085 120.34 64.7064C120.137 64.5975 119.975 64.4512 119.853 64.2676C119.732 64.077 119.671 63.8254 119.671 63.5124C119.671 63.1858 119.762 62.9001 119.945 62.6551C120.127 62.4102 120.384 62.223 120.715 62.0938C121.053 61.9577 121.452 61.8896 121.911 61.8896C122.263 61.8896 122.618 61.934 122.976 62.0224C123.341 62.104 123.638 62.223 123.868 62.3795L123.452 63.1552C123.209 62.9919 122.955 62.8797 122.692 62.8183C122.428 62.7571 122.165 62.7265 121.901 62.7265C121.475 62.7265 121.158 62.7979 120.948 62.9409C120.739 63.077 120.634 63.2539 120.634 63.4716C120.634 63.6552 120.695 63.7981 120.817 63.9001C120.945 63.9954 121.107 64.0703 121.303 64.1247C121.506 64.1792 121.729 64.2268 121.972 64.2676C122.215 64.3016 122.459 64.3492 122.702 64.4104C122.945 64.4649 123.165 64.5432 123.361 64.6452C123.564 64.7472 123.726 64.8901 123.848 65.0739C123.976 65.2575 124.04 65.5024 124.04 65.8086C124.04 66.1353 123.946 66.4175 123.756 66.6556C123.567 66.8939 123.3 67.081 122.955 67.2171C122.611 67.3464 122.199 67.4109 121.719 67.4109ZM137.194 67.3497V66.2067L137.143 65.9923V64.0431C137.143 63.6281 137.021 63.3082 136.778 63.0836C136.541 62.8524 136.183 62.7367 135.703 62.7367C135.386 62.7367 135.075 62.7912 134.771 62.9001C134.467 63.0021 134.21 63.1415 134 63.3184L133.595 62.5837C133.872 62.3592 134.203 62.1889 134.588 62.0734C134.98 61.9508 135.389 61.8896 135.815 61.8896C136.552 61.8896 137.119 62.0699 137.518 62.4305C137.917 62.7912 138.116 63.3423 138.116 64.0839V67.3497H137.194ZM135.43 67.4109C135.031 67.4109 134.68 67.3428 134.375 67.2067C134.078 67.0708 133.848 66.8837 133.686 66.6454C133.524 66.4007 133.443 66.1251 133.443 65.8188C133.443 65.5263 133.51 65.261 133.646 65.0227C133.787 64.7846 134.014 64.5942 134.325 64.4512C134.642 64.3084 135.068 64.237 135.602 64.237H137.305V64.9411H135.643C135.156 64.9411 134.828 65.0227 134.659 65.1861C134.49 65.3494 134.406 65.5467 134.406 65.778C134.406 66.0433 134.511 66.2577 134.72 66.4211C134.93 66.5776 135.22 66.6556 135.592 66.6556C135.957 66.6556 136.275 66.574 136.545 66.4109C136.822 66.2475 137.021 66.0094 137.143 65.6964L137.336 66.3699C137.207 66.6897 136.981 66.9449 136.656 67.1353C136.332 67.3191 135.923 67.4109 135.43 67.4109ZM145.726 61.8896C146.165 61.8896 146.55 61.9748 146.881 62.1448C147.219 62.3148 147.483 62.5735 147.672 62.9205C147.861 63.2674 147.956 63.7063 147.956 64.237V67.3497H146.983V64.3492C146.983 63.8254 146.854 63.4308 146.598 63.1654C146.348 62.9001 145.993 62.7673 145.533 62.7673C145.188 62.7673 144.888 62.8353 144.631 62.9715C144.374 63.1076 144.175 63.3082 144.033 63.5736C143.898 63.8389 143.83 64.169 143.83 64.5636V67.3497H142.857V61.9406H143.79V63.4002L143.637 63.0123C143.813 62.6584 144.084 62.3829 144.448 62.1856C144.813 61.9883 145.239 61.8896 145.726 61.8896ZM154.917 67.4109C154.397 67.4109 153.93 67.2952 153.518 67.064C153.113 66.8325 152.791 66.5095 152.555 66.0943C152.318 65.6793 152.2 65.1963 152.2 64.6452C152.2 64.0941 152.318 63.6144 152.555 63.2062C152.791 62.7912 153.113 62.468 153.518 62.2366C153.93 62.0053 154.397 61.8896 154.917 61.8896C155.37 61.8896 155.779 61.9916 156.144 62.1958C156.508 62.4 156.799 62.7061 157.015 63.1144C157.238 63.5226 157.35 64.0329 157.35 64.6452C157.35 65.2575 157.242 65.7678 157.025 66.1761C156.816 66.5842 156.529 66.8939 156.164 67.1047C155.799 67.3089 155.383 67.4109 154.917 67.4109ZM154.998 66.5536C155.336 66.5536 155.64 66.4754 155.91 66.3189C156.188 66.1624 156.404 65.9413 156.559 65.6556C156.721 65.363 156.802 65.0262 156.802 64.6452C156.802 64.2574 156.721 63.924 156.559 63.645C156.404 63.3592 156.188 63.1382 155.91 62.9817C155.64 62.8251 155.336 62.7469 154.998 62.7469C154.653 62.7469 154.346 62.8251 154.075 62.9817C153.805 63.1382 153.589 63.3592 153.427 63.645C153.265 63.924 153.183 64.2574 153.183 64.6452C153.183 65.0262 153.265 65.363 153.427 65.6556C153.589 65.9413 153.805 66.1624 154.075 66.3189C154.346 66.4754 154.653 66.5536 154.998 66.5536ZM156.833 67.3497V65.8903L156.894 64.635L156.792 63.3796V59.777H157.766V67.3497H156.833ZM170.399 67.3497L167.276 60.2057H168.371L171.24 66.7986H170.612L173.501 60.2057H174.514L171.402 67.3497H170.399ZM180.204 67.4109C179.63 67.4109 179.123 67.2918 178.683 67.0537C178.25 66.8157 177.913 66.4891 177.67 66.0739C177.432 65.6589 177.315 65.1827 177.315 64.6452C177.315 64.1076 177.429 63.6314 177.66 63.2164C177.895 62.8014 178.217 62.4782 178.622 62.2468C179.034 62.0087 179.497 61.8896 180.011 61.8896C180.531 61.8896 180.99 62.0053 181.39 62.2366C181.789 62.468 182.1 62.7946 182.323 63.2164C182.552 63.6314 182.667 64.118 182.667 64.6758C182.667 64.7166 182.664 64.7642 182.657 64.8187C182.657 64.8731 182.653 64.9241 182.646 64.9717H178.075V64.2676H182.14L181.745 64.5126C181.752 64.1655 181.68 63.856 181.532 63.5838C181.383 63.3117 181.177 63.1007 180.914 62.9511C180.657 62.7945 180.356 62.7163 180.011 62.7163C179.673 62.7163 179.373 62.7945 179.109 62.9511C178.846 63.1007 178.639 63.3151 178.491 63.594C178.342 63.8662 178.267 64.1792 178.267 64.533V64.6962C178.267 65.0568 178.349 65.38 178.51 65.6658C178.68 65.9447 178.914 66.1624 179.211 66.3189C179.508 66.4754 179.848 66.5536 180.234 66.5536C180.552 66.5536 180.838 66.4993 181.095 66.3903C181.359 66.2814 181.59 66.1182 181.785 65.9005L182.323 66.5332C182.079 66.819 181.775 67.0367 181.41 67.1863C181.052 67.3362 180.65 67.4109 180.204 67.4109ZM189.31 69.3908C188.817 69.3908 188.337 69.3194 187.871 69.1766C187.411 69.0405 187.036 68.8432 186.746 68.5847L187.212 67.8294C187.462 68.0471 187.769 68.2172 188.134 68.3397C188.499 68.469 188.88 68.5335 189.28 68.5335C189.914 68.5335 190.381 68.3839 190.679 68.0846C190.976 67.7851 191.125 67.3293 191.125 66.717V65.574L191.226 64.5024L191.175 63.4206V61.9406H192.098V66.6148C192.098 67.5674 191.862 68.2682 191.389 68.7173C190.915 69.1664 190.222 69.3908 189.31 69.3908ZM189.188 67.1251C188.669 67.1251 188.203 67.0163 187.79 66.7986C187.383 66.574 187.06 66.2645 186.816 65.8699C186.58 65.4752 186.461 65.0194 186.461 64.5024C186.461 63.9784 186.58 63.5226 186.816 63.1348C187.06 62.74 187.383 62.4339 187.79 62.2162C188.203 61.9985 188.669 61.8896 189.188 61.8896C189.649 61.8896 190.066 61.985 190.445 62.1754C190.824 62.3592 191.125 62.6449 191.348 63.0327C191.577 63.4206 191.692 63.9103 191.692 64.5024C191.692 65.0874 191.577 65.574 191.348 65.9617C191.125 66.3495 190.824 66.6421 190.445 66.8394C190.066 67.0298 189.649 67.1251 189.188 67.1251ZM189.299 66.2679C189.658 66.2679 189.975 66.193 190.253 66.0433C190.531 65.8937 190.746 65.6862 190.901 65.4208C191.064 65.1555 191.146 64.8493 191.146 64.5024C191.146 64.1553 191.064 63.8491 190.901 63.5838C190.746 63.3184 190.531 63.1144 190.253 62.9715C189.975 62.8218 189.658 62.7469 189.299 62.7469C188.941 62.7469 188.62 62.8218 188.337 62.9715C188.059 63.1144 187.841 63.3184 187.679 63.5838C187.523 63.8491 187.444 64.1553 187.444 64.5024C187.444 64.8493 187.523 65.1555 187.679 65.4208C187.841 65.6862 188.059 65.8937 188.337 66.0433C188.62 66.193 188.941 66.2679 189.299 66.2679ZM199.289 67.4109C198.716 67.4109 198.208 67.2918 197.769 67.0537C197.336 66.8157 196.999 66.4891 196.756 66.0739C196.519 65.6589 196.4 65.1827 196.4 64.6452C196.4 64.1076 196.515 63.6314 196.746 63.2164C196.981 62.8014 197.303 62.4782 197.708 62.2468C198.12 62.0087 198.583 61.8896 199.097 61.8896C199.617 61.8896 200.077 62.0053 200.477 62.2366C200.875 62.468 201.186 62.7946 201.408 63.2164C201.638 63.6314 201.753 64.118 201.753 64.6758C201.753 64.7166 201.75 64.7642 201.743 64.8187C201.743 64.8731 201.739 64.9241 201.732 64.9717H197.161V64.2676H201.226L200.831 64.5126C200.838 64.1655 200.767 63.856 200.618 63.5838C200.47 63.3117 200.263 63.1007 200 62.9511C199.743 62.7945 199.443 62.7163 199.097 62.7163C198.76 62.7163 198.459 62.7945 198.195 62.9511C197.932 63.1007 197.726 63.3151 197.577 63.594C197.429 63.8662 197.353 64.1792 197.353 64.533V64.6962C197.353 65.0568 197.434 65.38 197.596 65.6658C197.766 65.9447 197.998 66.1624 198.297 66.3189C198.594 66.4754 198.934 66.5536 199.32 66.5536C199.638 66.5536 199.925 66.4993 200.181 66.3903C200.445 66.2814 200.676 66.1182 200.871 65.9005L201.408 66.5332C201.165 66.819 200.861 67.0367 200.496 67.1863C200.138 67.3362 199.736 67.4109 199.289 67.4109ZM207.89 67.4109C207.348 67.4109 206.929 67.2646 206.632 66.9722C206.335 66.6795 206.186 66.261 206.186 65.7168V60.7568H207.159V65.676C207.159 65.9686 207.231 66.193 207.372 66.3495C207.521 66.506 207.731 66.5842 208.001 66.5842C208.305 66.5842 208.559 66.4993 208.761 66.3291L209.065 67.0334C208.917 67.1626 208.737 67.2579 208.527 67.3191C208.324 67.3803 208.113 67.4109 207.89 67.4109ZM205.273 62.7469V61.9406H208.7V62.7469H205.273ZM216.516 67.3497V66.2067L216.466 65.9923V64.0431C216.466 63.6281 216.345 63.3082 216.101 63.0836C215.865 62.8524 215.507 62.7367 215.027 62.7367C214.709 62.7367 214.398 62.7912 214.094 62.9001C213.79 63.0021 213.533 63.1415 213.323 63.3184L212.918 62.5837C213.194 62.3592 213.526 62.1889 213.912 62.0734C214.303 61.9508 214.712 61.8896 215.138 61.8896C215.875 61.8896 216.443 62.0699 216.841 62.4305C217.24 62.7912 217.439 63.3423 217.439 64.0839V67.3497H216.516ZM214.752 67.4109C214.354 67.4109 214.003 67.3428 213.699 67.2067C213.4 67.0708 213.172 66.8837 213.009 66.6454C212.847 66.4007 212.766 66.1251 212.766 65.8188C212.766 65.5263 212.833 65.261 212.969 65.0227C213.11 64.7846 213.337 64.5942 213.648 64.4512C213.966 64.3084 214.391 64.237 214.925 64.237H216.628V64.9411H214.965C214.48 64.9411 214.151 65.0227 213.982 65.1861C213.814 65.3494 213.729 65.5467 213.729 65.778C213.729 66.0433 213.834 66.2577 214.043 66.4211C214.253 66.5776 214.543 66.6556 214.915 66.6556C215.28 66.6556 215.598 66.574 215.868 66.4109C216.144 66.2475 216.345 66.0094 216.466 65.6964L216.658 66.3699C216.53 66.6897 216.303 66.9449 215.98 67.1353C215.655 67.3191 215.247 67.4109 214.752 67.4109ZM225.028 67.4109C224.569 67.4109 224.153 67.3089 223.781 67.1047C223.418 66.8939 223.126 66.5842 222.909 66.1761C222.7 65.7678 222.595 65.2575 222.595 64.6452C222.595 64.0329 222.703 63.5226 222.92 63.1144C223.143 62.7061 223.437 62.4 223.802 62.1958C224.174 61.9916 224.583 61.8896 225.028 61.8896C225.556 61.8896 226.022 62.0053 226.427 62.2366C226.832 62.468 227.154 62.7912 227.391 63.2062C227.627 63.6144 227.746 64.0941 227.746 64.6452C227.746 65.1963 227.627 65.6793 227.391 66.0943C227.154 66.5095 226.832 66.8325 226.427 67.064C226.022 67.2952 225.556 67.4109 225.028 67.4109ZM222.179 67.3497V59.777H223.154V63.3796L223.053 64.635L223.112 65.8903V67.3497H222.179ZM224.948 66.5536C225.292 66.5536 225.599 66.4754 225.87 66.3189C226.148 66.1624 226.363 65.9413 226.518 65.6556C226.68 65.363 226.763 65.0262 226.763 64.6452C226.763 64.2574 226.68 63.924 226.518 63.645C226.363 63.3592 226.148 63.1382 225.87 62.9817C225.599 62.8251 225.292 62.7469 224.948 62.7469C224.609 62.7469 224.301 62.8251 224.025 62.9817C223.755 63.1382 223.538 63.3592 223.376 63.645C223.22 63.924 223.143 64.2574 223.143 64.6452C223.143 65.0262 223.22 65.363 223.376 65.6556C223.538 65.9413 223.755 66.1624 224.025 66.3189C224.301 66.4754 224.609 66.5536 224.948 66.5536ZM232.031 67.3497V59.777H233.003V67.3497H232.031ZM240.193 67.4109C239.618 67.4109 239.112 67.2918 238.673 67.0537C238.24 66.8157 237.903 66.4891 237.658 66.0739C237.423 65.6589 237.304 65.1827 237.304 64.6452C237.304 64.1076 237.419 63.6314 237.65 63.2164C237.885 62.8014 238.207 62.4782 238.612 62.2468C239.024 62.0087 239.487 61.8896 240.001 61.8896C240.521 61.8896 240.981 62.0053 241.379 62.2366C241.779 62.468 242.09 62.7946 242.312 63.2164C242.542 63.6314 242.657 64.118 242.657 64.6758C242.657 64.7166 242.654 64.7642 242.647 64.8187C242.647 64.8731 242.643 64.9241 242.636 64.9717H238.065V64.2676H242.13L241.733 64.5126C241.74 64.1655 241.671 63.856 241.522 63.5838C241.372 63.3117 241.166 63.1007 240.904 62.9511C240.647 62.7945 240.345 62.7163 240.001 62.7163C239.664 62.7163 239.361 62.7945 239.099 62.9511C238.836 63.1007 238.63 63.3151 238.479 63.594C238.331 63.8662 238.258 64.1792 238.258 64.533V64.6962C238.258 65.0568 238.338 65.38 238.5 65.6658C238.67 65.9447 238.902 66.1624 239.201 66.3189C239.498 66.4754 239.838 66.5536 240.224 66.5536C240.542 66.5536 240.829 66.4993 241.085 66.3903C241.349 66.2814 241.58 66.1182 241.775 65.9005L242.312 66.5332C242.069 66.819 241.765 67.0367 241.4 67.1863C241.042 67.3362 240.64 67.4109 240.193 67.4109ZM248.49 67.4109C248.042 67.4109 247.616 67.3497 247.211 67.2273C246.813 67.1047 246.498 66.9551 246.27 66.7782L246.675 66.0025C246.904 66.159 247.188 66.2916 247.525 66.4007C247.864 66.5095 248.208 66.5638 248.56 66.5638C249.012 66.5638 249.337 66.4993 249.532 66.3699C249.735 66.2406 249.836 66.0604 249.836 65.829C249.836 65.6589 249.777 65.5263 249.655 65.431C249.532 65.3357 249.37 65.2643 249.167 65.2167C248.972 65.169 248.752 65.1282 248.509 65.0943C248.266 65.0535 248.023 65.0058 247.779 64.9513C247.536 64.8901 247.312 64.8085 247.11 64.7064C246.907 64.5975 246.745 64.4512 246.624 64.2676C246.502 64.077 246.441 63.8254 246.441 63.5124C246.441 63.1858 246.532 62.9001 246.715 62.6551C246.897 62.4102 247.153 62.223 247.485 62.0938C247.822 61.9577 248.222 61.8896 248.682 61.8896C249.033 61.8896 249.387 61.934 249.745 62.0224C250.111 62.104 250.408 62.223 250.638 62.3795L250.222 63.1552C249.98 62.9919 249.726 62.8797 249.463 62.8183C249.199 62.7571 248.935 62.7265 248.671 62.7265C248.245 62.7265 247.927 62.7979 247.718 62.9409C247.51 63.077 247.405 63.2539 247.405 63.4716C247.405 63.6552 247.464 63.7981 247.587 63.9001C247.716 63.9954 247.877 64.0703 248.074 64.1247C248.277 64.1792 248.498 64.2268 248.743 64.2676C248.986 64.3016 249.228 64.3492 249.473 64.4104C249.716 64.4649 249.936 64.5432 250.132 64.6452C250.334 64.7472 250.497 64.8901 250.617 65.0739C250.746 65.2575 250.811 65.5024 250.811 65.8086C250.811 66.1353 250.715 66.4175 250.526 66.6556C250.338 66.8939 250.07 67.081 249.726 67.2171C249.38 67.3464 248.968 67.4109 248.49 67.4109Z" fill="#48660E"/>
</svg>
