<svg width="154" height="22" viewBox="0 0 154 22" fill="none" xmlns="http://www.w3.org/2000/svg">
<path d="M2 11H152" stroke="#CACACA" stroke-width="4" stroke-linecap="round"/>
<path d="M68.291 11C68.291 6.89486 68.291 4.84229 69.5663 3.56698C70.8416 2.29167 72.8942 2.29167 76.9993 2.29167C81.1045 2.29167 83.1571 2.29167 84.4324 3.56698C85.7077 4.84229 85.7077 6.89486 85.7077 11C85.7077 15.1051 85.7077 17.1577 84.4324 18.4331C83.1571 19.7083 81.1045 19.7083 76.9993 19.7083C72.8942 19.7083 70.8416 19.7083 69.5663 18.4331C68.291 17.1577 68.291 15.1051 68.291 11Z" fill="#CACACA" stroke="#CACACA" stroke-width="1.5"/>
<path d="M73.334 12.6042C73.334 12.6042 74.8007 13.4406 75.534 14.6667C75.534 14.6667 77.734 9.85417 80.6673 8.25" stroke="white" stroke-width="1.5" stroke-linecap="round" stroke-linejoin="round"/>
</svg>
