<svg width="30" height="30" viewBox="0 0 30 30" fill="none" xmlns="http://www.w3.org/2000/svg">
<path d="M18.75 22.0312C18.658 24.3461 16.7289 26.3117 14.1445 26.2485C13.5433 26.2337 12.8001 26.0242 11.3139 25.605C7.73701 24.596 4.63194 22.9004 3.88695 19.1019C3.75 18.4037 3.75 17.618 3.75 16.0466V13.9534C3.75 12.382 3.75 11.5963 3.88695 10.8981C4.63194 7.09956 7.73701 5.40395 11.3139 4.39503C12.8001 3.9758 13.5433 3.76618 14.1445 3.75148C16.7289 3.68826 18.658 5.65383 18.75 7.96876" stroke="#072506" stroke-width="1.875" stroke-linecap="round"/>
<path d="M26.25 15H12.5M26.25 15C26.25 14.1247 23.7571 12.4894 23.125 11.875M26.25 15C26.25 15.8753 23.7571 17.5106 23.125 18.125" stroke="#072506" stroke-width="1.875" stroke-linecap="round" stroke-linejoin="round"/>
</svg>
