<svg width="40" height="40" viewBox="0 0 40 40" fill="none" xmlns="http://www.w3.org/2000/svg">
<path d="M2 19.4999C2 29.1651 9.83502 37 19.5 37C22.7299 37 25.7548 36.1239 28.3518 34.5981C27.4188 34.1505 26.5123 33.6499 25.6292 33.1007C25.4501 32.9896 25.4253 32.8763 25.4885 32.684C25.8238 31.6647 26.2275 30.6765 26.7579 29.7419C26.8454 29.5884 26.9133 29.4245 26.9904 29.2651C26.9663 29.251 26.943 29.2367 26.919 29.2227C26.0048 30.1615 25.2936 31.2539 24.6269 32.3739C24.5828 32.3604 24.5549 32.3589 24.536 32.3457C24.3375 32.2035 24.1385 32.0625 23.9441 31.9153C22.4748 30.8009 21.1563 29.5304 19.9838 28.1064C19.8696 27.9676 19.8548 27.8487 19.9383 27.697C20.1214 27.3653 20.288 27.0244 20.4788 26.6978C21.3099 25.279 22.322 24.0049 23.5371 22.8945C23.6068 22.8307 23.6611 22.7497 23.7223 22.6764C23.704 22.6559 23.685 22.6352 23.6666 22.6145C22.7455 23.098 21.9217 23.7309 21.1556 24.427C20.3828 25.1293 19.6675 25.896 18.9266 26.6356C18.9244 26.6337 18.9098 26.6242 18.8999 26.611C18.8748 26.5772 18.8488 26.5437 18.828 26.5073C17.7425 24.639 17.3756 22.6578 17.9502 20.5516C18.3008 19.2651 18.9544 18.161 20.0873 17.399C20.3169 17.2448 20.5509 17.1191 20.7885 17.0217C21.6202 16.6809 22.4978 16.6873 23.3906 17.0272C23.8773 17.2127 24.3544 17.4912 24.7524 17.8265C25.3013 18.2882 25.8094 18.8128 26.2653 19.3675C27.061 20.3356 27.5915 21.4716 28.1532 22.5837C28.1809 22.6383 28.1611 22.7489 28.1215 22.8025C27.4929 23.654 26.8528 24.4964 26.2278 25.3502C26.1074 25.5146 26.0384 25.7174 25.9456 25.9024C25.9741 25.9218 26.0021 25.941 26.0303 25.9602C26.8341 25.0797 27.6885 24.2555 28.6633 23.5445C28.7463 23.6549 28.8305 23.7497 28.8952 23.8558C29.732 25.226 30.711 26.4865 31.8169 27.6477C31.9408 27.7777 31.9546 27.8682 31.8729 28.0179C31.5869 28.5418 31.3025 29.0673 31.0388 29.6024C30.9209 29.8423 30.8521 30.1074 30.761 30.3609C30.7841 30.373 30.8073 30.385 30.8303 30.3971C31.3736 29.7065 31.9171 29.0164 32.4723 28.3106C32.9269 28.7339 33.3882 29.1308 33.8562 29.5079C35.8371 26.6719 37 23.2219 37 19.4999C37 9.83497 29.165 2 19.5 2C9.83502 2 2 9.83497 2 19.4999ZM19.1132 9.88868C19.1188 9.88069 19.1246 9.87326 19.1306 9.86545C19.135 9.87768 19.1391 9.88953 19.143 9.90185L19.1132 9.88868ZM19.143 9.90185L19.1434 9.90214L19.1432 9.90251C19.1434 9.90214 19.1434 9.90214 19.143 9.90185ZM17.7902 13.7236C17.7616 12.3746 18.173 11.1636 18.9781 10.114L19.0078 10.1272C19.0082 10.1275 19.0082 10.1275 19.008 10.128C19.1287 10.4776 19.2358 10.83 19.3745 11.1692C19.5192 11.5225 19.7035 11.8593 19.8594 12.2079C20.0253 12.5786 20.2008 12.9469 20.3335 13.3294C20.8245 14.7431 20.4803 16.0726 19.1713 17.3871C18.2825 16.3234 17.8189 15.1007 17.7902 13.7236ZM12.1673 16.4378C11.725 15.9795 11.3326 15.4714 10.9304 14.9749C10.5522 14.5081 10.2104 14.01 9.81743 13.5557C9.43994 13.1196 9.02162 12.7189 8.61647 12.3007C8.61571 12.3007 8.61571 12.3007 8.61571 12.2999L8.61825 12.2488C10.6638 11.8655 12.6561 12.1489 14.5294 13.1483C16.4418 14.168 17.8282 15.6883 18.6892 17.6921C17.7561 17.9955 16.8981 18.1448 16.1082 18.1448C14.5479 18.1448 13.2529 17.5628 12.1673 16.4378Z" fill="url(#paint0_linear_2175_8818)"/>
<defs>
<linearGradient id="paint0_linear_2175_8818" x1="19.5" y1="2" x2="19.5" y2="37" gradientUnits="userSpaceOnUse">
<stop stop-color="#B9C700"/>
<stop offset="1" stop-color="#6DA117"/>
</linearGradient>
</defs>
</svg>
