<svg width="35" height="36" viewBox="0 0 35 36" fill="none" xmlns="http://www.w3.org/2000/svg">
<path d="M0 17.9999C0 27.9412 7.83502 36 17.5 36C20.7299 36 23.7548 35.0989 26.3518 33.5294C25.4188 33.0691 24.5123 32.5541 23.6292 31.9893C23.4501 31.875 23.4253 31.7585 23.4885 31.5606C23.8238 30.5123 24.2275 29.4959 24.7579 28.5345C24.8454 28.3766 24.9133 28.2081 24.9904 28.0441C24.9663 28.0296 24.943 28.0149 24.919 28.0005C24.0048 28.9661 23.2936 30.0898 22.6269 31.2417C22.5828 31.2278 22.5549 31.2263 22.536 31.2127C22.3375 31.0664 22.1385 30.9214 21.9441 30.7701C20.4748 29.6238 19.1563 28.317 17.9838 26.8523C17.8696 26.7095 17.8548 26.5872 17.9383 26.4312C18.1214 26.0901 18.288 25.7394 18.4788 25.4035C19.3099 23.9441 20.322 22.6336 21.5371 21.4915C21.6068 21.4259 21.6611 21.3425 21.7223 21.2672C21.704 21.2461 21.685 21.2248 21.6666 21.2035C20.7455 21.7008 19.9217 22.3518 19.1556 23.0678C18.3828 23.7902 17.6675 24.5787 16.9266 25.3394C16.9244 25.3375 16.9098 25.3277 16.8999 25.3142C16.8748 25.2794 16.8488 25.2449 16.828 25.2075C15.7425 23.2858 15.3756 21.248 15.9502 19.0816C16.3008 17.7584 16.9544 16.6227 18.0873 15.839C18.3169 15.6804 18.5509 15.551 18.7885 15.4509C19.6202 15.1003 20.4978 15.1069 21.3906 15.4566C21.8773 15.6474 22.3544 15.9338 22.7524 16.2787C23.3013 16.7536 23.8094 17.2931 24.2653 17.8637C25.061 18.8595 25.5915 20.0279 26.1532 21.1718C26.1809 21.228 26.1611 21.3418 26.1215 21.3968C25.4929 22.2727 24.8528 23.1392 24.2278 24.0174C24.1074 24.1865 24.0384 24.395 23.9456 24.5853C23.9741 24.6052 24.0021 24.625 24.0303 24.6447C24.8341 23.7391 25.6885 22.8914 26.6633 22.16C26.7463 22.2736 26.8305 22.3712 26.8952 22.4803C27.732 23.8896 28.711 25.1861 29.8169 26.3805C29.9408 26.5142 29.9546 26.6073 29.8729 26.7613C29.5869 27.3001 29.3025 27.8407 29.0388 28.391C28.9209 28.6378 28.8521 28.9105 28.761 29.1713C28.7841 29.1836 28.8073 29.196 28.8303 29.2084C29.3736 28.4981 29.9171 27.7883 30.4723 27.0624C30.9269 27.4978 31.3882 27.906 31.8562 28.2939C33.8371 25.3768 35 21.8283 35 17.9999C35 8.05883 27.165 0 17.5 0C7.83502 0 0 8.05883 0 17.9999ZM17.1132 8.11408C17.1188 8.10585 17.1246 8.09821 17.1306 8.09018C17.135 8.10276 17.1391 8.11495 17.143 8.12762L17.1132 8.11408ZM17.143 8.12762L17.1434 8.12791L17.1432 8.1283C17.1434 8.12791 17.1434 8.12791 17.143 8.12762ZM15.7902 12.0585C15.7616 10.671 16.173 9.42541 16.9781 8.34581L17.0078 8.35945C17.0082 8.35974 17.0082 8.35974 17.008 8.36022C17.1287 8.71986 17.2358 9.08231 17.3745 9.43121C17.5192 9.79453 17.7035 10.141 17.8594 10.4996C18.0253 10.8808 18.2008 11.2597 18.3335 11.6531C18.8245 13.1072 18.4803 14.4747 17.1713 15.8267C16.2825 14.7327 15.8189 13.475 15.7902 12.0585ZM10.1673 14.8503C9.72504 14.3789 9.33259 13.8562 8.93045 13.3456C8.5522 12.8655 8.21036 12.3531 7.81743 11.8859C7.43994 11.4374 7.02162 11.0252 6.61647 10.595C6.61571 10.595 6.61571 10.595 6.61571 10.5942L6.61825 10.5416C8.66376 10.1474 10.6561 10.4388 12.5294 11.4669C14.4418 12.5157 15.8282 14.0794 16.6892 16.1405C15.7561 16.4525 14.8981 16.6061 14.1082 16.6061C12.5479 16.6061 11.2529 16.0074 10.1673 14.8503Z" fill="#B9C700"/>
</svg>
