<svg width="30" height="30" viewBox="0 0 30 30" fill="none" xmlns="http://www.w3.org/2000/svg">
<path d="M13.125 27.5H8.23859C6.30686 27.5 4.77039 26.56 3.39083 25.2457C0.566708 22.5551 5.2035 20.405 6.97196 19.352C10.1601 17.4536 14.0071 17.0147 17.5 18.0351" stroke="#072506" stroke-width="2" stroke-linecap="round" stroke-linejoin="round"/>
<path d="M20.625 8.125C20.625 11.2316 18.1066 13.75 15 13.75C11.8934 13.75 9.375 11.2316 9.375 8.125C9.375 5.0184 11.8934 2.5 15 2.5C18.1066 2.5 20.625 5.0184 20.625 8.125Z" stroke="#072506" stroke-width="2"/>
<path d="M23.0415 17.3106C23.4606 16.8564 23.6702 16.6294 23.8929 16.4969C24.4302 16.1773 25.092 16.1674 25.6384 16.4706C25.8647 16.5964 26.0807 16.8171 26.5129 17.2584C26.9449 17.6998 27.1609 17.9205 27.284 18.1518C27.5809 18.7099 27.5711 19.3859 27.2582 19.9348C27.1286 20.1623 26.9064 20.3764 26.4617 20.8046L21.1722 25.8993C20.3297 26.7108 19.9085 27.1165 19.382 27.3221C18.8556 27.5278 18.2767 27.5126 17.1192 27.4824L16.9617 27.4783C16.6094 27.469 16.4332 27.4644 16.3307 27.3481C16.2284 27.2319 16.2424 27.0524 16.2702 26.6935L16.2855 26.4985C16.3642 25.4883 16.4035 24.9831 16.6009 24.529C16.7981 24.0749 17.1384 23.7063 17.819 22.9688L23.0415 17.3106Z" stroke="#072506" stroke-width="2" stroke-linejoin="round"/>
</svg>
