<svg width="50" height="50" viewBox="0 0 50 50" fill="none" xmlns="http://www.w3.org/2000/svg">
<path d="M40.6257 36.4583C40.6257 39.3348 38.2938 41.6667 35.4173 41.6667C32.5409 41.6667 30.209 39.3348 30.209 36.4583C30.209 33.5819 32.5409 31.25 35.4173 31.25C38.2938 31.25 40.6257 33.5819 40.6257 36.4583Z" stroke="#898483" stroke-width="2.5"/>
<path d="M19.7917 36.4583C19.7917 39.3348 17.4598 41.6667 14.5833 41.6667C11.7069 41.6667 9.375 39.3348 9.375 36.4583C9.375 33.5819 11.7069 31.25 14.5833 31.25C17.4598 31.25 19.7917 33.5819 19.7917 36.4583Z" stroke="#898483" stroke-width="2.5"/>
<path d="M30.2077 36.4583H19.791M4.16602 8.33333H24.9993C27.9456 8.33333 29.4187 8.33333 30.3341 9.24862C31.2493 10.1639 31.2493 11.6371 31.2493 14.5833V32.2917M32.291 13.5417H36.0439C37.7725 13.5417 38.6366 13.5417 39.3531 13.9473C40.0693 14.3529 40.5141 15.094 41.4033 16.5761L44.9421 22.474C45.3846 23.2115 45.6058 23.5804 45.7193 23.9898C45.8327 24.3992 45.8327 24.8292 45.8327 25.6896V31.25C45.8327 33.1971 45.8327 34.1706 45.4139 34.8958C45.1398 35.3708 44.7452 35.7654 44.2702 36.0396C43.545 36.4583 42.5714 36.4583 40.6243 36.4583M4.16602 27.0833V31.25C4.16602 33.1971 4.16602 34.1706 4.58468 34.8958C4.85895 35.3708 5.25345 35.7654 5.72852 36.0396C6.45368 36.4583 7.42722 36.4583 9.37435 36.4583" stroke="#898483" stroke-width="2.5" stroke-linecap="round" stroke-linejoin="round"/>
<path d="M4.16602 14.5833H16.666M4.16602 20.8333H12.4993" stroke="#898483" stroke-width="2.5" stroke-linecap="round" stroke-linejoin="round"/>
</svg>
