<svg width="50" height="50" viewBox="0 0 50 50" fill="none" xmlns="http://www.w3.org/2000/svg">
<path d="M27.0833 45.8333H20.9992C16.1388 45.8333 13.7086 45.8333 12.0169 44.3233C10.3251 42.8135 9.89785 40.2633 9.04344 35.1627L6.62054 20.6991C6.22644 18.3465 6.02939 17.1701 6.63619 16.3976C7.24296 15.625 8.36392 15.625 10.6058 15.625H39.3942C41.636 15.625 42.7571 15.625 43.3638 16.3976C43.9706 17.1701 43.7735 18.3465 43.3794 20.6991L42.8335 23.9583" stroke="#6DA117" stroke-width="3.5" stroke-linecap="round"/>
<path d="M33.334 40.625C34.3579 41.6785 37.0836 45.8333 38.5423 45.8333M38.5423 45.8333C40.0011 45.8333 42.7267 41.6785 43.7507 40.625M38.5423 45.8333V29.1667" stroke="#6DA117" stroke-width="3.5" stroke-linecap="round" stroke-linejoin="round"/>
<path d="M14.584 15.625V14.5833C14.584 8.83038 19.2477 4.16667 25.0007 4.16667C30.7536 4.16667 35.4173 8.83038 35.4173 14.5833V15.625" stroke="#6DA117" stroke-width="3.5"/>
<path d="M9.375 36.4583H27.0833" stroke="#6DA117" stroke-width="3.5" stroke-linecap="round"/>
</svg>
