<svg width="26" height="26" viewBox="0 0 26 26" fill="none" xmlns="http://www.w3.org/2000/svg">
<path fill-rule="evenodd" clip-rule="evenodd" d="M5.2 0C2.32812 0 0 2.32812 0 5.2V20.8C0 23.6719 2.32812 26 5.2 26H20.8C23.6719 26 26 23.6719 26 20.8V5.2C26 2.32812 23.6719 0 20.8 0H5.2ZM12.2778 7.68321C12.2778 7.23451 11.9118 6.86436 11.4678 6.93042C8.66039 7.34738 6.5 9.90072 6.5 12.9883V18.2457C6.5 18.6944 6.8638 19.0582 7.3125 19.0582H11.4653C11.914 19.0582 12.2778 18.6944 12.2778 18.2457V14.5655C12.2778 14.1168 11.914 13.753 11.4653 13.753H9.38898V12.879C9.38898 11.4839 10.2709 10.307 11.477 9.93941C11.906 9.80849 12.2778 9.45659 12.2778 9.00769V7.68321ZM19.5 7.68321C19.5 7.23451 19.134 6.86436 18.6901 6.93042C15.8826 7.34738 13.7222 9.90072 13.7222 12.9883V18.2457C13.7222 18.6944 14.086 19.0582 14.5347 19.0582H18.6875C19.1362 19.0582 19.5 18.6944 19.5 18.2457V14.5655C19.5 14.1168 19.1362 13.753 18.6875 13.753H16.611V12.879C16.611 11.4841 17.4931 10.307 18.699 9.93941C19.1283 9.80849 19.5 9.45659 19.5 9.00769V7.68321Z" fill="#8B919E"/>
</svg>
