<svg width="30" height="30" viewBox="0 0 30 30" fill="none" xmlns="http://www.w3.org/2000/svg">
<path d="M24.6816 16.25C25.6703 14.8327 26.25 13.109 26.25 11.25C26.25 6.41751 22.3325 2.5 17.5 2.5C12.6675 2.5 8.75 6.4175 8.75 11.25C8.75 12.592 9.05211 13.8634 9.59204 15" stroke="#6DA117" stroke-width="2" stroke-linecap="round" stroke-linejoin="round"/>
<path d="M17.5 7.5C16.1193 7.5 15 8.33946 15 9.375C15 10.4105 16.1193 11.25 17.5 11.25C18.8807 11.25 20 12.0895 20 13.125C20 14.1605 18.8807 15 17.5 15M17.5 7.5C18.5885 7.5 19.5145 8.02175 19.8577 8.75M17.5 7.5V6.25M17.5 15C16.4115 15 15.4855 14.4782 15.1423 13.75M17.5 15V16.25" stroke="#6DA117" stroke-width="2" stroke-linecap="round"/>
<path d="M3.75 17.5H6.74353C7.11121 17.5 7.47385 17.5829 7.80271 17.742L10.3552 18.977C10.6841 19.1361 11.0467 19.2189 11.4144 19.2189H12.7176C13.9781 19.2189 15 20.2078 15 21.4275C15 21.4768 14.9662 21.5201 14.9172 21.5336L11.7411 22.4119C11.1713 22.5694 10.5612 22.5145 10.0312 22.258L7.30264 20.9379M15 20.625L20.741 18.8611C21.7588 18.544 22.8589 18.92 23.4964 19.8029C23.9574 20.4411 23.7696 21.3552 23.0981 21.7427L13.7036 27.1631C13.1061 27.5079 12.4012 27.592 11.7439 27.397L3.75 25.0249" stroke="#6DA117" stroke-width="2" stroke-linecap="round" stroke-linejoin="round"/>
</svg>
