<svg width="40" height="40" viewBox="0 0 40 40" fill="none" xmlns="http://www.w3.org/2000/svg">
<circle cx="20" cy="20" r="19" fill="#6DA117" stroke="white" stroke-width="2"/>
<path d="M15.8335 15C14.8163 15.003 14.2534 15.0274 13.7908 15.2215C13.1429 15.4935 12.6152 15.9959 12.307 16.6342C12.0554 17.1553 12.0142 17.8229 11.9318 19.1581L11.8028 21.2504C11.598 24.5707 11.4956 26.2309 12.4699 27.2819C13.4442 28.3329 15.0856 28.3329 18.3685 28.3329H21.632C24.9148 28.3329 26.5561 28.3329 27.5305 27.2819C28.5048 26.2309 28.4024 24.5707 28.1976 21.2504L28.0686 19.1581C27.9862 17.8229 27.9451 17.1553 27.6935 16.6342C27.3852 15.9959 26.8576 15.4935 26.2096 15.2215C25.7471 15.0274 25.1841 15.003 24.1669 15" stroke="white" stroke-linecap="round"/>
<path d="M24.1667 15.8337L23.4285 13.9882C23.11 13.192 22.8329 12.2887 22.0139 11.8833C21.577 11.667 21.0514 11.667 20 11.667C18.9487 11.667 18.423 11.667 17.9862 11.8833C17.1672 12.2887 16.89 13.192 16.5716 13.9882L15.8334 15.8337" stroke="white" stroke-linecap="round" stroke-linejoin="round"/>
<path d="M22.9167 21.6667C22.9167 23.2775 21.6109 24.5833 20 24.5833C18.3892 24.5833 17.0834 23.2775 17.0834 21.6667C17.0834 20.0558 18.3892 18.75 20 18.75C21.6109 18.75 22.9167 20.0558 22.9167 21.6667Z" stroke="white"/>
<path d="M19.9999 15H20.0085" stroke="white" stroke-width="1.5" stroke-linecap="round" stroke-linejoin="round"/>
</svg>
