<svg width="30" height="30" viewBox="0 0 30 30" fill="none" xmlns="http://www.w3.org/2000/svg">
<path d="M26.6469 8.92674L26.0299 7.85599C25.5632 7.0462 25.33 6.64132 24.933 6.47985C24.536 6.3184 24.087 6.4458 23.1891 6.7006L21.6639 7.13023C21.0906 7.26243 20.4891 7.18743 19.9657 6.91849L19.5446 6.67553C19.0957 6.38804 18.7505 5.96417 18.5594 5.46593L18.142 4.2192C17.8675 3.39418 17.7302 2.98167 17.4035 2.74572C17.0769 2.50977 16.6429 2.50977 15.7749 2.50977H14.3814C13.5135 2.50977 13.0795 2.50977 12.7527 2.74572C12.4261 2.98167 12.2888 3.39418 12.0144 4.2192L11.5969 5.46593C11.4058 5.96417 11.0606 6.38804 10.6117 6.67553L10.1906 6.91849C9.66717 7.18743 9.06574 7.26243 8.49247 7.13023L6.96719 6.7006C6.06926 6.4458 5.62031 6.3184 5.22334 6.47985C4.82636 6.64132 4.59306 7.0462 4.12644 7.85599L3.50946 8.92674C3.07207 9.6858 2.85337 10.0653 2.89582 10.4694C2.93826 10.8734 3.23104 11.199 3.81657 11.8502L5.10537 13.291C5.42037 13.6898 5.64401 14.3848 5.64401 15.0096C5.64401 15.6348 5.42045 16.3295 5.10541 16.7284L3.81657 18.1693C3.23104 18.8205 2.93827 19.146 2.89582 19.5501C2.85337 19.9541 3.07207 20.3336 3.50946 21.0926L4.12642 22.1634C4.59304 22.9731 4.82636 23.3781 5.22334 23.5395C5.62031 23.701 6.06927 23.5736 6.96721 23.3188L8.49242 22.8891C9.06579 22.7569 9.66734 22.832 10.1908 23.101L10.6119 23.344C11.0606 23.6315 11.4058 24.0553 11.5969 24.5535L12.0144 25.8004C12.2888 26.6254 12.4261 27.0379 12.7527 27.2739C13.0795 27.5098 13.5135 27.5098 14.3814 27.5098H15.7749C16.6429 27.5098 17.0769 27.5098 17.4035 27.2739C17.7302 27.0379 17.8675 26.6254 18.142 25.8004L18.5595 24.5535C18.7505 24.0553 19.0956 23.6315 19.5445 23.344L19.9655 23.101C20.489 22.832 21.0905 22.7569 21.6639 22.8891L23.1891 23.3188C24.087 23.5736 24.536 23.701 24.933 23.5395C25.33 23.3781 25.5632 22.9731 26.0299 22.1634L26.6469 21.0926C27.0842 20.3336 27.3029 19.9541 27.2605 19.5501C27.218 19.146 26.9252 18.8205 26.3397 18.1693L25.0509 16.7284C24.7359 16.3295 24.5122 15.6348 24.5122 15.0096C24.5122 14.3848 24.736 13.6898 25.0509 13.291L26.3397 11.8502C26.9252 11.199 27.218 10.8734 27.2605 10.4694C27.3029 10.0653 27.0842 9.6858 26.6469 8.92674Z" stroke="#072506" stroke-width="2" stroke-linecap="round"/>
<path d="M19.3994 15C19.3994 17.4162 17.4406 19.375 15.0244 19.375C12.6081 19.375 10.6494 17.4162 10.6494 15C10.6494 12.5838 12.6081 10.625 15.0244 10.625C17.4406 10.625 19.3994 12.5838 19.3994 15Z" stroke="#072506" stroke-width="2"/>
</svg>
