<svg width="40" height="40" viewBox="0 0 40 40" fill="none" xmlns="http://www.w3.org/2000/svg">
<path d="M22.8792 5.74028L25.8123 11.6548C26.2122 12.4781 27.2788 13.2678 28.1788 13.419L33.4948 14.3096C36.8944 14.8809 37.6944 17.3676 35.2446 19.8208L31.1118 23.9878C30.4118 24.6935 30.0286 26.0545 30.2451 27.0291L31.4284 32.1875C32.3616 36.2705 30.2118 37.85 26.6289 35.716L21.6461 32.742C20.7463 32.2043 19.2631 32.2043 18.3464 32.742L13.3637 35.716C9.79742 37.85 7.631 36.2536 8.56423 32.1875L9.74743 27.0291C9.96407 26.0545 9.58078 24.6935 8.88085 23.9878L4.74798 19.8208C2.31492 17.3676 3.09817 14.8809 6.49778 14.3096L11.8139 13.419C12.6971 13.2678 13.7637 12.4781 14.1636 11.6548L17.0966 5.74028C18.6964 2.53099 21.2961 2.53099 22.8792 5.74028Z" fill="#E6E6E6" stroke="#E6E6E6" stroke-width="1.5" stroke-linecap="round" stroke-linejoin="round"/>
</svg>
