<svg width="22" height="22" viewBox="0 0 22 22" fill="none" xmlns="http://www.w3.org/2000/svg">
<path d="M2.71973 9.1685V13.7518C2.71973 16.3445 2.71973 17.6409 3.52518 18.4464C4.33064 19.2518 5.627 19.2518 8.21973 19.2518H10.9697" stroke="#072506" stroke-width="1.5" stroke-linecap="round"/>
<path d="M6.38672 15.5852H10.0534" stroke="#072506" stroke-width="1.5" stroke-linecap="round"/>
<path d="M16.9281 12.3768C18.7 12.3768 20.1364 13.7863 20.1364 15.5249C20.1364 17.4916 18.197 18.4585 17.2718 19.9328C17.0746 20.2471 16.7957 20.2471 16.5843 19.9328C15.6302 18.5146 13.7197 17.4507 13.7197 15.5249C13.7197 13.7863 15.1561 12.3768 16.9281 12.3768Z" stroke="#072506" stroke-width="1.5" stroke-linejoin="round"/>
<path d="M16.9277 15.5852H16.9369" stroke="#072506" stroke-width="1.5" stroke-linecap="round" stroke-linejoin="round"/>
<path d="M9.26149 7.26297C9.00301 8.19764 8.06293 9.80998 6.27679 10.0436C4.69972 10.2499 3.50359 9.56074 3.19807 9.27254C2.86121 9.03885 2.09349 8.29111 1.90548 7.82378C1.71746 7.35644 1.93681 6.34388 2.09349 5.93107L2.71982 4.11534C2.87272 3.65928 3.23065 2.58061 3.5976 2.21577C3.96456 1.85091 4.7075 1.83505 5.01329 1.83505H11.435C13.0879 1.85842 16.7022 1.82029 17.4166 1.83505C18.1311 1.8498 18.5604 2.44943 18.6857 2.70647C19.7517 5.2917 20.1663 6.77227 20.1663 7.40317C20.0272 8.0762 19.4513 9.34523 17.4166 9.90339C15.3019 10.4835 14.103 9.35522 13.7268 8.92201M8.39196 8.92201C8.68964 9.28812 9.62348 10.0249 10.9771 10.0436C12.3309 10.0623 13.4997 9.11673 13.9149 8.64161C14.0324 8.5014 14.2862 8.08548 14.5495 7.26297" stroke="#072506" stroke-width="1.5" stroke-linecap="round" stroke-linejoin="round"/>
</svg>
