<svg width="30" height="30" viewBox="0 0 30 30" fill="none" xmlns="http://www.w3.org/2000/svg">
<path d="M18.1247 23.75H15.6247C12.0892 23.75 10.3215 23.75 9.22311 22.6516C8.12476 21.5532 8.12476 19.7855 8.12476 16.25V10C8.12476 6.46446 8.12476 4.6967 9.22311 3.59835C10.3215 2.5 12.0892 2.5 15.6247 2.5H17.3037C18.3256 2.5 18.8365 2.5 19.296 2.6903C19.7554 2.8806 20.1166 3.24189 20.8392 3.96446L24.1602 7.28554C24.8829 8.0081 25.2441 8.3694 25.4345 8.82882C25.6247 9.28825 25.6247 9.79919 25.6247 10.8211V16.25C25.6247 19.7855 25.6247 21.5532 24.5264 22.6516C23.4281 23.75 21.6602 23.75 18.1247 23.75Z" stroke="#072506" stroke-width="2" stroke-linecap="round" stroke-linejoin="round"/>
<path d="M18.7498 3.125V4.375C18.7498 6.73202 18.7498 7.91054 19.482 8.64276C20.2143 9.375 21.3928 9.375 23.7498 9.375H24.9998" stroke="#072506" stroke-width="2" stroke-linecap="round" stroke-linejoin="round"/>
<path d="M8.12427 6.25C6.05321 6.25 4.37427 7.92894 4.37427 10V20C4.37427 23.5356 4.37427 25.3034 5.47262 26.4016C6.57097 27.5 8.33873 27.5 11.8743 27.5H18.1247C20.1957 27.5 21.8747 25.821 21.8747 23.75" stroke="#072506" stroke-width="2" stroke-linecap="round" stroke-linejoin="round"/>
<path d="M12.5 13.75H17.5M12.5 18.75H21.25" stroke="#072506" stroke-width="2" stroke-linecap="round" stroke-linejoin="round"/>
</svg>
