<svg width="30" height="30" viewBox="0 0 30 30" fill="none" xmlns="http://www.w3.org/2000/svg">
<path d="M20 17.5C20 18.5355 20.8395 19.375 21.875 19.375C22.9105 19.375 23.75 18.5355 23.75 17.5C23.75 16.4645 22.9105 15.625 21.875 15.625C20.8395 15.625 20 16.4645 20 17.5Z" stroke="#6DA117" stroke-width="2"/>
<path d="M12.5 8.75H20C23.5355 8.75 25.3032 8.75 26.4016 9.84835C27.5 10.9467 27.5 12.7145 27.5 16.25V18.75C27.5 22.2855 27.5 24.0532 26.4016 25.1516C25.3032 26.25 23.5355 26.25 20 26.25H12.5C7.78595 26.25 5.42894 26.25 3.96446 24.7855C2.5 23.3211 2.5 20.964 2.5 16.25V13.75C2.5 9.03595 2.5 6.67894 3.96446 5.21446C5.42894 3.75 7.78595 3.75 12.5 3.75H17.5C18.6625 3.75 19.2437 3.75 19.7206 3.87778C21.0146 4.22453 22.0255 5.23534 22.3723 6.52942C22.5 7.0063 22.5 7.58754 22.5 8.75" stroke="#6DA117" stroke-width="2" stroke-linecap="round"/>
</svg>
