<svg width="34" height="34" viewBox="0 0 34 34" fill="none" xmlns="http://www.w3.org/2000/svg">
<path d="M16.9997 31.1673C24.8236 31.1673 31.1663 24.8246 31.1663 17.0007C31.1663 9.17661 24.8236 2.83398 16.9997 2.83398C9.17564 2.83398 2.83301 9.17661 2.83301 17.0007C2.83301 18.9541 3.22836 20.8152 3.94342 22.5082C4.33861 23.4438 4.53621 23.9117 4.56068 24.2653C4.58514 24.6189 4.48107 25.0078 4.27294 25.7857L2.83301 31.1673L8.2146 29.7274C8.9925 29.5193 9.38146 29.4152 9.73504 29.4397C10.0886 29.4641 10.5565 29.6617 11.4922 30.0569C13.1852 30.7719 15.0462 31.1673 16.9997 31.1673Z" stroke="#6DA117" stroke-width="2.5" stroke-linejoin="round"/>
<path d="M12.1669 17.5339L13.4007 16.0014C13.9207 15.3556 14.5635 14.7544 14.614 13.8944C14.6266 13.6772 14.4738 12.702 14.1681 10.7517C14.048 9.98516 13.3324 9.91602 12.7125 9.91602C11.9048 9.91602 11.5009 9.91602 11.0998 10.0992C10.5929 10.3307 10.0725 10.9818 9.95832 11.5272C9.86796 11.9588 9.93511 12.2562 10.0694 12.8509C10.6398 15.377 11.978 17.8717 14.0529 19.9467C16.1279 22.0217 18.6227 23.3599 21.1488 23.9303C21.7435 24.0646 22.0408 24.1317 22.4725 24.0413C23.0179 23.9271 23.6689 23.4068 23.9005 22.8998C24.0837 22.4987 24.0837 22.095 24.0837 21.2872C24.0837 20.6672 24.0145 19.9517 23.248 19.8315C21.2976 19.5258 20.3226 19.3731 20.1052 19.3857C19.2453 19.4362 18.6441 20.0789 17.9982 20.599L16.4658 21.8327" stroke="#6DA117" stroke-width="2.5"/>
</svg>
